<svg width="18" height="18" viewBox="0 0 18 18" fill="none" xmlns="http://www.w3.org/2000/svg">
<path d="M9.0013 0.666748C13.6038 0.666748 17.3346 4.39758 17.3346 9.00008C17.3346 13.6026 13.6038 17.3334 9.0013 17.3334C4.3988 17.3334 0.667969 13.6026 0.667969 9.00008C0.667969 4.39758 4.3988 0.666748 9.0013 0.666748ZM9.0013 2.33341C7.23319 2.33341 5.5375 3.03579 4.28726 4.28604C3.03701 5.53628 2.33464 7.23197 2.33464 9.00008C2.33464 10.7682 3.03701 12.4639 4.28726 13.7141C5.5375 14.9644 7.23319 15.6667 9.0013 15.6667C10.7694 15.6667 12.4651 14.9644 13.7153 13.7141C14.9656 12.4639 15.668 10.7682 15.668 9.00008C15.668 7.23197 14.9656 5.53628 13.7153 4.28604C12.4651 3.03579 10.7694 2.33341 9.0013 2.33341ZM9.0013 4.83341C9.87846 4.83375 10.7331 5.11089 11.4436 5.62536C12.154 6.13984 12.684 6.86539 12.9579 7.69866C13.2319 8.53193 13.2359 9.43041 12.9694 10.2661C12.7029 11.1018 12.1794 11.832 11.4736 12.3528C10.7678 12.8736 9.91563 13.1584 9.03851 13.1666C8.16139 13.1747 7.30407 12.9059 6.58868 12.3983C5.8733 11.8907 5.33634 11.1704 5.05431 10.3398C4.77227 9.50921 4.75956 8.61081 5.01797 7.77258C5.2129 8.20817 5.55153 8.5636 5.97718 8.77938C6.40283 8.99516 6.88968 9.05821 7.35626 8.95796C7.82283 8.85772 8.24082 8.60026 8.54028 8.22869C8.83973 7.85712 9.00249 7.39397 9.0013 6.91675C9.00141 6.51547 8.88563 6.1227 8.66787 5.78564C8.45012 5.44859 8.13966 5.18159 7.7738 5.01675C8.16213 4.89758 8.5738 4.83341 9.0013 4.83341Z" fill="#8F8F8F"/>
</svg>
