<svg width="30" height="30" viewBox="0 0 30 30" fill="none" xmlns="http://www.w3.org/2000/svg">
<g clip-path="url(#clip0_41_1182)">
<path d="M28.6348 15.1232V10.9045C28.6348 9.4748 27.5273 8.31464 26.127 8.19745L22.2129 1.36542C21.8496 0.732608 21.2637 0.281436 20.5605 0.093936C19.8633 -0.093564 19.1309 0.00604537 18.5098 0.369327L5.08594 8.17987H2.72461C1.22461 8.17987 0 9.40448 0 10.9103V27.2756C0 28.7756 1.22461 30.0002 2.72461 30.0002H25.9043C27.4102 30.0002 28.6289 28.7756 28.6289 27.2756V23.0568C29.4199 22.7756 29.9941 22.0256 29.9941 21.135V17.0451C30 16.1603 29.4258 15.4103 28.6348 15.1232ZM24.5391 8.17987H18.5977L23.0566 5.58417L24.5391 8.17987ZM22.377 4.40644L15.8848 8.18573H13.1953L21.7031 3.23456L22.377 4.40644ZM19.1953 1.54706C19.5059 1.36542 19.8633 1.31855 20.209 1.4123C20.5547 1.50605 20.8477 1.7287 21.0293 2.04511L10.4883 8.17987H7.79297L19.1953 1.54706ZM27.2754 27.2756C27.2754 28.0256 26.666 28.6408 25.9102 28.6408H2.72461C1.97461 28.6408 1.35938 28.0314 1.35938 27.2756V10.9103C1.35938 10.1603 1.96875 9.54511 2.72461 9.54511H25.9043C26.6543 9.54511 27.2695 10.1545 27.2695 10.9103V15.0002H23.1797C20.9238 15.0002 19.0898 16.8342 19.0898 19.09C19.0898 21.3459 20.9238 23.1799 23.1797 23.1799H27.2695L27.2754 27.2756ZM28.6348 21.135C28.6348 21.51 28.3301 21.8146 27.9551 21.8146H23.1797C21.6738 21.8146 20.4551 20.59 20.4551 19.09C20.4551 17.5842 21.6797 16.3654 23.1797 16.3654H27.9551C28.3301 16.3654 28.6348 16.6701 28.6348 17.0451V21.135Z" fill="white"/>
<path d="M23.1797 17.7246C22.4297 17.7246 21.8145 18.334 21.8145 19.0898C21.8145 19.8457 22.4238 20.4551 23.1797 20.4551C23.9355 20.4551 24.5449 19.8457 24.5449 19.0898C24.5449 18.3398 23.9355 17.7246 23.1797 17.7246Z" fill="white"/>
</g>
<defs>
<clipPath id="clip0_41_1182">
<rect width="30" height="30" fill="white"/>
</clipPath>
</defs>
</svg>
