<svg width="30" height="30" viewBox="0 0 30 30" fill="none" xmlns="http://www.w3.org/2000/svg">
<g clip-path="url(#clip0_41_1174)">
<path d="M25.9687 5.27344C23.373 2.67773 19.916 1.24219 16.2422 1.24219C12.5039 1.24219 9 2.71875 6.39258 5.39648C6.11133 5.68945 6.11719 6.1582 6.4043 6.44531C6.69727 6.72656 7.16601 6.7207 7.45312 6.43359C9.78516 4.04297 12.9023 2.73047 16.2422 2.73047C23.0156 2.72461 28.5176 8.23242 28.5176 15C28.5176 21.7676 23.0098 27.2754 16.2422 27.2754C9.47461 27.2754 3.9668 21.7734 3.9668 15V14.8477L5.19141 16.0723C5.33203 16.2129 5.52539 16.2891 5.71875 16.2891C5.91211 16.2891 6.09375 16.2129 6.24609 16.0723C6.53906 15.7793 6.53906 15.3105 6.24609 15.0234L3.76758 12.5332C3.47461 12.2402 3.00586 12.2402 2.71875 12.5332L0.216797 15.0176C-0.0761719 15.3105 -0.0761719 15.7793 0.216797 16.0664C0.509766 16.3594 0.978515 16.3594 1.26562 16.0664L2.49023 14.8418V14.9941C2.49023 18.668 3.91992 22.125 6.52148 24.7207C9.12305 27.3164 12.5742 28.752 16.248 28.752C19.9219 28.752 23.3789 27.3223 25.9746 24.7207C28.5703 22.1191 30 18.6738 30 15C30 11.3262 28.5703 7.86914 25.9687 5.27344Z" fill="white"/>
<path d="M20.1797 9.99609L11.0801 19.084C10.7871 19.3769 10.7871 19.8457 11.0801 20.1328C11.2207 20.2734 11.4141 20.3496 11.6074 20.3496C11.8008 20.3496 11.9824 20.2734 12.1348 20.1328L21.2344 11.0332C21.5273 10.7402 21.5273 10.2715 21.2344 9.98437C20.9414 9.70312 20.4668 9.70312 20.1797 9.99609Z" fill="white"/>
<path d="M17.7949 16.1191C16.7637 17.1504 16.7637 18.8379 17.7949 19.8633C18.293 20.3613 18.9609 20.6426 19.6699 20.6426C20.3789 20.6426 21.0469 20.3672 21.5449 19.8633C22.5762 18.832 22.5762 17.1445 21.5449 16.1191C21.0469 15.6211 20.3789 15.3398 19.6699 15.3398C18.9609 15.3398 18.3047 15.6152 17.7949 16.1191ZM20.502 18.8203C20.2793 19.043 19.9922 19.1602 19.6758 19.1602C19.3594 19.1602 19.0723 19.0371 18.8496 18.8203C18.3926 18.3633 18.3926 17.625 18.8496 17.168C19.0723 16.9453 19.3594 16.8281 19.6758 16.8281C19.9922 16.8281 20.2793 16.9512 20.502 17.168C20.959 17.625 20.959 18.3633 20.502 18.8203Z" fill="white"/>
<path d="M12.832 9.33398C12.123 9.33398 11.4551 9.60938 10.957 10.1133C10.459 10.6172 10.1777 11.2793 10.1777 11.9883C10.1777 12.6973 10.4531 13.3652 10.957 13.8633C11.4609 14.3613 12.123 14.6426 12.832 14.6426C13.541 14.6426 14.209 14.3672 14.707 13.8633C15.2051 13.3652 15.4863 12.6973 15.4863 11.9883C15.4863 11.2793 15.2109 10.6113 14.707 10.1133C14.2031 9.60938 13.5469 9.33398 12.832 9.33398ZM13.6641 12.8145C13.4414 13.0371 13.1543 13.1543 12.8379 13.1543C12.5215 13.1543 12.2344 13.0312 12.0117 12.8145C11.7891 12.5918 11.6719 12.3047 11.6719 11.9883C11.6719 11.6719 11.7949 11.3848 12.0117 11.1621C12.2344 10.9395 12.5215 10.8223 12.8379 10.8223C13.1543 10.8223 13.4414 10.9453 13.6641 11.1621C13.8867 11.3848 14.0039 11.6719 14.0039 11.9883C13.998 12.2988 13.8809 12.5918 13.6641 12.8145Z" fill="white"/>
</g>
<defs>
<clipPath id="clip0_41_1174">
<rect width="30" height="30" fill="white"/>
</clipPath>
</defs>
</svg>
