<?xml version="1.0" encoding="utf-8"?>
<!-- Generator: Adobe Illustrator 24.1.1, SVG Export Plug-In . SVG Version: 6.00 Build 0)  -->
<svg version="1.1" id="Capa_1" xmlns="http://www.w3.org/2000/svg" xmlns:xlink="http://www.w3.org/1999/xlink" x="0px" y="0px"
	 viewBox="0 0 512 512" style="enable-background:new 0 0 512 512;" xml:space="preserve">
<style type="text/css">
	.st0{fill:#48a427;}
</style>
<g>
	<g>
		<path class="st0" d="M505.7,183.8l-212-150c-4.6-3.2-10.6-3.7-15.6-1.1c-5,2.6-8.1,7.7-8.1,13.3v75.4
			c-70.5,3.6-136.2,32.8-186.5,83.1C29.6,258.3,0,329.9,0,406v60c0,8.3,6.8,15,15,15c6.6,0,12.6-4.4,14.4-10.9l2.3-8.1
			C62.5,354.4,159.2,277.8,270,271.4V346c0,5.6,3.1,10.7,8.1,13.3c5,2.6,11,2.2,15.6-1.1l212-150c4-2.8,6.3-7.4,6.3-12.2
			S509.6,186.6,505.7,183.8z"/>
	</g>
</g>
</svg>
