<svg width="26" height="26" viewBox="0 0 26 26" fill="none" xmlns="http://www.w3.org/2000/svg">
    <path d="M20.9258 1.05825C19.8108 1.05825 18.7627 1.48652 17.9749 2.264L17.7604 2.47544L17.0277 1.75276C16.1298 0.867578 14.6697 0.867366 13.7724 1.75276L12.572 2.93673C12.5154 2.99255 12.4837 3.06808 12.4837 3.14713C12.4837 3.22618 12.5154 3.30172 12.572 3.35753L17.3534 8.07351C17.4122 8.1314 17.4893 8.16045 17.5665 8.16045C17.6436 8.16045 17.7207 8.1314 17.7795 8.07351L18.98 6.88953C19.4146 6.46064 19.6539 5.89041 19.6539 5.2839C19.6539 4.67738 19.4143 4.1072 18.98 3.67827L18.1868 2.89582L18.4007 2.685C19.075 2.01957 19.9719 1.65311 20.9258 1.65311C22.8954 1.65311 24.4977 3.23319 24.4977 5.17539V11.7526H19.5108C19.3103 11.1944 18.7753 10.7913 18.1418 10.7913H14.7445C14.111 10.7913 13.576 11.1946 13.3755 11.7526H1.30134C1.13491 11.7526 1 11.8858 1 12.0502V15.4778C1 18.7872 3.44469 21.5424 6.64574 22.0826L5.84113 24.4636C5.78839 24.6195 5.87349 24.788 6.03152 24.84C6.06304 24.8504 6.0954 24.8554 6.12691 24.8554C6.25321 24.8554 6.37046 24.7765 6.41249 24.6518L7.25534 22.1573C7.43374 22.1712 7.61341 22.1803 7.79538 22.1803H18.3036C18.4856 22.1803 18.6653 22.1712 18.8436 22.1573L19.6865 24.6518C19.7285 24.7766 19.846 24.8554 19.9721 24.8554C20.0036 24.8554 20.036 24.8504 20.0675 24.84C20.2255 24.788 20.3104 24.6195 20.2579 24.4636L19.4533 22.0826C22.6549 21.5419 25.0995 18.787 25.0995 15.4773V5.17478C25.0995 2.90457 23.227 1.05762 20.9252 1.05762L20.9258 1.05825ZM19.0514 5.28394C19.0514 5.73151 18.8749 6.15212 18.554 6.46855L17.5664 7.44254L13.2112 3.14716L14.1984 2.17359C14.8609 1.51996 15.9391 1.51996 16.6017 2.17359L17.5465 3.10546C17.5467 3.10567 17.5467 3.10588 17.5469 3.10609C17.5471 3.10629 17.5473 3.10629 17.5475 3.1065L18.5541 4.09919C18.8749 4.41583 19.0515 4.83644 19.0515 5.28402L19.0514 5.28394ZM13.8892 12.2293C13.8892 11.7645 14.273 11.3862 14.7445 11.3862H18.1417C18.6132 11.3862 18.9969 11.7645 18.9969 12.2293V17.5784H13.8892L13.8892 12.2293ZM24.4975 15.4776C24.4975 18.8457 21.7192 21.5858 18.3042 21.5858H7.79594C4.38107 21.5858 1.60258 18.8458 1.60258 15.4776V12.3475H13.2867V17.8756C13.2867 18.04 13.4214 18.1732 13.5881 18.1732H19.2984C19.4648 18.1732 19.5997 18.04 19.5997 17.8756V12.3475H24.498L24.4975 15.4776Z" fill="#48a427" stroke="#48a427" stroke-width="0.577211"/>
</svg>
