<svg width="20" height="20" viewBox="0 0 20 20" fill="none" xmlns="http://www.w3.org/2000/svg">
    <path d="M15.8773 1.00048C15.0448 1.00048 14.2623 1.32431 13.6741 1.91218L13.5139 2.07206L12.9668 1.52561C12.2964 0.856306 11.2063 0.856146 10.5364 1.52561L9.64004 2.42085C9.59784 2.46306 9.57415 2.52017 9.57415 2.57994C9.57415 2.63971 9.59784 2.69683 9.64004 2.73903L13.21 6.30491C13.254 6.34868 13.3115 6.37065 13.3691 6.37065C13.4267 6.37065 13.4843 6.34868 13.5282 6.30491L14.4245 5.40967C14.749 5.08537 14.9277 4.65421 14.9277 4.19561C14.9277 3.73701 14.7488 3.30588 14.4245 2.98154L13.8322 2.38991L13.992 2.23051C14.4954 1.72736 15.1651 1.45026 15.8773 1.45026C17.3479 1.45026 18.5442 2.64501 18.5442 4.11356V9.08678H14.8208C14.6711 8.66473 14.2717 8.35987 13.7986 8.35987H11.2622C10.7891 8.35987 10.3897 8.66488 10.24 9.08678H1.22499C1.10073 9.08678 1 9.1875 1 9.31177V11.9035C1 14.4058 2.82529 16.4891 5.21531 16.8976L4.61456 18.6979C4.57518 18.8158 4.63872 18.9432 4.75671 18.9825C4.78024 18.9904 4.8044 18.9942 4.82794 18.9942C4.92223 18.9942 5.00977 18.9345 5.04116 18.8402L5.67046 16.9541C5.80366 16.9646 5.93781 16.9715 6.07368 16.9715H13.9195C14.0554 16.9715 14.1895 16.9646 14.3227 16.9541L14.952 18.8402C14.9834 18.9345 15.0711 18.9942 15.1652 18.9942C15.1888 18.9942 15.2129 18.9904 15.2365 18.9825C15.3544 18.9432 15.4178 18.8158 15.3786 18.6979L14.7779 16.8976C17.1683 16.4887 18.9936 14.4056 18.9936 11.9031V4.1131C18.9936 2.39653 17.5955 1 15.8768 1L15.8773 1.00048ZM14.4778 4.19564C14.4778 4.53406 14.346 4.85209 14.1065 5.09135L13.3691 5.82782L10.1173 2.57996L10.8544 1.84382C11.3491 1.34959 12.1541 1.34959 12.6488 1.84382L13.3542 2.54843C13.3543 2.54859 13.3543 2.54875 13.3545 2.5489C13.3546 2.54906 13.3548 2.54906 13.355 2.54922L14.1065 3.29982C14.3461 3.53924 14.4779 3.85727 14.4779 4.1957L14.4778 4.19564ZM10.6236 9.4472C10.6236 9.09575 10.9101 8.80974 11.2621 8.80974H13.7986C14.1507 8.80974 14.4371 9.09576 14.4371 9.4472V13.4918H10.6235L10.6236 9.4472ZM18.5441 11.9034C18.5441 14.4501 16.4697 16.5219 13.9199 16.5219H6.07409C3.52442 16.5219 1.44991 14.4501 1.44991 11.9034V9.53661H10.1737V13.7166C10.1737 13.8408 10.2743 13.9416 10.3987 13.9416H14.6622C14.7865 13.9416 14.8872 13.8408 14.8872 13.7166V9.53661H18.5444L18.5441 11.9034Z" fill="black" stroke="black" stroke-width="0.6"/>
</svg>
