<svg width="20" height="20" viewBox="0 0 20 20" fill="none" xmlns="http://www.w3.org/2000/svg">
    <path d="M1.225 16.4335H2.83489L2.83458 18.769C2.83458 18.8933 2.9353 18.994 3.05956 18.994C3.18383 18.994 3.28455 18.8933 3.28455 18.769L3.28471 16.4335H16.7094L16.7091 18.769C16.7091 18.8933 16.8098 18.994 16.9341 18.994C17.0584 18.994 17.1591 18.8933 17.1591 18.769L17.1592 16.4335H18.769C18.8932 16.4335 18.994 16.3328 18.994 16.2085V11.8631C18.994 11.2014 18.8179 10.5756 18.5076 10.0335V2.52831C18.5076 1.68566 17.8221 1 16.9795 1H3.01451C2.17186 1 1.4862 1.68562 1.4862 2.52831L1.48636 9.95762V9.95777C1.17586 10.5002 1 11.1269 1 11.7892V16.2086C1 16.3327 1.10073 16.4334 1.22499 16.4334L1.225 16.4335ZM1.44983 15.9837V13.5095H18.544V15.9837H1.44983ZM1.93619 2.52846C1.93619 1.93382 2.41989 1.44995 3.01454 1.44995H16.9795C17.5741 1.44995 18.0578 1.93366 18.0578 2.52846V9.41313C17.6055 8.90572 17.0142 8.52167 16.3329 8.3263V5.81961C16.3329 5.25951 15.8771 4.80372 15.317 4.80372H10.7881C10.4669 4.80372 10.1834 4.95654 9.99716 5.18999C9.81093 4.95654 9.52744 4.80372 9.20628 4.80372H4.67728C4.11702 4.80372 3.66123 5.25951 3.66123 5.81961V8.25208C2.98015 8.44584 2.38881 8.83025 1.93635 9.33794L1.93619 2.52846ZM9.77196 7.66635C7.48995 7.66165 5.5683 7.88914 4.11072 8.15271V5.81969C4.11072 5.50763 4.36473 5.25361 4.6768 5.25361H9.20579C9.51801 5.25361 9.77188 5.50762 9.77188 5.81969L9.77196 7.66635ZM15.883 8.22601C13.8338 7.85621 11.9342 7.6982 10.2218 7.67202V5.81973C10.2218 5.50767 10.4757 5.25365 10.7879 5.25365H15.3169C15.6289 5.25365 15.883 5.5075 15.883 5.81973L15.883 8.22601ZM4.07939 8.61511C6.67645 8.13438 10.8355 7.7561 15.8999 8.68524H15.9001C17.432 8.96608 18.5439 10.3027 18.5439 11.8631V13.0598H1.44971V11.7892C1.44971 10.232 2.55549 8.89703 4.07926 8.61511L4.07939 8.61511Z" fill="black" stroke="black" stroke-width="0.6"/>
</svg>
