<svg width="26" height="26" viewBox="0 0 26 26" fill="none" xmlns="http://www.w3.org/2000/svg">
    <path d="M1.30135 21.4113H3.45754L3.45712 24.5C3.45712 24.6644 3.59203 24.7976 3.75846 24.7976C3.92489 24.7976 4.05979 24.6644 4.05979 24.5L4.06 21.4113H22.0403L22.0399 24.5C22.0399 24.6644 22.1748 24.7976 22.3412 24.7976C22.5076 24.7976 22.6425 24.6644 22.6425 24.5L22.6427 21.4113H24.7987C24.9652 21.4113 25.1001 21.278 25.1001 21.1137V15.3667C25.1001 14.4917 24.8643 13.664 24.4487 12.9471V3.02124C24.4487 1.9068 23.5306 1 22.4019 1H3.69812C2.56951 1 1.65119 1.90675 1.65119 3.02124L1.6514 12.8467V12.8469C1.23554 13.5642 1 14.3932 1 15.269V21.1137C1 21.2779 1.13491 21.4111 1.30134 21.4111L1.30135 21.4113ZM1.60248 20.8164V17.5441H24.4974V20.8164H1.60248ZM2.25388 3.02143C2.25388 2.235 2.90172 1.59507 3.69815 1.59507H22.402C23.1984 1.59507 23.8462 2.23479 23.8462 3.02143V12.1266C23.2404 11.4555 22.4485 10.9476 21.536 10.6892V7.37407C21.536 6.63333 20.9256 6.03053 20.1754 6.03053H14.1095C13.6794 6.03053 13.2997 6.23263 13.0503 6.54139C12.8008 6.23263 12.4212 6.03053 11.991 6.03053H5.92514C5.17476 6.03053 4.5643 6.63333 4.5643 7.37407V10.5911C3.6521 10.8473 2.86009 11.3557 2.25409 12.0272L2.25388 3.02143ZM12.7487 9.81644C9.69226 9.81022 7.11852 10.1111 5.16631 10.4597V7.37418C5.16631 6.96147 5.50652 6.62552 5.92449 6.62552H11.9904C12.4085 6.62552 12.7485 6.96145 12.7485 7.37418L12.7487 9.81644ZM20.9335 10.5566C18.1889 10.0675 15.6446 9.85857 13.3511 9.82393V7.37423C13.3511 6.96152 13.6911 6.62557 14.1093 6.62557H20.1752C20.5932 6.62557 20.9334 6.9613 20.9334 7.37423L20.9335 10.5566ZM5.12435 11.0712C8.60271 10.4354 14.1731 9.93514 20.9561 11.1639H20.9563C23.0081 11.5354 24.4973 13.3031 24.4973 15.3668V16.9494H1.60231V15.2691C1.60231 13.2096 3.08333 11.444 5.12419 11.0712L5.12435 11.0712Z" fill="#48a427" stroke="#48a427" stroke-width="0.577211"/>
</svg>
