<?xml version="1.0" encoding="UTF-8"?> <!-- Generator: Adobe Illustrator 24.1.1, SVG Export Plug-In . SVG Version: 6.00 Build 0) --> <svg xmlns="http://www.w3.org/2000/svg" xmlns:xlink="http://www.w3.org/1999/xlink" version="1.1" id="Слой_1" x="0px" y="0px" viewBox="0 0 512 512" style="enable-background:new 0 0 512 512;" xml:space="preserve"> <style type="text/css"> .st0{fill:#48a427;} </style> <path class="st0" d="M502,474.9h-21.6V211.2h0.9c5.5,0,10-4.5,10-10c0-5.5-4.5-10-10-10h-75.3v-21.1h31.9c5.5,0,10-4.5,10-10V28 c0-5.5-4.5-10-10-10H267.2c-5.5,0-10,4.5-10,10v132.1c0,5.5,4.5,10,10,10h31.9v21.1H230v-71.3h1c5.5,0,10-4.5,10-10s-4.5-10-10-10 h-24.7V38.3c0-5.5-4.5-10-10-10s-10,4.5-10,10v22.7h-46.5c-5.5,0-10,4.5-10,10v28.9H21c-5.5,0-10,4.5-10,10c0,5.5,4.5,10,10,10 v355.1H10c-5.5,0-10,4.5-10,10c0,5.5,4.5,10,10,10h492c5.5,0,10-4.5,10-10C512,479.4,507.5,474.9,502,474.9z M277.2,38h150.5v112.1 H277.2V38z M319.1,170.1h66.8v21.1h-66.8V170.1z M149.8,80.9h36.5v18.9h-36.5V80.9z M41,119.8h169v144.5c0,5.5,4.5,10,10,10 s10-4.5,10-10v-53.1h230.4V402H230v-47.7c0-5.5-4.5-10-10-10s-10,4.5-10,10v120.7H41V119.8z M230,422h77v52.9h-77V422z M327,474.9 V422h37.8v52.9H327z M384.8,474.9V422h75.5v52.9H384.8z"></path> <path class="st0" d="M349.8,109.5c0-5.6-1.9-10.8-5-15c3.1-4.2,5-9.4,5-15c0-13.8-11.2-25-25-25h-16.5c-5.5,0-10,4.5-10,10v59.9 c0,5.5,4.5,10,10,10h16.5C338.6,134.4,349.8,123.2,349.8,109.5z M318.3,74.5h6.5c2.7,0,5,2.2,5,5s-2.2,5-5,5h-5c-0.5,0-1,0-1.5,0.1 V74.5z M318.3,104.4c0.5,0.1,1,0.1,1.5,0.1h5c2.7,0,5,2.2,5,5s-2.2,5-5,5h-6.5V104.4z"></path> <path class="st0" d="M385.6,132.6h13.6c5.5,0,10-4.5,10-10c0-5.5-4.5-10-10-10h-13.6c-3.4,0-6.2-2.8-6.2-6.2V80.7 c0-3.4,2.8-6.2,6.2-6.2h13.6c5.5,0,10-4.5,10-10c0-5.5-4.5-10-10-10h-13.6c-14.4,0-26.2,11.8-26.2,26.2v25.7 C359.4,120.9,371.1,132.6,385.6,132.6z"></path> <path class="st0" d="M175.1,146.1H76.9c-5.5,0-10,4.5-10,10v98.1c0,5.5,4.5,10,10,10h98.1c5.5,0,10-4.5,10-10v-98.1 C185.1,150.6,180.6,146.1,175.1,146.1z M165.1,195.2H136v-29.1h29.1V195.2z M86.9,166.1H116v29.1H86.9V166.1z M86.9,215.2H116v29.1 H86.9V215.2z M165.1,244.2H136v-29.1h29.1V244.2z"></path> <path class="st0" d="M175.1,379.6H76.9c-5.5,0-10,4.5-10,10v49.1c0,5.5,4.5,10,10,10h98.1c5.5,0,10-4.5,10-10v-49.1 C185.1,384.1,180.6,379.6,175.1,379.6z M86.9,399.6H116v29.1H86.9V399.6z M165.1,428.7H136v-29.1h29.1V428.7z"></path> <path class="st0" d="M175.1,287.4H76.9c-5.5,0-10,4.5-10,10v49.1c0,5.5,4.5,10,10,10h98.1c5.5,0,10-4.5,10-10v-49.1 C185.1,291.9,180.6,287.4,175.1,287.4z M86.9,307.4H116v29.1H86.9V307.4z M165.1,336.4H136v-29.1h29.1V336.4z"></path> <path class="st0" d="M270.6,296.4h149.7c5.5,0,10-4.5,10-10v-43.1c0-5.5-4.5-10-10-10H270.6c-5.5,0-10,4.5-10,10v43.1 C260.6,291.9,265.1,296.4,270.6,296.4z M330.8,276.4v-23.1h29.6v23.1H330.8z M410.3,276.4h-29.9v-23.1h29.9V276.4z M280.6,253.2 h30.2v23.1h-30.2V253.2z"></path> <path class="st0" d="M270.6,380h149.7c5.5,0,10-4.5,10-10v-43.1c0-5.5-4.5-10-10-10H270.6c-5.5,0-10,4.5-10,10V370 C260.6,375.5,265.1,380,270.6,380z M330.8,360v-23.1h29.6V360H330.8z M410.3,360h-29.9v-23.1h29.9V360z M280.6,336.9h30.2V360h-30.2 V336.9z"></path> <path class="st0" d="M214.4,317.6c3.6,2.4,8.4,2.2,11.8-0.5c3.2-2.5,4.5-6.9,3.4-10.7c-1.2-4-4.9-6.9-9-7.1 c-4.3-0.2-8.4,2.4-9.9,6.5C209,310,210.6,315.1,214.4,317.6z"></path> </svg> 