<svg width="13" height="16" viewBox="0 0 13 16" fill="none" xmlns="http://www.w3.org/2000/svg">
    <path d="M12.4545 6.72727C12.4545 11.1818 6.72727 15 6.72727 15C6.72727 15 1 11.1818 1 6.72727C1 5.20831 1.60341 3.75155 2.67748 2.67748C3.75155 1.60341 5.20831 1 6.72727 1C8.24624 1 9.70299 1.60341 10.7771 2.67748C11.8511 3.75155 12.4545 5.20831 12.4545 6.72727Z" stroke="#8F8F8F" stroke-linecap="round" stroke-linejoin="round"/>
    <path d="M6.7294 8.31818C7.78377 8.31818 8.63849 7.46345 8.63849 6.40909C8.63849 5.35473 7.78377 4.5 6.7294 4.5C5.67504 4.5 4.82031 5.35473 4.82031 6.40909C4.82031 7.46345 5.67504 8.31818 6.7294 8.31818Z" stroke="#8F8F8F" stroke-linecap="round" stroke-linejoin="round"/>
</svg>
