<svg width="17" height="20" viewBox="0 0 17 20" fill="none" xmlns="http://www.w3.org/2000/svg">
    <path d="M15.7273 8.36364C15.7273 14.0909 8.36364 19 8.36364 19C8.36364 19 1 14.0909 1 8.36364C1 6.41068 1.77581 4.53771 3.15676 3.15676C4.53771 1.77581 6.41068 1 8.36364 1C10.3166 1 12.1896 1.77581 13.5705 3.15676C14.9515 4.53771 15.7273 6.41068 15.7273 8.36364Z" stroke="black" stroke-linecap="round" stroke-linejoin="round"/>
    <path d="M8.3647 10.4091C9.72031 10.4091 10.8192 9.31015 10.8192 7.95455C10.8192 6.59894 9.72031 5.5 8.3647 5.5C7.00909 5.5 5.91016 6.59894 5.91016 7.95455C5.91016 9.31015 7.00909 10.4091 8.3647 10.4091Z" stroke="black" stroke-linecap="round" stroke-linejoin="round"/>
</svg>
