<?xml version="1.0" encoding="UTF-8"?> <!-- Generator: Adobe Illustrator 24.0.3, SVG Export Plug-In . SVG Version: 6.00 Build 0) --> <svg xmlns="http://www.w3.org/2000/svg" xmlns:xlink="http://www.w3.org/1999/xlink" version="1.1" id="Слой_1" x="0px" y="0px" viewBox="0 0 80 70" style="enable-background:new 0 0 80 70;" xml:space="preserve"> <style type="text/css"> .st0{fill-rule:evenodd;clip-rule:evenodd;fill:#48a427;} </style> <g id="Group_11"> <path id="Combined_Shape" class="st0" d="M52.1,0.2c-13.6,0-24.8,9.4-25.7,21.2c-13,0.7-25.2,10-25.2,22.6c0,5.3,2.1,10.4,5.9,14.5 c0.8,3.1-0.2,6.4-2.4,8.7c-0.4,0.4-0.6,1.1-0.3,1.6c0.2,0.6,0.8,0.9,1.4,0.9c4.3,0,8.5-1.7,11.6-4.7c3,1,6.9,1.6,10.5,1.6 c13.6,0,24.8-9.4,25.7-21.2c3.2-0.1,6.7-0.8,9.3-1.7c3.2,2.7,6.9,4.4,11.3,4.8c0.6,0,1.2-0.4,1.4-0.9c0.2-0.6,0.1-1.2-0.3-1.6 c-2.3-2.3-3.2-5.6-2.4-8.7c3.8-4.1,5.9-9.2,5.9-14.5C78.7,9.8,65.6,0.2,52.1,0.2z M27.7,64c-3.6,0-7.7-0.7-10.5-1.8 c-0.6-0.2-1.3-0.1-1.7,0.4c-1.8,2-5.4,4.1-8,4.8c2.4-2.6,2.9-6.7,2.1-9.8c-0.1-0.2-0.2-0.5-0.4-0.6c-3.5-3.6-5.4-8.1-5.4-12.8 c0-10.8,10.9-19.9,23.9-19.9c12.2,0,22.9,8.5,22.9,19.9C50.7,55.1,40.4,64,27.7,64z M70.5,36.5c0.1-0.2,0.2-0.5,0.4-0.7 c3.5-3.6,5.5-8.2,5.5-13C76.3,11.9,65.2,2.7,52,2.7c-12.3,0-22.4,8.5-23.3,18.9c4.4,0.1,9.5,1.4,12.7,3.4h23.9 c0.9,0,1.5,0.6,1.5,1.3c0,0.7-0.7,1.3-1.5,1.3H45.1c5,4.1,7.9,9.6,8.4,15.5c3.3-0.2,6.7-0.8,9.2-1.8c0.6-0.2,1.3-0.1,1.7,0.4 c1.9,2.1,5.7,4.1,8.4,4.7C70.5,43.8,69.6,39.7,70.5,36.5z M38.9,17.1c0-0.7,0.6-1.3,1.3-1.3s1.3,0.6,1.3,1.3c0,0.7-0.6,1.3-1.3,1.3 S38.9,17.8,38.9,17.1z M16.4,41.3c0,0.7-0.6,1.3-1.3,1.3c-0.7,0-1.3-0.6-1.3-1.3c0-0.7,0.6-1.3,1.3-1.3 C15.8,40,16.4,40.5,16.4,41.3z M20.9,40H40c0.8,0,1.5,0.6,1.5,1.3c0,0.7-0.7,1.3-1.5,1.3H20.9c-0.8,0-1.5-0.6-1.5-1.3 C19.4,40.5,20.1,40,20.9,40z M40,49.1H14.8c-0.8,0-1.5,0.6-1.5,1.3c0,0.7,0.7,1.3,1.5,1.3H40c0.8,0,1.5-0.6,1.5-1.3 C41.5,49.6,40.8,49.1,40,49.1z M46,15.8h19.1c0.8,0,1.5,0.6,1.5,1.3c0,0.7-0.7,1.3-1.5,1.3H46c-0.8,0-1.5-0.6-1.5-1.3 C44.5,16.4,45.2,15.8,46,15.8z"></path> </g> </svg> 