<svg width="160" height="41" viewBox="0 0 160 41" fill="none" xmlns="http://www.w3.org/2000/svg">
<rect width="160" height="41" rx="4.9927" fill="#424243"/>
<path d="M18.8668 15.6276H14.0669C14.278 14.6571 15.176 14.011 16.4375 14.011C17.6428 14.011 18.5034 14.5826 18.8668 15.6276ZM21.9056 17.7599V17.4356C21.9056 13.6308 19.6686 11.291 16.4 11.291C15.005 11.291 13.6473 11.8627 12.613 12.889C11.6001 13.8967 11.0469 15.2101 11.0469 16.6352C11.0469 18.079 11.5627 19.3738 12.5569 20.4214C13.6099 21.5248 14.8713 22.0566 16.4375 22.0566C18.7332 22.0566 20.433 20.9718 21.4272 18.8421H18.1025C17.6428 19.2409 17.1457 19.4137 16.5337 19.4137C15.2134 19.4137 14.4304 18.8421 14.1631 17.7599H21.9056Z" fill="white"/>
<path d="M30.2978 15.6276H25.4978C25.7089 14.6571 26.6069 14.011 27.8684 14.011C29.0737 14.011 29.9343 14.5826 30.2978 15.6276ZM33.3392 17.7599V17.4356C33.3392 13.6308 31.1022 11.291 27.8336 11.291C26.4386 11.291 25.0809 11.8627 24.0466 12.889C23.0337 13.8967 22.4805 15.2101 22.4805 16.6352C22.4805 18.079 22.9963 19.3738 23.9905 20.4214C25.0435 21.5248 26.3049 22.0566 27.8711 22.0566C30.1668 22.0566 31.8666 20.9718 32.8608 18.8421H29.5334C29.0737 19.2409 28.5766 19.4137 27.9673 19.4137C26.647 19.4137 25.864 18.8421 25.5967 17.7599H33.3392Z" fill="white"/>
<path d="M6.76537 13.878V21.8093H9.72926V13.878H10.9346V11.5941H9.72926V11.3468C9.72926 10.4136 9.94039 10.1105 10.8571 10.1105H10.9346V8.05784C10.7609 8.05784 10.6085 8.03923 10.4562 8.03923C7.93061 8.03923 6.74666 9.02831 6.74666 11.2165C6.74666 11.3309 6.76537 11.4638 6.76537 11.5967H5.65625V13.8807H6.76537V13.878Z" fill="white"/>
<path d="M34.4848 13.8781V21.8093H37.4487V13.8781H38.6541V11.5941H37.4487V11.3469C37.4487 10.4136 37.6599 10.1105 38.5766 10.1105H38.6514V8.0579C38.4803 8.0579 38.3253 8.03929 38.173 8.03929C35.6501 8.03929 34.4635 9.02837 34.4635 11.2166C34.4635 11.3309 34.4822 11.4639 34.4822 11.5968H33.373V13.8807H34.4848V13.8781Z" fill="white"/>
<path d="M46.4871 16.7124C46.4871 18.1003 45.3967 19.2223 44.0604 19.2223C42.7402 19.2223 41.631 18.1003 41.631 16.7124C41.631 15.3059 42.7214 14.1838 44.0604 14.1838C45.3967 14.1812 46.4871 15.3059 46.4871 16.7124ZM49.4884 16.6379C49.4884 15.25 48.8951 13.8409 47.8074 12.8145C46.7757 11.8441 45.4929 11.3309 44.0016 11.3309C42.6065 11.3309 41.2489 11.9026 40.2146 12.9289C39.2017 13.9366 38.6484 15.25 38.6484 16.6752C38.6484 18.1029 39.1642 19.4137 40.1584 20.4427C41.2114 21.5461 42.4729 22.0779 44.039 22.0779C45.5864 22.0779 46.888 21.5275 47.941 20.4799C48.9726 19.451 49.4884 18.1774 49.4884 16.6379Z" fill="white"/>
<path d="M54.1261 14.9762C52.6722 14.8884 51.5016 13.7265 51.4214 12.2775H57.1755H57.7821V12.2083C57.7821 9.72235 56.1866 8.0659 53.9791 8.0659C51.6486 8.0659 50.0664 9.76489 50.0664 11.9717C50.0664 14.0562 51.7047 15.8935 53.939 15.8935C55.5612 15.8935 56.8521 14.9975 57.547 13.3383H56.9055C56.4432 14.3088 55.4517 14.9788 54.2998 14.9788C54.2383 14.9842 54.1849 14.9815 54.1261 14.9762Z" fill="#F7DC04"/>
<path d="M62.203 14.9762C63.6568 14.8884 64.8274 13.7265 64.9076 12.2775H59.1536H58.5469V12.2083C58.5469 9.72235 60.1424 8.0659 62.35 8.0659C64.6804 8.0659 66.2626 9.76489 66.2626 11.9717C66.2626 14.0562 64.6243 15.8935 62.39 15.8935C60.7678 15.8935 59.4769 14.9975 58.7821 13.3383H59.4262C59.8885 14.3088 60.88 14.9788 62.0319 14.9788C62.0907 14.9842 62.1442 14.9815 62.203 14.9762Z" fill="#F7DC04"/>
<path d="M8.7018 34.0614C9.47067 34.0614 10.0998 33.8717 10.5791 33.4922C11.0584 33.1028 11.298 32.5836 11.298 31.9145C11.298 31.3454 11.0683 30.886 10.8187 30.6164C10.6989 30.4766 10.5191 30.3468 10.2795 30.227C10.0498 30.0972 9.85012 30.0073 9.70034 29.9574L9.05129 29.7477C8.54203 29.5979 8.20253 29.4581 8.03278 29.3283C7.87301 29.1985 7.79313 29.0487 7.79313 28.879C7.79313 28.5894 8.06273 28.3497 8.54203 28.3497C9.15114 28.3497 9.50063 28.6293 9.75026 29.1586L11.0983 28.3697C10.589 27.3412 9.69035 26.792 8.54203 26.792C7.90297 26.792 7.35377 26.9817 6.88445 27.3712C6.42513 27.7606 6.19546 28.2699 6.19546 28.9189C6.19546 29.558 6.42513 30.0573 6.83453 30.3868C7.2639 30.7063 7.66332 30.886 8.25245 31.0458C8.81164 31.1956 9.19108 31.3354 9.39079 31.4552C9.60048 31.565 9.70034 31.7248 9.70034 31.9345C9.70034 32.314 9.3808 32.5037 8.75172 32.5037C8.05275 32.5037 7.56346 32.1841 7.28387 31.5351L5.90589 32.3339C6.3053 33.4024 7.27388 34.0614 8.7018 34.0614ZM17.0756 32.0244C17.1156 31.8347 17.1356 31.6349 17.1356 31.4253C17.1356 30.6763 16.8959 30.0473 16.4066 29.548C15.9273 29.0387 15.3282 28.7891 14.5993 28.7891C13.8204 28.7891 13.1813 29.0387 12.6821 29.548C12.1928 30.0473 11.9432 30.6763 11.9432 31.4253C11.9432 32.1841 12.1928 32.8132 12.6921 33.3125C13.2013 33.8118 13.8703 34.0614 14.7091 34.0614C15.6677 34.0614 16.3966 33.7219 16.8859 33.0329L15.6877 32.3439C15.458 32.5935 15.1385 32.7234 14.7291 32.7234C14.1 32.7234 13.7006 32.4937 13.5308 32.0244H17.0756ZM13.5009 30.906C13.6507 30.3768 14.0101 30.1172 14.5893 30.1172C15.1485 30.1172 15.498 30.3768 15.6477 30.906H13.5009ZM19.4829 28.9289H17.9851V33.9216H19.4829V31.6649C19.4829 31.2156 19.6427 30.896 19.9522 30.7163C20.2718 30.5266 20.6113 30.4667 20.9807 30.5266V28.829C20.3017 28.829 19.6726 29.1785 19.4829 29.8176V28.9289ZM23.8277 32.0943L22.7892 28.9289H21.1317L22.979 33.9216H24.6765L26.5238 28.9289H24.8662L23.8277 32.0943ZM28.4514 28.2299C28.8108 27.8704 28.8108 27.3113 28.4514 26.9618C28.1019 26.6023 27.5427 26.6023 27.1832 26.9618C26.8337 27.3113 26.8337 27.8704 27.1832 28.2299C27.5427 28.5794 28.1019 28.5794 28.4514 28.2299ZM28.5712 33.9216V28.9289H27.0734V33.9216H28.5712ZM32.0637 34.0614C33.0323 34.0614 33.8811 33.5621 34.3204 32.7733L33.0123 32.0244C32.8426 32.3938 32.5131 32.5836 32.0438 32.5836C31.3947 32.5836 30.9154 32.1043 30.9154 31.4253C30.9154 30.7462 31.3947 30.2669 32.0438 30.2669C32.5131 30.2669 32.8326 30.4567 33.0123 30.8261L34.3204 30.0672C33.8811 29.2984 33.0223 28.7891 32.0637 28.7891C31.3048 28.7891 30.6758 29.0387 30.1665 29.548C29.6672 30.0573 29.4176 30.6763 29.4176 31.4253C29.4176 32.1742 29.6672 32.7933 30.1665 33.3025C30.6758 33.8118 31.3048 34.0614 32.0637 34.0614ZM39.7086 32.0244C39.7485 31.8347 39.7685 31.6349 39.7685 31.4253C39.7685 30.6763 39.5288 30.0473 39.0396 29.548C38.5603 29.0387 37.9611 28.7891 37.2322 28.7891C36.4533 28.7891 35.8143 29.0387 35.315 29.548C34.8257 30.0473 34.5761 30.6763 34.5761 31.4253C34.5761 32.1841 34.8257 32.8132 35.325 33.3125C35.8342 33.8118 36.5033 34.0614 37.342 34.0614C38.3006 34.0614 39.0296 33.7219 39.5188 33.0329L38.3206 32.3439C38.0909 32.5935 37.7714 32.7234 37.362 32.7234C36.7329 32.7234 36.3335 32.4937 36.1638 32.0244H39.7086ZM36.1338 30.906C36.2836 30.3768 36.6431 30.1172 37.2222 30.1172C37.7814 30.1172 38.1309 30.3768 38.2807 30.906H36.1338ZM48.5564 33.9216L47.0686 31.3554C47.8375 30.9559 48.3567 30.1771 48.3567 29.3283C48.3567 28.6593 48.127 28.1001 47.6577 27.6308C47.1884 27.1615 46.6292 26.9318 45.9602 26.9318H43.1643V33.9216H44.762V31.625H45.5209L46.8389 33.9216H48.5564ZM45.9602 28.4296C46.3996 28.4296 46.759 28.8191 46.759 29.3283C46.759 29.8376 46.3996 30.227 45.9602 30.227H44.762V28.4296H45.9602ZM52.6289 29.3982C52.2794 28.9888 51.7801 28.7891 51.1411 28.7891C50.482 28.7891 49.9229 29.0487 49.4535 29.558C48.9842 30.0672 48.7546 30.6863 48.7546 31.4253C48.7546 32.1642 48.9842 32.7933 49.4535 33.3025C49.9229 33.8118 50.482 34.0614 51.1411 34.0614C51.7801 34.0614 52.2794 33.8617 52.6289 33.4523V33.9216H54.1267V28.9289H52.6289V29.3982ZM50.5819 32.314C50.3622 32.0943 50.2524 31.7947 50.2524 31.4253C50.2524 31.0558 50.3622 30.7562 50.5819 30.5365C50.8016 30.3169 51.0911 30.207 51.4406 30.207C51.7901 30.207 52.0797 30.3169 52.2994 30.5365C52.5191 30.7562 52.6289 31.0558 52.6289 31.4253C52.6289 31.7947 52.5191 32.0943 52.2994 32.314C52.0797 32.5336 51.7901 32.6435 51.4406 32.6435C51.0911 32.6435 50.8016 32.5336 50.5819 32.314ZM58.1513 28.9289H57.1228V27.5309L55.625 27.9803V28.9289H54.8262V30.3668H55.625V32.1342C55.625 32.8631 55.8047 33.3624 56.1742 33.652C56.5436 33.9316 57.2027 34.0215 58.1513 33.9216V32.5636C57.4224 32.6035 57.1228 32.5336 57.1228 32.1342V30.3668H58.1513V28.9289ZM60.3773 28.2299C60.7368 27.8704 60.7368 27.3113 60.3773 26.9618C60.0278 26.6023 59.4687 26.6023 59.1092 26.9618C58.7597 27.3113 58.7597 27.8704 59.1092 28.2299C59.4687 28.5794 60.0278 28.5794 60.3773 28.2299ZM60.4972 33.9216V28.9289H58.9994V33.9216H60.4972ZM64.5189 28.7891C63.8699 28.7891 63.3906 28.9888 63.091 29.3982V28.9289H61.5932V33.9216H63.091V31.1956C63.091 30.5166 63.4505 30.1671 64.0197 30.1671C64.5289 30.1671 64.8884 30.4866 64.8884 31.0758V33.9216H66.3862V30.8561C66.3862 30.207 66.2065 29.7078 65.847 29.3383C65.4975 28.9688 65.0482 28.7891 64.5189 28.7891ZM71.0794 29.4382C70.7299 29.0088 70.2506 28.7891 69.6216 28.7891C68.9226 28.7891 68.3334 29.0387 67.8641 29.538C67.3948 30.0273 67.1651 30.6264 67.1651 31.3254C67.1651 32.0244 67.3948 32.6235 67.8641 33.1228C68.3334 33.6121 68.9226 33.8617 69.6216 33.8617C70.2506 33.8617 70.7299 33.642 71.0794 33.2126V33.672C71.0794 34.361 70.66 34.7404 69.9511 34.7404C69.4218 34.7404 69.0424 34.5307 68.8127 34.1113L67.5346 34.8502C67.9839 35.6591 68.7728 36.0585 69.9011 36.0585C70.6301 36.0585 71.2592 35.8588 71.7684 35.4494C72.2777 35.05 72.5373 34.4608 72.5373 33.672V28.9289H71.0794V29.4382ZM69.0025 32.1642C68.7728 31.9545 68.663 31.6749 68.663 31.3254C68.663 30.9759 68.7728 30.6963 69.0025 30.4866C69.2321 30.2769 69.5217 30.1671 69.8712 30.1671C70.2207 30.1671 70.5103 30.2769 70.7399 30.4866C70.9696 30.6963 71.0794 30.9759 71.0794 31.3254C71.0794 31.6749 70.9696 31.9545 70.7399 32.1642C70.5103 32.3739 70.2207 32.4837 69.8712 32.4837C69.5217 32.4837 69.2321 32.3739 69.0025 32.1642Z" fill="white"/>
<path d="M113.047 29.9001L114.487 27.7851H113.308L111.31 30.7821C111.058 31.1511 110.932 31.5741 110.932 32.0511C110.932 32.6901 111.139 33.2031 111.553 33.6081C111.967 34.0041 112.507 34.2021 113.164 34.2021C113.821 34.2021 114.352 34.0041 114.766 33.6081C115.18 33.2031 115.387 32.6901 115.387 32.0511C115.387 31.4121 115.18 30.8991 114.766 30.5031C114.352 30.0981 113.821 29.9001 113.164 29.9001H113.047ZM113.164 33.2211C112.453 33.2211 111.967 32.7621 111.967 32.0511C111.967 31.3401 112.453 30.8811 113.164 30.8811C113.857 30.8811 114.352 31.3401 114.352 32.0511C114.352 32.7621 113.857 33.2211 113.164 33.2211ZM115.201 28.7751H118.081L115.903 34.0851H116.992L119.206 28.6851V27.7851H115.201V28.7751ZM127.084 34.0851L125.653 31.6371C126.4 31.3401 126.904 30.6111 126.904 29.8101C126.904 29.2431 126.706 28.7661 126.31 28.3791C125.923 27.9831 125.446 27.7851 124.879 27.7851H122.359V34.0851H123.394V31.7901H124.618L125.95 34.0851H127.084ZM124.879 28.7571C125.428 28.7571 125.869 29.2251 125.869 29.8101C125.869 30.3951 125.428 30.8631 124.879 30.8631H123.394V28.7571H124.879ZM131.925 32.2491C131.952 32.0781 131.961 31.9431 131.961 31.8441C131.961 31.1871 131.745 30.6201 131.322 30.1611C130.899 29.7021 130.359 29.4681 129.702 29.4681C129.009 29.4681 128.433 29.6931 127.992 30.1521C127.551 30.6021 127.326 31.1601 127.326 31.8351C127.326 32.5191 127.551 33.0861 128.001 33.5361C128.451 33.9771 129.045 34.2021 129.774 34.2021C130.647 34.2021 131.304 33.8781 131.745 33.2211L130.944 32.7531C130.683 33.1221 130.296 33.3111 129.783 33.3111C129.036 33.3111 128.487 32.9331 128.343 32.2491H131.925ZM128.334 31.4571C128.469 30.7731 128.973 30.3501 129.693 30.3501C130.332 30.3501 130.845 30.7281 130.98 31.4571H128.334ZM134.44 33.0051L133.18 29.5851H132.118L133.873 34.0851H134.998L136.753 29.5851H135.691L134.44 33.0051ZM138.287 28.7301C138.539 28.4781 138.539 28.1001 138.296 27.8571C138.053 27.6051 137.657 27.6051 137.414 27.8571C137.171 28.1001 137.171 28.4781 137.414 28.7301C137.666 28.9731 138.044 28.9731 138.287 28.7301ZM138.341 34.0851V29.5851H137.369V34.0851H138.341ZM143.816 32.2491C143.843 32.0781 143.852 31.9431 143.852 31.8441C143.852 31.1871 143.636 30.6201 143.213 30.1611C142.79 29.7021 142.25 29.4681 141.593 29.4681C140.9 29.4681 140.324 29.6931 139.883 30.1521C139.442 30.6021 139.217 31.1601 139.217 31.8351C139.217 32.5191 139.442 33.0861 139.892 33.5361C140.342 33.9771 140.936 34.2021 141.665 34.2021C142.538 34.2021 143.195 33.8781 143.636 33.2211L142.835 32.7531C142.574 33.1221 142.187 33.3111 141.674 33.3111C140.927 33.3111 140.378 32.9331 140.234 32.2491H143.816ZM140.225 31.4571C140.36 30.7731 140.864 30.3501 141.584 30.3501C142.223 30.3501 142.736 30.7281 142.871 31.4571H140.225ZM148.834 32.6901L147.898 29.5851H146.971L146.026 32.6901L145.153 29.5851H144.127L145.54 34.0851H146.494L147.439 31.0521L148.375 34.0851H149.329L150.742 29.5851H149.716L148.834 32.6901ZM152.058 30.8271C152.058 30.5121 152.346 30.3501 152.715 30.3501C153.12 30.3501 153.408 30.5211 153.561 30.8631L154.38 30.4041C154.065 29.8191 153.462 29.4681 152.715 29.4681C152.247 29.4681 151.851 29.5941 151.536 29.8461C151.221 30.0981 151.068 30.4311 151.068 30.8451C151.05 31.7901 151.959 32.0601 152.634 32.2311C153.111 32.3481 153.489 32.5191 153.489 32.8071C153.489 33.1401 153.237 33.3111 152.724 33.3111C152.211 33.3111 151.878 33.0951 151.725 32.6631L150.888 33.1491C151.176 33.8061 151.833 34.2021 152.724 34.2021C153.228 34.2021 153.642 34.0761 153.975 33.8331C154.308 33.5901 154.479 33.2481 154.479 32.8161C154.497 31.8531 153.597 31.5651 152.904 31.4121C152.436 31.2771 152.058 31.1241 152.058 30.8271Z" fill="white"/>
<path d="M105.739 10.1458L107.067 14.2073C107.085 14.2688 107.141 14.3056 107.209 14.3056H111.501C111.643 14.3056 111.705 14.4838 111.588 14.5698L108.117 17.0768C108.067 17.1136 108.043 17.1812 108.061 17.2427L109.389 21.3041C109.432 21.4393 109.278 21.5499 109.161 21.47L105.69 18.9631C105.64 18.9262 105.566 18.9262 105.517 18.9631L102.046 21.47C101.928 21.5561 101.774 21.4393 101.817 21.3041L103.145 17.2427C103.164 17.1812 103.145 17.1136 103.089 17.0768L99.6184 14.5698C99.501 14.4838 99.5628 14.3056 99.7048 14.3056H103.997C104.059 14.3056 104.115 14.2626 104.139 14.2073L105.467 10.1458C105.504 10.0168 105.696 10.0168 105.739 10.1458Z" fill="#FFDB02"/>
<path d="M120.104 10.1458L121.432 14.2073C121.451 14.2688 121.506 14.3056 121.574 14.3056H125.867C126.009 14.3056 126.07 14.4838 125.953 14.5698L122.482 17.0768C122.433 17.1136 122.408 17.1812 122.427 17.2427L123.754 21.3041C123.798 21.4393 123.643 21.5499 123.526 21.47L120.055 18.9631C120.005 18.9262 119.931 18.9262 119.882 18.9631L116.411 21.47C116.294 21.5561 116.139 21.4393 116.182 21.3041L117.51 17.2427C117.529 17.1812 117.51 17.1136 117.455 17.0768L113.984 14.5698C113.866 14.4838 113.928 14.3056 114.07 14.3056H118.363C118.424 14.3056 118.48 14.2626 118.505 14.2073L119.832 10.1458C119.87 10.0168 120.061 10.0168 120.104 10.1458Z" fill="#FFDB02"/>
<path d="M134.469 10.1458L135.797 14.2073C135.816 14.2688 135.871 14.3056 135.939 14.3056H140.232C140.374 14.3056 140.436 14.4838 140.318 14.5698L136.847 17.0768C136.798 17.1136 136.773 17.1812 136.792 17.2427L138.12 21.3041C138.163 21.4393 138.008 21.5499 137.891 21.47L134.42 18.9631C134.371 18.9262 134.297 18.9262 134.247 18.9631L130.776 21.47C130.659 21.5561 130.504 21.4393 130.548 21.3041L131.875 17.2427C131.894 17.1812 131.875 17.1136 131.82 17.0768L128.349 14.5698C128.231 14.4838 128.293 14.3056 128.435 14.3056H132.728C132.79 14.3056 132.845 14.2626 132.87 14.2073L134.198 10.1458C134.235 10.0168 134.426 10.0168 134.469 10.1458Z" fill="#FFDB02"/>
<path d="M148.837 10.1458L150.165 14.2073C150.183 14.2688 150.239 14.3056 150.307 14.3056H154.599C154.741 14.3056 154.803 14.4838 154.686 14.5698L151.215 17.0768C151.165 17.1136 151.14 17.1812 151.159 17.2427L152.487 21.3041C152.53 21.4393 152.376 21.5499 152.258 21.47L148.787 18.9631C148.738 18.9262 148.664 18.9262 148.614 18.9631L145.143 21.47C145.026 21.5561 144.872 21.4393 144.915 21.3041L146.243 17.2427C146.261 17.1812 146.243 17.1136 146.187 17.0768L142.716 14.5698C142.599 14.4838 142.66 14.3056 142.802 14.3056H147.095C147.157 14.3056 147.212 14.2626 147.237 14.2073L148.565 10.1458C148.602 10.0168 148.793 10.0168 148.837 10.1458Z" stroke="#FFDB02" stroke-width="0.208029" stroke-miterlimit="10"/>
<path d="M150.091 14.2134L148.812 10.1519C148.769 10.0167 148.584 10.0167 148.54 10.1519L147.262 14.2134C147.243 14.2748 147.188 14.3117 147.126 14.3117L142.864 14.2871C142.778 14.2871 142.691 14.2994 142.691 14.3732V14.4407C142.691 14.4838 142.827 14.6189 142.864 14.6497L146.249 17.0829C146.298 17.1197 146.317 17.1873 146.298 17.2426L144.927 21.2488C144.884 21.384 145.007 21.5745 145.119 21.4884L148.59 18.9569C148.639 18.92 148.707 18.92 148.756 18.9569L152.067 21.3348V20.3271L151.036 17.175L152.067 16.3885V14.3179L150.22 14.3056C150.165 14.3117 150.109 14.2687 150.091 14.2134Z" fill="#FFDB02"/>
<path d="M91.4343 10.146L92.7622 14.2075C92.7807 14.2689 92.8363 14.3058 92.9043 14.3058H97.1968C97.3388 14.3058 97.4006 14.4901 97.2832 14.57L93.8122 17.0831C93.7628 17.12 93.7381 17.1876 93.7566 17.249L95.0845 21.3105C95.1277 21.4457 94.9733 21.5563 94.856 21.4764L91.3849 18.9633C91.3355 18.9264 91.2614 18.9264 91.212 18.9633L87.7409 21.4764C87.6236 21.5624 87.4692 21.4457 87.5124 21.3105L88.8403 17.249C88.8588 17.1876 88.8403 17.12 88.7847 17.0831L85.3137 14.5762C85.1963 14.4901 85.2581 14.312 85.4001 14.312H89.6926C89.7544 14.312 89.81 14.2689 89.8347 14.2136L91.1626 10.1522C91.1996 10.017 91.3911 10.017 91.4343 10.146Z" fill="#FFDB02"/>
</svg>
