<?xml version="1.0" encoding="UTF-8"?> <svg xmlns="http://www.w3.org/2000/svg" width="50" height="50" viewBox="0 0 50 50" fill="none"><g clip-path="url(#clip0)"><path d="M26.0742 48.9258C26.0742 49.4652 25.6367 49.9023 25.0977 49.9023C24.5583 49.9023 24.1211 49.4652 24.1211 48.9258C24.1211 48.3864 24.5583 47.9492 25.0977 47.9492C25.6367 47.9492 26.0742 48.3864 26.0742 48.9258Z" fill="#48a427"></path><path d="M29.4924 47.9492C28.953 47.9492 28.5158 48.3864 28.5158 48.9258C28.5158 49.4652 28.953 49.9024 29.4924 49.9024H45.6053C46.1447 49.9024 46.5818 49.4652 46.5818 48.9258V18.3475L48.5323 19.8219C48.9603 20.1458 49.5733 20.0642 49.9002 19.632C50.2253 19.2017 50.1402 18.5894 49.7103 18.264L25.6868 0.0999186C25.3381 -0.163677 24.8571 -0.163677 24.5088 0.0999186L0.485363 18.264C0.0550647 18.5894 -0.0300031 19.2017 0.295391 19.632C0.620785 20.0623 1.23304 20.1473 1.66334 19.8219L3.61342 18.3475V48.9258C3.61342 49.4652 4.05058 49.9024 4.58998 49.9024H20.7033C21.2427 49.9024 21.6798 49.4652 21.6798 48.9258C21.6798 48.3864 21.2427 47.9492 20.7033 47.9492H11.4259V40.5274H38.7697V47.9492H29.4924ZM38.7697 32.7149H11.4259V28.8086H38.7697V32.7149ZM5.56654 16.8709L25.0978 2.10302L44.6287 16.8709V47.9492H40.7225V27.832C40.7225 27.2926 40.2853 26.8555 39.7463 26.8555H10.4494C9.90996 26.8555 9.4728 27.2926 9.4728 27.832V47.9492H5.56654V16.8709ZM11.4259 38.5742V34.668H38.7697V38.5742H11.4259Z" fill="#48a427"></path><path d="M19.2383 22.9492H30.957C31.4961 22.9492 31.9336 22.5121 31.9336 21.9727V15.5273C31.9336 11.758 28.867 8.69141 25.0977 8.69141C21.3284 8.69141 18.2617 11.758 18.2617 15.5273V21.9727C18.2617 22.5121 18.6989 22.9492 19.2383 22.9492ZM29.9805 15.5273V20.9961H26.0742V10.743C28.3001 11.1965 29.9805 13.1691 29.9805 15.5273ZM20.2148 15.5273C20.2148 13.1695 21.8948 11.1965 24.1211 10.743V20.9961H20.2148V15.5273Z" fill="#48a427"></path></g><defs><clipPath id="clip0"><rect width="50" height="50" fill="white"></rect></clipPath></defs></svg> 