<?xml version="1.0" encoding="utf-8"?>
<!-- Generator: Adobe Illustrator 24.1.1, SVG Export Plug-In . SVG Version: 6.00 Build 0)  -->
<svg version="1.1" id="Слой_1" xmlns="http://www.w3.org/2000/svg" xmlns:xlink="http://www.w3.org/1999/xlink" x="0px" y="0px"
	 width="160px" height="41px" viewBox="0 0 160 41" style="enable-background:new 0 0 160 41;" xml:space="preserve">
<style type="text/css">
	.st0{fill:#FFFFFF;}
	.st1{fill:#FFDB02;}
	.st2{fill:none;stroke:#FFDB02;stroke-width:0.208;stroke-miterlimit:10;}
	.st3{fill:#222222;}
	.st4{clip-path:url(#SVGID_2_);}
	.st5{fill:#4285F4;}
	.st6{fill:#34A853;}
	.st7{fill:#FBBC05;}
	.st8{fill:#EB4335;}
</style>
<path class="st0" d="M112.5,31l1.6-2.2v-0.7H110v0.7h3.3l-1.7,2.4l0.3,0.5h0.2l0,0v0c0.9,0,1.6,0.5,1.6,1.5c0,1-0.7,1.5-1.6,1.5
	c-0.8,0-1.4-0.3-1.7-1l-0.6,0.3c0.3,0.9,1.2,1.4,2.2,1.4c1.2,0,2.3-0.8,2.3-2.1C114.4,31.9,113.5,31.2,112.5,31z M117.4,31h-1.2
	l0.2-2.2h3.1v-0.7h-3.7l-0.3,3.5h1.9c0.9,0,1.6,0.5,1.6,1.5c0,1-0.7,1.5-1.6,1.5c-0.8,0-1.5-0.4-1.7-1.1l-0.6,0.3
	c0.3,1,1.2,1.5,2.2,1.5c1.2,0,2.3-0.8,2.3-2.1C119.7,31.7,118.6,31,117.4,31z M124,31v-0.8h-0.7v5h0.7v-2.8c0-1.2,0.8-1.7,1.6-1.7
	v-0.6C124.9,30.1,124.3,30.3,124,31z M128.5,30c-1.5,0-2.6,1.1-2.6,2.6c0,1.5,1.1,2.6,2.7,2.6c1,0,1.8-0.5,2.2-1.1l-0.6-0.3
	c-0.3,0.5-0.8,0.8-1.6,0.8c-1.1,0-1.8-0.6-2-1.6h4.4c0-0.1,0-0.2,0-0.3C130.9,31.3,130,30,128.5,30z M128.5,30.7
	c0.9,0,1.7,0.6,1.8,1.7h-3.7C126.7,31.3,127.4,30.7,128.5,30.7z M135.4,30.1l-1.7,4.3l-1.7-4.3h-0.7l2,5h0.8l2-5H135.4z M137.2,29.1
	c0.3,0,0.5-0.2,0.5-0.5c0-0.3-0.2-0.5-0.5-0.5c-0.3,0-0.5,0.2-0.5,0.5C136.7,28.9,137,29.1,137.2,29.1z M136.9,35.1h0.7v-5h-0.7
	V35.1z M141.3,30c-1.5,0-2.6,1.1-2.6,2.6c0,1.5,1.1,2.6,2.7,2.6c1,0,1.8-0.5,2.2-1.1l-0.6-0.3c-0.3,0.5-0.8,0.8-1.6,0.8
	c-1.1,0-1.8-0.6-2-1.6h4.4c0-0.1,0-0.2,0-0.3C143.7,31.3,142.8,30,141.3,30z M141.3,30.7c0.9,0,1.7,0.6,1.8,1.7h-3.7
	C139.5,31.3,140.2,30.7,141.3,30.7z M150.6,30.1l-1.2,4.1l-1.3-4.1h-0.7l-1.3,4.1l-1.2-4.1h-0.7l1.5,5h0.7l1.3-4l1.3,4h0.7l1.5-5
	H150.6z M152.5,31.4c0-0.5,0.5-0.8,1-0.8c0.5,0,1,0.2,1.2,0.7l0.5-0.3c-0.3-0.6-0.9-1-1.7-1c-1,0-1.7,0.6-1.7,1.4
	c0,1.8,2.9,1.1,2.9,2.4c0,0.6-0.6,0.8-1.1,0.8c-0.7,0-1.2-0.3-1.4-0.8l-0.6,0.3c0.3,0.6,0.9,1.1,1.9,1.1c1.1,0,1.8-0.6,1.8-1.4
	C155.4,32,152.5,32.7,152.5,31.4z"/>
<path class="st1" d="M105.7,8.1l1.3,4.1c0,0.1,0.1,0.1,0.1,0.1h4.3c0.1,0,0.2,0.2,0.1,0.3l-3.5,2.5c0,0-0.1,0.1-0.1,0.2l1.3,4.1
	c0,0.1-0.1,0.2-0.2,0.2l-3.5-2.5c-0.1,0-0.1,0-0.2,0l-3.5,2.5c-0.1,0.1-0.3,0-0.2-0.2l1.3-4.1c0-0.1,0-0.1-0.1-0.2l-3.5-2.5
	c-0.1-0.1-0.1-0.3,0.1-0.3h4.3c0.1,0,0.1,0,0.1-0.1l1.3-4.1C105.5,8,105.7,8,105.7,8.1z"/>
<path class="st1" d="M120.1,8.1l1.3,4.1c0,0.1,0.1,0.1,0.1,0.1h4.3c0.1,0,0.2,0.2,0.1,0.3l-3.5,2.5c0,0-0.1,0.1-0.1,0.2l1.3,4.1
	c0,0.1-0.1,0.2-0.2,0.2l-3.5-2.5c-0.1,0-0.1,0-0.2,0l-3.5,2.5c-0.1,0.1-0.3,0-0.2-0.2l1.3-4.1c0-0.1,0-0.1-0.1-0.2l-3.5-2.5
	c-0.1-0.1-0.1-0.3,0.1-0.3h4.3c0.1,0,0.1,0,0.1-0.1l1.3-4.1C119.9,8,120.1,8,120.1,8.1z"/>
<path class="st1" d="M134.5,8.1l1.3,4.1c0,0.1,0.1,0.1,0.1,0.1h4.3c0.1,0,0.2,0.2,0.1,0.3l-3.5,2.5c0,0-0.1,0.1-0.1,0.2l1.3,4.1
	c0,0.1-0.1,0.2-0.2,0.2l-3.5-2.5c0,0-0.1,0-0.2,0l-3.5,2.5c-0.1,0.1-0.3,0-0.2-0.2l1.3-4.1c0-0.1,0-0.1-0.1-0.2l-3.5-2.5
	c-0.1-0.1-0.1-0.3,0.1-0.3h4.3c0.1,0,0.1,0,0.1-0.1l1.3-4.1C134.2,8,134.4,8,134.5,8.1z"/>
<path class="st2" d="M148.8,8.1l1.3,4.1c0,0.1,0.1,0.1,0.1,0.1h4.3c0.1,0,0.2,0.2,0.1,0.3l-3.5,2.5c-0.1,0-0.1,0.1-0.1,0.2l1.3,4.1
	c0,0.1-0.1,0.2-0.2,0.2l-3.5-2.5c0,0-0.1,0-0.2,0l-3.5,2.5c-0.1,0.1-0.3,0-0.2-0.2l1.3-4.1c0-0.1,0-0.1-0.1-0.2l-3.5-2.5
	c-0.1-0.1-0.1-0.3,0.1-0.3h4.3c0.1,0,0.1,0,0.1-0.1l1.3-4.1C148.6,8,148.8,8,148.8,8.1z"/>
<path class="st1" d="M150.1,12.2l-1.3-4.1c0-0.1-0.2-0.1-0.3,0l-1.3,4.1c0,0.1-0.1,0.1-0.1,0.1l-4.3,0c-0.1,0-0.2,0-0.2,0.1v0.1
	c0,0,0.1,0.2,0.2,0.2l3.4,2.4c0,0,0.1,0.1,0,0.2l-1.4,4c0,0.1,0.1,0.3,0.2,0.2l3.5-2.5c0,0,0.1,0,0.2,0l3.3,2.4v-1l-1-3.2l1-0.8
	v-2.1l-1.8,0C150.2,12.3,150.1,12.3,150.1,12.2z"/>
<path class="st1" d="M91.4,8.1l1.3,4.1c0,0.1,0.1,0.1,0.1,0.1h4.3c0.1,0,0.2,0.2,0.1,0.3l-3.5,2.5c0,0-0.1,0.1-0.1,0.2l1.3,4.1
	c0,0.1-0.1,0.2-0.2,0.2L91.4,17c0,0-0.1,0-0.2,0l-3.5,2.5c-0.1,0.1-0.3,0-0.2-0.2l1.3-4.1c0-0.1,0-0.1-0.1-0.2l-3.5-2.5
	c-0.1-0.1-0.1-0.3,0.1-0.3h4.3c0.1,0,0.1,0,0.1-0.1l1.3-4.1C91.2,8,91.4,8,91.4,8.1z"/>
<path class="st3" d="M39.1,15l-1.4-2.4h-1V15h-1.4V8h2.8c0.6,0,1.2,0.2,1.6,0.7c0.5,0.5,0.7,1,0.7,1.6c0,0.4-0.1,0.8-0.4,1.2
	c-0.2,0.4-0.6,0.6-1,0.8l1.5,2.6H39.1z M36.7,9.3v2.1h1.4c0.3,0,0.5-0.1,0.7-0.3c0.2-0.2,0.3-0.5,0.3-0.7c0-0.3-0.1-0.5-0.3-0.7
	s-0.4-0.3-0.7-0.3H36.7z M42.2,13.1c0.2,0.6,0.6,0.9,1.4,0.9c0.5,0,0.9-0.2,1.1-0.5l1,0.6c-0.5,0.7-1.2,1.1-2.2,1.1
	c-0.8,0-1.5-0.2-2-0.7c-0.5-0.5-0.7-1.1-0.7-1.9c0-0.8,0.2-1.4,0.7-1.9c0.5-0.5,1.1-0.8,1.9-0.8c0.7,0,1.3,0.3,1.8,0.8
	c0.5,0.5,0.7,1.1,0.7,1.9c0,0.2,0,0.3,0,0.5H42.2z M42.2,12.1h2.5c-0.1-0.3-0.2-0.6-0.5-0.8c-0.2-0.2-0.5-0.2-0.8-0.2
	c-0.3,0-0.6,0.1-0.9,0.3C42.4,11.5,42.3,11.7,42.2,12.1z M50,10h1.4l-1.9,5h-1.5l-1.9-5h1.4l1.2,3.5L50,10z M52.7,9.4
	c-0.2,0-0.4-0.1-0.6-0.2C52,9,51.9,8.9,51.9,8.6c0-0.2,0.1-0.4,0.2-0.6c0.2-0.2,0.3-0.2,0.6-0.2c0.2,0,0.4,0.1,0.6,0.2
	c0.2,0.2,0.2,0.3,0.2,0.6c0,0.2-0.1,0.4-0.2,0.6C53.1,9.4,52.9,9.4,52.7,9.4z M52.1,15v-5h1.3v5H52.1z M55.6,13.1
	c0.2,0.6,0.6,0.9,1.4,0.9c0.5,0,0.9-0.2,1.1-0.5l1,0.6c-0.5,0.7-1.2,1.1-2.2,1.1c-0.8,0-1.5-0.2-2-0.7c-0.5-0.5-0.7-1.1-0.7-1.9
	c0-0.8,0.2-1.4,0.7-1.9c0.5-0.5,1.1-0.8,1.9-0.8c0.7,0,1.3,0.3,1.8,0.8c0.5,0.5,0.7,1.1,0.7,1.9c0,0.2,0,0.3,0,0.5H55.6z M55.6,12.1
	h2.5c-0.1-0.3-0.2-0.6-0.5-0.8c-0.2-0.2-0.5-0.2-0.8-0.2c-0.3,0-0.6,0.1-0.9,0.3C55.8,11.5,55.7,11.7,55.6,12.1z M65.8,10h1.4
	l-1.6,5h-1.2l-0.9-3l-0.9,3h-1.2l-1.6-5H61l0.8,3.1l0.9-3.1H64l0.9,3.1L65.8,10z M68.7,11.5c0,0.1,0.1,0.2,0.3,0.3
	c0.2,0.1,0.4,0.2,0.6,0.2c0.3,0.1,0.5,0.1,0.8,0.2c0.3,0.1,0.5,0.3,0.6,0.5c0.2,0.2,0.3,0.5,0.3,0.8c0,0.5-0.2,0.9-0.6,1.2
	c-0.4,0.3-0.9,0.4-1.4,0.4c-1,0-1.7-0.4-2.1-1.2l1.1-0.6c0.1,0.4,0.5,0.6,1,0.6c0.5,0,0.7-0.1,0.7-0.4c0-0.1-0.1-0.2-0.3-0.3
	c-0.2-0.1-0.4-0.2-0.6-0.2c-0.3-0.1-0.5-0.1-0.8-0.2c-0.3-0.1-0.5-0.3-0.6-0.5c-0.2-0.2-0.3-0.5-0.3-0.8c0-0.5,0.2-0.9,0.5-1.2
	c0.4-0.3,0.8-0.4,1.4-0.4c0.4,0,0.8,0.1,1.1,0.3c0.3,0.2,0.6,0.4,0.8,0.8l-1.1,0.6c-0.2-0.3-0.4-0.5-0.8-0.5c-0.2,0-0.3,0-0.4,0.1
	C68.8,11.2,68.7,11.3,68.7,11.5z"/>
<g>
	<defs>
		<rect id="SVGID_1_" x="6.1" y="6.3" width="27.9" height="28.4"/>
	</defs>
	<clipPath id="SVGID_2_">
		<use xlink:href="#SVGID_1_"  style="overflow:visible;"/>
	</clipPath>
	<g class="st4">
		<path class="st5" d="M34,20.7c0-1.2-0.1-2-0.3-2.9H20.4v5.2h7.8c-0.2,1.3-1,3.3-2.9,4.6l0,0.2l4.2,3.3l0.3,0
			C32.5,28.7,34,25,34,20.7z"/>
		<path class="st6" d="M20.4,34.5c3.8,0,7.1-1.3,9.4-3.4l-4.5-3.5c-1.2,0.8-2.8,1.4-4.9,1.4c-3.8,0-6.9-2.5-8.1-5.9l-0.2,0l-4.4,3.4
			l-0.1,0.2C10,31.4,14.8,34.5,20.4,34.5z"/>
		<path class="st7" d="M12.3,23.2c-0.3-0.9-0.5-1.8-0.5-2.8c0-1,0.2-1.9,0.5-2.8l0-0.2L7.8,14l-0.1,0.1c-1,1.9-1.5,4.1-1.5,6.3
			s0.6,4.4,1.5,6.3L12.3,23.2z"/>
		<path class="st8" d="M20.4,11.7c2.7,0,4.5,1.1,5.5,2.1l4-3.9c-2.5-2.3-5.7-3.7-9.5-3.7c-5.6,0-10.4,3.2-12.7,7.8l4.6,3.6
			C13.4,14.2,16.6,11.7,20.4,11.7z"/>
	</g>
</g>
</svg>
