<?xml version="1.0" encoding="UTF-8"?> <svg xmlns="http://www.w3.org/2000/svg" width="100" height="100" fill="none"><path d="M82.24 81.02c-.81 0-1.47.66-1.47 1.47v13.77c0 .45-.36.81-.8.81h-7.88V68.22a1.46 1.46 0 10-2.93 0v28.85H53.3l4.6-5.06a2.63 2.63 0 00.63-2.15l-4.38-25.87 1.18-1.78c.65.46 1.15.91 2.1.91.95 0 1.85-.54 2.3-1.42l4.61-9.26 10.52 4.08c.38.16 5.91 2.65 5.91 9.22v9.91a1.46 1.46 0 102.93 0v-9.9c0-8.67-7.41-11.81-7.73-11.94l-.03-.02-17.51-6.78v-4.1a13.73 13.73 0 005.2-9.03 6.34 6.34 0 003.72-1.52 6.2 6.2 0 00.65-8.78v-5.43A18.18 18.18 0 0049.84 0 18.18 18.18 0 0031.7 18.15v5.57a5.88 5.88 0 00-1.51 3.92 6.2 6.2 0 002.16 4.72 6.34 6.34 0 003.72 1.52 13.58 13.58 0 005.5 9.24v3.9l-17.5 6.77-.03.02c-.32.13-7.73 3.27-7.73 11.93v30.52a3.74 3.74 0 003.74 3.74h13.95a1.46 1.46 0 100-2.93h-3.15V68.22a1.46 1.46 0 00-2.93 0v28.85h-7.87a.81.81 0 01-.81-.8V65.73c0-6.6 5.56-9.07 5.9-9.22l10.52-4.08 4.62 9.26a2.57 2.57 0 002.3 1.42c.93 0 1.43-.44 2.1-.9l1.17 1.77-4.38 25.87v.04c-.1.77.13 1.56.63 2.11l4.6 5.06h-5.86a1.46 1.46 0 000 2.93h39.13a3.74 3.74 0 003.74-3.74V82.5c0-.81-.65-1.47-1.46-1.47zM61.6 51.38l-4.3 8.63c-.12-.07-2.4-1.7-5.19-3.68l5.32-6.56 4.17 1.61zm-8.66 9.13l-1.12 1.69h-3.65l-1.12-1.69L50 58.42l2.94 2.1zm-8.46-13.03v-2.74c1.78.72 3.68 1.05 5.54 1.05 1.92 0 3.8-.4 5.48-1.14v2.85L50 54.29l-5.52-6.8zm22.1-19.84a3.28 3.28 0 01-2.83 3.27v-6.53a3.31 3.31 0 012.83 3.26zm-30.64 3.27a3.31 3.31 0 01-2.83-3.27c0-1.56 1.3-2.84 2.83-3.2v6.47zm.08-9.45c-.47.06-1 .18-1.4.32v-3.63c0-8.39 6.83-15.22 15.22-15.22 8.4 0 15.23 6.83 15.23 15.22v3.53a6.52 6.52 0 00-1.32-.26c0-1.41 0-1.14-4.61-6.1a2.6 2.6 0 00-3.33-.41c-5.1 3.33-11.33 5-17.08 4.6a2.6 2.6 0 00-2.71 1.95zm2.85 10.6v-9.61a31.3 31.3 0 0018.3-4.94c2.13 2.28 3.28 3.47 3.65 3.92v10.64c0 5.94-4.85 10.8-10.8 10.8a10.87 10.87 0 01-11.15-10.8zm3.83 27.95l-4.3-8.63 4.15-1.61 5.32 6.57L42.7 60zm1.68 30.17l4.24-25.06h2.75l4.24 25.06L50 96.35l-5.62-6.17z" fill="#48a427"></path></svg> 