<?xml version="1.0" encoding="UTF-8"?> <svg xmlns="http://www.w3.org/2000/svg" width="100" height="100" fill="none"><path d="M55.56 11.26h-5.61c-1 0-1.81.8-1.81 1.8v6.74c0 1 .8 1.81 1.8 1.81h5.62c1 0 1.81-.8 1.81-1.8v-6.74c0-1-.81-1.81-1.8-1.81zm-1.05 7.5H51V14.1h3.52v4.65zM66.73 11.26H61.1c-1 0-1.8.8-1.8 1.8v6.74c0 1 .8 1.81 1.8 1.81h5.62c1 0 1.8-.8 1.8-1.8v-6.74c0-1-.8-1.81-1.8-1.81zm-1.05 7.5h-3.52V14.1h3.52v4.65zM77.9 11.26h-5.62c-1 0-1.81.8-1.81 1.8v6.74c0 1 .81 1.81 1.8 1.81h5.62c1 0 1.81-.8 1.81-1.8v-6.74c0-1-.8-1.81-1.8-1.81zm-1.05 7.5h-3.52V14.1h3.52v4.65zM55.56 28h-5.61c-1 0-1.81.8-1.81 1.8v6.74c0 1 .8 1.8 1.8 1.8h5.62c1 0 1.81-.8 1.81-1.8V29.8c0-1-.81-1.8-1.8-1.8zm-1.05 7.5H51v-4.65h3.52v4.64zM66.73 28H61.1c-1 0-1.8.8-1.8 1.8v6.74c0 1 .8 1.8 1.8 1.8h5.62c1 0 1.8-.8 1.8-1.8V29.8c0-1-.8-1.8-1.8-1.8zm-1.05 7.5h-3.52v-4.65h3.52v4.64zM77.9 28h-5.62c-1 0-1.81.8-1.81 1.8v6.74c0 1 .81 1.8 1.8 1.8h5.62c1 0 1.81-.8 1.81-1.8V29.8c0-1-.8-1.8-1.8-1.8zm-1.05 7.5h-3.52v-4.65h3.52v4.64zM55.56 44.73h-5.61c-1 0-1.81.8-1.81 1.8v6.75c0 1 .8 1.8 1.8 1.8h5.62c1 0 1.81-.8 1.81-1.8v-6.74c0-1-.81-1.81-1.8-1.81zm-1.05 7.5H51v-4.64h3.52v4.64zM66.73 44.73H61.1c-1 0-1.8.8-1.8 1.8v6.75c0 1 .8 1.8 1.8 1.8h5.62c1 0 1.8-.8 1.8-1.8v-6.74c0-1-.8-1.81-1.8-1.81zm-1.05 7.5h-3.52v-4.64h3.52v4.64zM77.9 44.73h-5.62c-1 0-1.81.8-1.81 1.8v6.75c0 1 .81 1.8 1.8 1.8h5.62c1 0 1.81-.8 1.81-1.8v-6.74c0-1-.8-1.81-1.8-1.81zm-1.05 7.5h-3.52v-4.64h3.52v4.64zM77.9 61.46h-5.62c-1 0-1.81.81-1.81 1.81v6.74c0 1 .81 1.81 1.8 1.81h5.62c1 0 1.81-.81 1.81-1.8v-6.75c0-1-.8-1.8-1.8-1.8zm-1.05 7.5h-3.52v-4.64h3.52v4.64z" fill="#48a427"></path><path d="M96.6 67.83a5.95 5.95 0 00-8.22-1.59l-3.93 2.63V7.4h.29c1.03 0 1.87-.84 1.87-1.87V1.88C86.61.84 85.77 0 84.74 0H75.6a1.43 1.43 0 100 2.86h8.15v1.7H43.64v-1.7h23.03a1.43 1.43 0 100-2.86h-24c-1.04 0-1.88.84-1.88 1.88v3.66c0 1.03.84 1.87 1.87 1.87h.73v18.35h-2.94v-3.52c0-1.23-1-2.23-2.22-2.23H27.44c-1.23 0-2.23 1-2.23 2.23v3.52h-2.05a2.32 2.32 0 00-2.31 2.32v32.76a28.7 28.7 0 00-1.82-.06h-2.25v-.74A5.03 5.03 0 0011.75 55H7.41a5.03 5.03 0 00-5.03 5.03v20.4a1.43 1.43 0 002.86 0v-20.4c0-1.2.97-2.17 2.17-2.17h4.34c1.2 0 2.17.97 2.17 2.17v32.14c0 1.2-.97 2.17-2.17 2.17H7.41c-1.2 0-2.17-.97-2.17-2.17v-2.8a1.43 1.43 0 10-2.86 0v2.8a5.03 5.03 0 005.03 5.03h4.34a5.03 5.03 0 005.03-5.03v-.08l19.78 7.5.12.03a9.53 9.53 0 004 .26l29.2-4.2.02-.01a14.37 14.37 0 006.86-3.1l18.87-16.97a5.95 5.95 0 00.97-7.78zM46.25 7.41h35.34v63.37l-11.88 7.96-3.99-.23-.1-1.02a8.73 8.73 0 00-2.9-5.67h4c1 0 1.82-.81 1.82-1.8v-6.75c0-1-.81-1.8-1.81-1.8H61.1c-1 0-1.8.8-1.8 1.8v6.7a8.83 8.83 0 00-1.15-.23l-.79-.09v-6.38c0-1-.81-1.8-1.8-1.8h-5.62c-1 0-1.81.8-1.81 1.8v5.32l-1.9-.22V7.41zm15.91 61.55v-4.64h3.52v4.64h-3.52zm-7.65-4.64v4.64h-3.13l-.39-.04v-4.6h3.52zM28.07 22.87h9.53v2.9h-9.53v-2.9zm-4.36 5.75h19.68v4.47H27.25c-.92 0-1.67.75-1.67 1.67v4.32c0 .92.75 1.67 1.67 1.67H43.4v4.02H27.25c-.92 0-1.67.75-1.67 1.68v4.31c0 .92.75 1.68 1.67 1.68H43.4v4.01H27.25c-.92 0-1.67.76-1.67 1.68v3.41a29.65 29.65 0 00-1.48-.3l-.4-.07V28.62zm19.68 7.33v1.95H28.44v-1.95h14.95zm0 11.68v1.95H28.44v-1.95h14.95zM28.44 61.26v-1.95h14.95v1.95H28.44zm14.95 2.86v3.92l-.44-.05a26.02 26.02 0 01-10.17-3.7l-.17-.1-.15-.07H43.4zm50.34 9.36L74.87 90.43a11.51 11.51 0 01-5.41 2.42l-29.2 4.21-.04.01a6.4 6.4 0 01-2.7-.17l-20.74-7.85V63.64h2.25a25.81 25.81 0 013.71.27l.1.01a26.33 26.33 0 012.02.39l.24.05.62.16.11.03c1.62.44 3.19 1.04 4.7 1.78l.13.07.57.3.17.1c.23.11.45.24.68.37a28.56 28.56 0 0010.51 3.65l8.54 1 6.68.76a5.82 5.82 0 014.97 5.2l.05.5-26.78-2.62a1.43 1.43 0 10-.28 2.85l28.39 2.76.18.03 5.69.32h.16l.1-.01.12-.03.1-.02.12-.05a1.45 1.45 0 00.27-.14l19.07-12.76a3.09 3.09 0 013.76 4.87z" fill="#48a427"></path></svg> 