<svg width="14" height="15" viewBox="0 0 14 15" fill="none" xmlns="http://www.w3.org/2000/svg">
<path d="M12.9167 10.1056V4.98144C12.9164 4.7568 12.8551 4.53616 12.7389 4.34167C12.6227 4.14718 12.4557 3.98567 12.2546 3.87335L7.62037 1.31127C7.41909 1.19884 7.19076 1.13965 6.95833 1.13965C6.72591 1.13965 6.49758 1.19884 6.2963 1.31127L1.66204 3.87335C1.46095 3.98567 1.29393 4.14718 1.17773 4.34167C1.06153 4.53616 1.00024 4.7568 1 4.98144V10.1056C1.00024 10.3302 1.06153 10.5509 1.17773 10.7454C1.29393 10.9399 1.46095 11.1014 1.66204 11.2137L6.2963 13.7758C6.49758 13.8882 6.72591 13.9474 6.95833 13.9474C7.19076 13.9474 7.41909 13.8882 7.62037 13.7758L12.2546 11.2137C12.4557 11.1014 12.6227 10.9399 12.7389 10.7454C12.8551 10.5509 12.9164 10.3302 12.9167 10.1056Z" stroke="white" stroke-linecap="round" stroke-linejoin="round"/>
<path d="M1.17773 4.31567L6.95732 7.55029L12.7369 4.31567" stroke="white" stroke-linecap="round" stroke-linejoin="round"/>
<path d="M6.95801 14.0009V7.54443" stroke="white" stroke-linecap="round" stroke-linejoin="round"/>
</svg>
