<?xml version="1.0" encoding="UTF-8"?> <svg xmlns="http://www.w3.org/2000/svg" version="1.1" id="Слой_1" x="0" y="0" viewBox="0 0 100 100" xml:space="preserve"><style>.st0{fill:#48a427}</style><path class="st0" d="M86.21 12.73h-8.38v-2.46a5.28 5.28 0 00-10.54 0v2.46H37.75v-2.46a5.28 5.28 0 00-10.54 0v2.53a1.84 1.84 0 00-.47-.07h-7a8.8 8.8 0 00-8.79 8.79v29.94a1.76 1.76 0 003.52 0V30.84h63.37a1.76 1.76 0 000-3.52H14.46v-5.8a5.28 5.28 0 015.27-5.27h7c.16 0 .32-.02.47-.06v2.26a5.28 5.28 0 0010.54 0v-2.2h29.53v2.2a5.28 5.28 0 0010.54 0v-2.2h8.38a5.28 5.28 0 015.27 5.27v66.8a3.17 3.17 0 01-6.34 0v-4.55c0-.97-.79-1.76-1.76-1.76H62.95a1.76 1.76 0 000 3.52h18.69v2.79c0 1.14.29 2.22.8 3.17H11.68a3.17 3.17 0 01-3.16-3.16v-2.79h39.34a1.76 1.76 0 000-3.52H30.3a14.4 14.4 0 00-9.39-25.33 14.4 14.4 0 00-9.39 25.33H6.76A1.75 1.75 0 005 83.77v4.55C5 92 8 95 11.68 95h76.64C92 95 95 92 95 88.32v-66.8a8.8 8.8 0 00-8.79-8.79zm-51.97 5.72a1.76 1.76 0 01-3.52 0v-8.17a1.76 1.76 0 013.52 0v8.17zm40.08 0a1.76 1.76 0 01-3.52 0v-8.17a1.76 1.76 0 013.52 0v8.17zM10.01 71.09c0-6.01 4.89-10.9 10.9-10.9 6.01 0 10.9 4.89 10.9 10.9 0 6.01-4.89 10.9-10.9 10.9-6.01 0-10.9-4.89-10.9-10.9z"></path><path class="st0" d="M87.32 27.84a1.75 1.75 0 00-2.99 1.24 1.76 1.76 0 102.99-1.24zM57.5 82.53a1.76 1.76 0 00-2.48 2.48 1.76 1.76 0 002.48-2.48zM44.77 58.44a6.7 6.7 0 000 13.36 6.7 6.7 0 000-13.36zm0 9.84a3.17 3.17 0 010-6.32 3.17 3.17 0 010 6.32zM61.18 58.44a6.7 6.7 0 000 13.36 6.7 6.7 0 000-13.36zm0 9.84a3.17 3.17 0 010-6.32 3.17 3.17 0 010 6.32zM77.58 58.44a6.7 6.7 0 000 13.36 6.7 6.7 0 000-13.36zm0 9.84a3.17 3.17 0 010-6.32 3.17 3.17 0 010 6.32zM28.36 40.16a6.7 6.7 0 000 13.36 6.7 6.7 0 000-13.36zm0 9.84a3.17 3.17 0 010-6.32 3.17 3.17 0 010 6.32zM61.18 40.16a6.7 6.7 0 000 13.36 6.7 6.7 0 000-13.36zm0 9.84a3.17 3.17 0 010-6.32 3.17 3.17 0 010 6.32zM77.58 40.16a6.7 6.7 0 000 13.36 6.7 6.7 0 000-13.36zm0 9.84a3.17 3.17 0 010-6.32 3.17 3.17 0 010 6.32zM44.77 40.16a6.7 6.7 0 000 13.36 6.7 6.7 0 000-13.36zm0 9.84a3.17 3.17 0 010-6.32 3.17 3.17 0 010 6.32zM27.17 66.81a1.76 1.76 0 00-2.49 0l-5.72 5.72L17 70.58a1.76 1.76 0 10-2.49 2.49l3.2 3.2a1.76 1.76 0 002.48 0l6.97-6.97c.69-.69.69-1.8.01-2.49z"></path></svg> 