<?xml version="1.0" encoding="UTF-8"?> <svg xmlns="http://www.w3.org/2000/svg" viewBox="0 0 38.84 38.84"><circle cx="19.42" cy="19.42" r="18.92" style="fill:#f6f7f7;stroke:#00abe4;stroke-miterlimit:10"></circle><path d="M28.56,10.21a3,3,0,0,0-1,.34,13.17,13.17,0,0,0-2.38,1.69,58.69,58.69,0,0,0-5.1,5c-1,1.05-2,2.26-2.82,3.17a2.09,2.09,0,0,1-.24.28l-.21-.11c-.38-.2-1.29-.65-1.59-.79a10,10,0,0,0-2.81-1,2.81,2.81,0,0,0-.71,0,1.06,1.06,0,0,0-.73.54,1,1,0,0,0-.1.46.39.39,0,0,0,0,.26c0,.09.08.13.34.37a24.6,24.6,0,0,1,1.88,1.94A35.09,35.09,0,0,1,17,28.11c.25.43.35.52.6.52a.61.61,0,0,0,.19,0c.17-.08.24-.16.36-.46.19-.5.58-1.42.83-2a42.28,42.28,0,0,1,6.85-10.84c.76-.86,1.43-1.54,2.68-2.75,1-.94,1.16-1.16,1.24-1.48.12-.48-.27-.88-.89-.9Z" style="fill:#00abe4"></path></svg> 