<?xml version="1.0" encoding="UTF-8"?> <svg xmlns="http://www.w3.org/2000/svg" id="_Слой_2" viewBox="0 0 205.4 40.81"><defs><style>.cls-1{fill:#1b1c20;}</style></defs><g id="_Слой_1-2"><path class="cls-1" d="m59.9,32.66c.39,0,.59-.05.8-.05.17,0,.27.1.27.24,0,.17-.12.24-.27.24-.17,0-.46-.05-.8-.05-.63,0-1.29-.05-1.97-.05s-1.34.05-1.98.05c-.34,0-.63.05-.8.05-.15,0-.27-.07-.27-.24,0-.15.1-.24.27-.24.22,0,.41.05.8.05.78,0,.95-.19.95-.83V15.3c0-.76-.22-.95-1.05-.95-.24,0-.51.02-.71.02-.17,0-.27-.05-.27-.22,0-.19.12-.24.29-.24.2,0,.46.02.68.02.85,0,1.9-.22,2.44-.56.24-.19.37-.27.49-.27.15,0,.17.07.17.32v3.1h.02c.76-2.49,2.15-3.44,4.14-3.44,2.95,0,4.61,2.07,4.61,6.34,0,4.66-1.85,6.83-5.41,6.83-1.32,0-2.41-.34-3.36-.8v6.39c0,.63.17.83.95.83Zm-.95-13v5.1c.66.49,1.88.95,3.1.95,2.73,0,3.58-2.29,3.58-6.29,0-3.15-.51-5.73-2.95-5.73-2.1,0-3.58,2.22-3.73,5.97Z"></path><path class="cls-1" d="m80.41,16.96c0,2.49-1.88,3.66-5.63,3.66h-2.49c.2,3.78,1.66,4.93,3.93,4.93,1.27,0,2.27-.24,3.19-.63.41-.17.54-.32.78-.46.22-.1.34-.1.41.02.1.15.07.29-.17.44-.17.1-.24.12-.83.39-1.07.49-2.07.83-3.63.83-4.02,0-5.85-2.54-5.85-6.41s1.9-6.63,5.63-6.63c2.88,0,4.66,1.39,4.66,3.88Zm-8.14,2.71v.44h2.49c2.63,0,3.75-1.1,3.75-3.24s-.98-3.29-2.76-3.29c-2.19,0-3.49,1.88-3.49,6.1Z"></path><path class="cls-1" d="m88.23,14.37c-1.02.8-1.66,2.49-1.66,5.58v4.73c0,.63.17.83.95.83.37,0,.59-.05.76-.05.19,0,.29.1.29.24,0,.17-.12.24-.29.24-.15,0-.44-.05-.76-.05-.66,0-1.32-.05-2-.05s-1.32.05-1.98.05c-.34,0-.63.05-.8.05-.12,0-.24-.07-.24-.24,0-.15.1-.24.24-.24.22,0,.44.05.8.05.78,0,.95-.2.95-.83v-9.39c0-.76-.22-.95-1.05-.95-.22,0-.54.02-.68.02-.17,0-.32-.05-.32-.22,0-.19.17-.24.32-.24.2,0,.46.02.71.02.85,0,1.9-.2,2.44-.56.22-.19.34-.27.46-.27.17,0,.2.07.2.32v2.63c.59-1.63,1.83-2.97,4.05-2.97s3.85,1.34,3.85,4.39v6.12c0,1.29.39,1.95,1.17,1.95.58,0,.85-.34,1.05-.49.17-.15.34-.19.44-.05.1.12-.02.32-.15.44-.34.29-.9.61-2,.61-1.71,0-2.56-.95-2.56-3.19v-5.63c0-2.22-.68-3.44-2.41-3.44-.68,0-1.27.19-1.78.58Z"></path><path class="cls-1" d="m99.77,13.76c.8,0,1.56-2.29,1.56-3.66,0-.27.07-.39.24-.39.19,0,.24.12.24.39v3.66h3.22c.24,0,.32.07.32.32,0,.17-.07.27-.32.27h-3.22v8.12c0,2.22.54,3.07,1.68,3.07.76,0,1.2-.2,1.51-.49.15-.1.24-.24.41-.39.12-.12.29-.17.39-.05.1.1.05.27-.12.44-.12.15-.24.22-.44.34-.56.41-1.19.68-2.12.68-1.95,0-3.36-.95-3.36-3.71v-8.02h-1.56c-.24,0-.34-.07-.34-.27,0-.24.1-.32.34-.32h1.56Z"></path><path class="cls-1" d="m116.32,16.98c0-2.05-.71-3.19-2.41-3.19-.71,0-1.27.19-1.78.58-.95.78-1.63,2.34-1.68,5.14v5.17c0,.63.17.83.95.83.37,0,.59-.05.8-.05.15,0,.24.1.24.24,0,.17-.1.24-.24.24-.17,0-.46-.05-.8-.05-.63,0-1.29-.05-1.97-.05s-1.34.05-1.97.05c-.34,0-.63.05-.8.05-.15,0-.27-.07-.27-.24,0-.15.1-.24.27-.24.22,0,.41.05.8.05.78,0,.95-.2.95-.83v-14.8c0-.78-.22-.98-1.07-.98-.22,0-.49.05-.68.05-.17,0-.29-.07-.29-.24s.15-.24.32-.24c.19,0,.46.02.68.02.85,0,1.9-.2,2.44-.56.22-.17.34-.24.46-.24.17,0,.19.07.19.29v8.12c.56-1.66,1.83-3.02,4.07-3.02s3.85,1.24,3.85,4.15v6.36c0,1.29.39,1.95,1.17,1.95.56,0,.85-.34,1.02-.49s.34-.19.46-.05c.1.12,0,.32-.17.44-.34.27-.88.61-2,.61-1.68,0-2.54-.95-2.54-3.19v-5.88Z"></path><path class="cls-1" d="m128.15,13.08c4.12,0,5.75,2.93,5.75,6.56s-1.63,6.58-5.75,6.58-5.75-2.93-5.75-6.58,1.61-6.56,5.75-6.56Zm-3.61,6.56c0,3.71,1,6.1,3.61,6.1s3.61-2.39,3.61-6.1-1-6.07-3.61-6.07-3.61,2.39-3.61,6.07Z"></path><path class="cls-1" d="m143.88,24.76c1.02-.8,1.66-2.49,1.66-5.58v-3.88c0-.76-.22-.95-1.02-.95-.24,0-.54.02-.71.02s-.29-.05-.29-.22c0-.19.15-.24.32-.24s.44.02.71.02c.83,0,1.88-.22,2.39-.56.22-.19.37-.27.51-.27s.17.07.17.32v10.17c0,1.29.37,1.95,1.15,1.95.59,0,.85-.34,1.05-.49.17-.15.34-.19.44-.05.1.12-.02.32-.15.44-.34.29-.9.61-2,.61-1.66,0-2.51-.88-2.56-2.95-.58,1.66-1.83,2.97-4.05,2.97s-3.88-1.27-3.88-4.15v-6.63c0-.76-.22-.95-1.05-.95-.22,0-.54.02-.71.02-.15,0-.27-.05-.27-.22,0-.19.15-.24.32-.24s.44.02.71.02c.8,0,1.9-.22,2.41-.56.22-.19.37-.27.49-.27s.15.07.15.32v8.75c0,2.02.71,3.19,2.44,3.19.68,0,1.27-.2,1.78-.61Z"></path><path class="cls-1" d="m159.68,23.08c0-3.85-7.63-1.49-7.63-6.34,0-2.32,1.46-3.66,4.19-3.66,1.34,0,2.1.34,2.63.66.46.24.54.34.71.34.22,0,.15-.27.15-.71.02-.24.07-.37.27-.37.17,0,.24.12.24.41,0,.24-.05.68,0,1.39l.05.83c.05.73.15,1.22.15,1.41,0,.27-.07.39-.24.39s-.27-.1-.27-.39c0-.1,0-.32-.02-.63-.12-1.68-1.49-2.83-3.68-2.83-2.05,0-2.93.95-2.93,2.19,0,3.41,7.66,1.1,7.66,6.49,0,2.51-1.56,3.83-4.51,3.83-1.68,0-2.54-.58-3.15-.95-.29-.22-.39-.29-.56-.29-.24,0-.2.34-.22.68,0,.27-.05.39-.24.39-.15,0-.22-.1-.22-.37,0-.07.02-.37.02-.73,0-.27-.02-.61-.05-.9l-.02-.56c-.07-1.02-.17-1.61-.17-1.83,0-.27.05-.41.27-.41.19,0,.24.17.24.39,0,.2,0,.46.05.88.24,2.05,1.97,3.19,4.05,3.19s3.24-.98,3.24-2.51Z"></path><path class="cls-1" d="m173.6,16.96c0,2.49-1.88,3.66-5.63,3.66h-2.49c.19,3.78,1.66,4.93,3.93,4.93,1.27,0,2.27-.24,3.19-.63.41-.17.54-.32.78-.46.22-.1.34-.1.41.02.1.15.07.29-.17.44-.17.1-.24.12-.83.39-1.07.49-2.07.83-3.63.83-4.02,0-5.85-2.54-5.85-6.41s1.9-6.63,5.63-6.63c2.88,0,4.66,1.39,4.66,3.88Zm-8.14,2.71v.44h2.49c2.63,0,3.75-1.1,3.75-3.24s-.98-3.29-2.76-3.29c-2.19,0-3.49,1.88-3.49,6.1Z"></path><path class="cls-1" d="m177.53,23.42c.68,0,1.24.49,1.24,1.32s-.63,1.37-1.37,1.37-1.22-.49-1.22-1.27c0-.85.63-1.41,1.34-1.41Z"></path><path class="cls-1" d="m192.4,25.54c.59,0,.88-.37,1.05-.51.17-.15.34-.17.44-.05s.02.32-.15.44c-.32.32-.98.63-1.98.63-1.51,0-2.36-.76-2.54-2.49-.59,1.37-1.9,2.51-4.12,2.51s-3.88-1.05-3.88-3.46c0-2.83,2.34-3.71,6.12-3.71h1.85v-.66c0-3.44-1.15-4.66-3.22-4.66-1.78,0-2.9.66-3.36,1.61.17-.12.39-.19.63-.19.66,0,1.15.46,1.15,1.24s-.51,1.29-1.27,1.29-1.19-.51-1.19-1.24c0-1.97,1.46-3.22,4.49-3.22s4.8,1.63,4.8,5.51v5c0,1.29.41,1.95,1.17,1.95Zm-6.75-.05c.76,0,1.44-.27,2.05-.76.9-.76,1.51-2.02,1.51-3.66v-1.68h-1.85c-2.85,0-4.05.93-4.05,3.24,0,2.02.95,2.85,2.34,2.85Z"></path><path class="cls-1" d="m205.15,16.96c0,2.49-1.88,3.66-5.63,3.66h-2.49c.19,3.78,1.66,4.93,3.93,4.93,1.27,0,2.27-.24,3.19-.63.41-.17.54-.32.78-.46.22-.1.34-.1.41.02.1.15.07.29-.17.44-.17.1-.24.12-.83.39-1.07.49-2.07.83-3.63.83-4.02,0-5.85-2.54-5.85-6.41s1.9-6.63,5.63-6.63c2.88,0,4.66,1.39,4.66,3.88Zm-8.14,2.71v.44h2.49c2.63,0,3.75-1.1,3.75-3.24s-.98-3.29-2.76-3.29c-2.19,0-3.49,1.88-3.49,6.1Z"></path><path class="cls-1" d="m66.08,31.3c0,.58-.42.93-1.12.93h-.73v.86h-.29v-2.73h1.02c.7,0,1.12.35,1.12.94Zm-.29,0c0-.44-.29-.69-.84-.69h-.73v1.37h.73c.55,0,.84-.25.84-.68Z"></path><path class="cls-1" d="m70.16,31.73c0-.8.61-1.39,1.44-1.39s1.43.59,1.43,1.39-.61,1.39-1.43,1.39-1.44-.59-1.44-1.39Zm2.58,0c0-.65-.49-1.13-1.14-1.13s-1.15.48-1.15,1.13.49,1.13,1.15,1.13,1.14-.48,1.14-1.13Z"></path><path class="cls-1" d="m81.02,30.36l-.92,2.73h-.3l-.8-2.33-.8,2.33h-.3l-.92-2.73h.3l.79,2.35.82-2.35h.27l.8,2.36.8-2.36h.28Z"></path><path class="cls-1" d="m87.14,32.84v.25h-1.93v-2.73h1.87v.25h-1.59v.97h1.41v.25h-1.41v1.02h1.64Z"></path><path class="cls-1" d="m93.35,33.09l-.62-.88c-.07,0-.14.01-.22.01h-.73v.87h-.29v-2.73h1.02c.7,0,1.12.35,1.12.94,0,.43-.23.73-.62.86l.67.94h-.32Zm-.02-1.8c0-.44-.29-.69-.84-.69h-.73v1.37h.73c.55,0,.84-.25.84-.68Z"></path><path class="cls-1" d="m99.91,32.84v.25h-1.93v-2.73h1.87v.25h-1.59v.97h1.41v.25h-1.41v1.02h1.64Z"></path><path class="cls-1" d="m104.25,30.36h1.11c.87,0,1.46.56,1.46,1.37s-.59,1.37-1.46,1.37h-1.11v-2.73Zm1.1,2.48c.73,0,1.2-.46,1.2-1.12s-.47-1.12-1.2-1.12h-.81v2.23h.81Z"></path><path class="cls-1" d="m118.12,32.36c0,.46-.34.73-1.03.73h-1.26v-2.73h1.18c.61,0,.96.26.96.7,0,.31-.17.52-.42.62.35.08.56.31.56.68Zm-2-1.77v.99h.87c.44,0,.69-.17.69-.5s-.25-.5-.69-.5h-.87Zm1.71,1.74c0-.36-.26-.51-.74-.51h-.96v1.03h.96c.48,0,.74-.16.74-.52Z"></path><path class="cls-1" d="m123.32,32.15v.95h-.29v-.95l-1.09-1.79h.31l.94,1.54.94-1.54h.29l-1.09,1.79Z"></path><path class="cls-1" d="m136.06,30.36v2.73h-.28v-2.19l-1.07,1.84h-.14l-1.07-1.83v2.18h-.28v-2.73h.24l1.19,2.03,1.18-2.03h.24Z"></path><path class="cls-1" d="m142.55,32.84v.25h-1.93v-2.73h1.87v.25h-1.59v.97h1.41v.25h-1.41v1.02h1.64Z"></path><path class="cls-1" d="m147.42,30.61h-.96v-.25h2.21v.25h-.96v2.48h-.29v-2.48Z"></path><path class="cls-1" d="m154.67,33.09l-.62-.88c-.07,0-.14.01-.22.01h-.73v.87h-.29v-2.73h1.02c.69,0,1.12.35,1.12.94,0,.43-.23.73-.62.86l.67.94h-.32Zm-.02-1.8c0-.44-.29-.69-.84-.69h-.73v1.37h.73c.55,0,.84-.25.84-.68Z"></path><path class="cls-1" d="m159.05,31.73c0-.8.61-1.39,1.44-1.39s1.43.59,1.43,1.39-.61,1.39-1.43,1.39-1.44-.59-1.44-1.39Zm2.58,0c0-.65-.49-1.13-1.14-1.13s-1.15.48-1.15,1.13.49,1.13,1.15,1.13,1.14-.48,1.14-1.13Z"></path><path class="cls-1" d="m168.37,31.3c0,.58-.42.93-1.12.93h-.73v.86h-.29v-2.73h1.02c.7,0,1.12.35,1.12.94Zm-.29,0c0-.44-.29-.69-.84-.69h-.73v1.37h.73c.55,0,.84-.25.84-.68Z"></path><path class="cls-1" d="m172.46,31.73c0-.8.61-1.39,1.44-1.39s1.43.59,1.43,1.39-.61,1.39-1.43,1.39-1.44-.59-1.44-1.39Zm2.58,0c0-.65-.49-1.13-1.14-1.13s-1.15.48-1.15,1.13.49,1.13,1.15,1.13,1.14-.48,1.14-1.13Z"></path><path class="cls-1" d="m179.64,30.36h.29v2.48h1.53v.25h-1.82v-2.73Z"></path><path class="cls-1" d="m185.61,30.36h.29v2.73h-.29v-2.73Z"></path><path class="cls-1" d="m190.98,30.61h-.96v-.25h2.21v.25h-.96v2.48h-.29v-2.48Z"></path><path class="cls-1" d="m197.94,32.36h-1.52l-.33.73h-.3l1.25-2.73h.29l1.25,2.73h-.3l-.33-.73Zm-.11-.23l-.66-1.47-.66,1.47h1.31Z"></path><path class="cls-1" d="m204.97,30.36v2.73h-.24l-1.76-2.22v2.22h-.29v-2.73h.24l1.76,2.22v-2.22h.29Z"></path><path class="cls-1" d="m22.85,35.17c-2.14-5.85-3.78-12.1-3.18-18.38.25-2.6.9-5.17,1.97-7.55.14-.31.29-.62.45-.93.08-.15.16-.29.23-.44.1-.2.03-.05,0,0,.07-.12.14-.23.21-.34.37-.58.77-1.14,1.2-1.68.8-1,1.71-1.91,2.71-2.7,1.09-.87,2.32-1.62,3.67-2.01,1.16-.33,2.63-.47,3.64.35,1.05.86,1.08,2.45.77,3.66-.08.3-.18.59-.3.88-.07.18-.18.35-.25.53-.07.21.1-.2.12-.21-.08.03-.2.3-.26.38-.39.56-.85,1.09-1.32,1.58-1.98,2.04-4.36,3.73-6.9,5-2.79,1.39-5.8,2.14-8.79,2.96-2.82.77-5.55,1.75-8.12,3.16-2.44,1.34-4.7,3-6.71,4.93-.51.49-1,1-1.48,1.52-.22.25-.29.64-.51.88,4.12-4.5,9.39-7.62,15.23-9.31,3.17-.92,6.41-1.61,9.41-3.04,2.74-1.3,5.3-3.09,7.4-5.28.93-.97,1.65-2.04,2.29-3.21.62-1.13,1.03-2.47.78-3.77C34.82.68,33.59-.04,32.15,0s-2.86.67-4.06,1.44c-2.26,1.46-4.07,3.53-5.44,5.84-1.38,2.32-2.43,4.76-3.01,7.4-1.4,6.35-.14,12.94,1.88,19.02.26.79.54,1.57.82,2.35-.02-.05.23-.38.26-.44.04-.07.28-.37.25-.44h0Z"></path><path class="cls-1" d="m31.83,34.49c-.95-1.85-1.82-3.74-2.58-5.68s-1.34-3.9-1.46-5.95c-.05-.87,0-1.75.16-2.61.17-.92.51-1.71.85-2.56.11-.28-.32.48-.06.11.07-.1.14-.21.22-.31.13-.18.27-.35.42-.51.3-.33.63-.64,1-.89.7-.48,1.56-.75,2.4-.57.76.17,1.4.67,1.63,1.43.27.88.12,1.93.01,2.82-.11.88-.3,1.76-.57,2.61-.14.45-.31.89-.49,1.32-.07.17-.15.34-.23.51s-.16.32-.24.49c-.15.31.14-.19-.07.12-1.03,1.53-2.25,2.86-3.79,3.88-1.46.97-3.12,1.65-4.84,1.95-3.88.67-8-.73-10.58-3.72.07.08-.59.79-.51.88,2.52,2.92,6.51,4.34,10.32,3.77,3.79-.57,7.12-2.92,9.09-6.18.97-1.61,1.77-3.27,2.19-5.11.22-.96.34-1.94.36-2.93.02-.96-.15-1.92-1.05-2.43-1.75-1-3.61.42-4.61,1.81-1,1.39-1.73,2.99-2,4.68-.37,2.36.11,4.74.86,6.98.82,2.41,1.9,4.74,3.06,7.01-.02-.04.23-.39.26-.44.03-.06.28-.39.25-.44h0Z"></path><path class="cls-1" d="m40.83,23.81c0,1.75-.27,3.49-.8,5.16-.27.86-.61,1.69-1.02,2.49-.04.08-.31.58-.13.27-.12.21-.26.41-.39.62-.24.37-.5.72-.77,1.07-2.07,2.64-4.92,4.65-8.12,5.69-6.65,2.17-14.13-.07-18.52-5.51-2.14-2.66-3.45-5.95-3.71-9.35-.13-1.76,0-3.54.41-5.25.2-.85.47-1.68.8-2.49.15-.38.32-.75.5-1.11.05-.1.1-.2.15-.3.03-.05.21-.38.03-.07.12-.21.26-.41.39-.62,3.88-5.84,11.16-8.73,17.99-7.15,6.7,1.54,11.94,7.19,12.97,13.98.13.86.19,1.72.2,2.59,0-.1.2-.34.26-.44.06-.11.25-.32.25-.44-.01-3.62-1.16-7.17-3.31-10.09s-5.07-4.99-8.42-6.09-7.29-1.1-10.75.07c-3.32,1.13-6.25,3.31-8.31,6.15-2.02,2.8-3.41,6.07-3.67,9.53-.27,3.61.62,7.27,2.54,10.33,1.86,2.97,4.64,5.32,7.87,6.67,3.37,1.4,7.17,1.68,10.71.79,3.41-.86,6.52-2.8,8.8-5.49,2.19-2.58,3.8-5.84,4.33-9.18.14-.89.21-1.8.21-2.7,0,.11-.2.34-.26.44-.06.11-.25.32-.25.44Z"></path></g></svg> 