<?xml version="1.0" encoding="UTF-8"?>
<svg xmlns="http://www.w3.org/2000/svg" width="117.25mm" height="25.09mm" viewBox="0 0 332.36 71.13"> <defs> <style>.cls-1{fill:#231f20;}</style> </defs> <title>Ресурс 1</title> <g id="Слой_2" data-name="Слой 2"> <g id="Layer_1" data-name="Layer 1"> <path class="cls-1" d="M15.16,70.75H0v-.52c2.08-.11,2.45-.55,2.45-2.63V55.78c0-2.11-.25-2.49-2.45-2.66V52.6H8v.52c-2.31.14-2.64.5-2.64,2.61V68.45c0,1,.47,1.23,2.53,1.23h2c2.29,0,3.81-.49,4.77-1.67a10.7,10.7,0,0,0,1.18-2h.73Z"/> <path class="cls-1" d="M33.43,56.06c-2,.18-2.21.73-2.21,2.9v5.83C31.22,67,31,68.24,30,69.4a6.09,6.09,0,0,1-4.74,1.67,6.57,6.57,0,0,1-4-1c-1.29-.94-1.9-2.54-1.9-5V58c0-1.53-.26-1.78-2.12-1.92v-.43h6.65v.43c-1.88.16-2.14.44-2.14,2.15v7.13c0,1.78.1,2.8,1,3.7a4.21,4.21,0,0,0,3,1,4.79,4.79,0,0,0,3.57-1.34c.77-.92.87-1.83.87-3.68V59c0-2.35-.31-2.85-2.21-3v-.43h5.45Z"/> <path class="cls-1" d="M43.41,70.75v-.43l.61,0c.75,0,1.17-.25,1.17-.66A5.91,5.91,0,0,0,44,67.37l-2.23-3.22L39,67.55c-.87,1-1.25,1.69-1.25,2s.43.64,1.79.74v.43H34.06v-.43c1.22-.12,1.6-.39,3.41-2.61l3.66-4.45-2.49-3.54c-2.25-3.22-2.75-3.5-4.3-3.66v-.43h7.07v.43l-.68,0c-.66,0-1.08.14-1.08.67s.7,1.53,2,3.31l1,1.46,2.63-3.2c.7-.84.94-1.18.94-1.53,0-.52-.33-.68-1.6-.73v-.43h5.57v.43c-1.51.09-2.09.48-3.57,2.26l-3.36,4,4.51,6.25c.91,1.28,1.36,1.56,2.6,1.7v.43Z"/> <path class="cls-1" d="M67.33,56.06c-2,.18-2.21.73-2.21,2.9v5.83c0,2.21-.21,3.45-1.27,4.61a6.09,6.09,0,0,1-4.74,1.67,6.57,6.57,0,0,1-4-1c-1.29-.94-1.9-2.54-1.9-5V58c0-1.53-.26-1.78-2.11-1.92v-.43h6.64v.43c-1.88.16-2.14.44-2.14,2.15v7.13c0,1.78.1,2.8,1,3.7a4.21,4.21,0,0,0,3,1,4.79,4.79,0,0,0,3.57-1.34c.77-.92.87-1.83.87-3.68V59c0-2.35-.31-2.85-2.21-3v-.43h5.45Z"/> <path class="cls-1" d="M79.42,70.75l-5.59-7-1.31,0v4.43c0,1.74.28,2,2.09,2.13v.43H68.13v-.43c1.76-.14,2-.39,2-2.4V58.16c0-1.69-.19-2-2-2.1v-.43h6.38A8,8,0,0,1,79.42,57a3.6,3.6,0,0,1,1.15,2.75c0,2-1.31,3.31-4.25,3.74L81,69.24a2.57,2.57,0,0,0,2.2,1.08v.43Zm-6.9-7.84c2.25,0,3.07-.2,4.15-.77A2.87,2.87,0,0,0,78,59.53c0-2.05-1.38-3.06-4.3-3.06-.79,0-1.19.16-1.19,1Z"/> <path class="cls-1" d="M98.48,56.06c-1.38.12-1.92.6-3.24,2.56l-3.47,5.21v4.38c0,1.79.44,2,2.42,2.11v.43H87v-.43c2.09-.14,2.37-.35,2.37-2.38V64L86.3,59.65c-2.16-3.09-2.68-3.54-3.81-3.59v-.43h6.56v.43l-.57,0c-.75,0-1.1.23-1.1.6a2.05,2.05,0,0,0,.42,1.07l3.43,5,3.4-5.07a1.75,1.75,0,0,0,.33-1c0-.5-.37-.69-1.59-.71v-.43h5.11Z"/> <path class="cls-1" d="M105.31,70.75v-.52c2.36-.08,2.73-.41,2.73-2.55v-12c0-2.16-.34-2.38-2.73-2.52V52.6h8.36v.52c-2.36.11-2.76.44-2.76,2.52v12c0,2,.45,2.47,2.76,2.55v.52Z"/> <path class="cls-1" d="M127.89,70.75v-.43c1.86-.12,2.11-.48,2.11-2.38V57.68l-6,13.07h-.33l-5.92-12.54V67.3c0,2.51.38,2.92,2.19,3v.43h-5.5v-.43c2-.14,2.28-.46,2.28-3V58.21c0-1.74-.31-2-2.23-2.15v-.43h4.65l5.42,11.46,5.19-11.46h4.67v.43c-1.69,0-2,.41-2,2.13v10c0,1.62.35,2,2.07,2.13v.43Z"/> <path class="cls-1" d="M148.76,70.75v-.43c1.86-.12,2.12-.48,2.12-2.38V57.68l-6,13.07h-.33l-5.92-12.54V67.3c0,2.51.38,2.92,2.19,3v.43h-5.5v-.43c1.95-.14,2.28-.46,2.28-3V58.21c0-1.74-.3-2-2.23-2.15v-.43H140l5.42,11.46,5.19-11.46h4.67v.43c-1.69,0-2,.41-2,2.13v10c0,1.62.35,2,2.07,2.13v.43Z"/> <path class="cls-1" d="M164.4,71.07c-4.56,0-7.68-3.2-7.68-7.95s3.1-7.81,7.68-7.81,7.68,3.36,7.68,7.88C172.08,67.89,168.91,71.07,164.4,71.07Zm2.86-13.87a4.46,4.46,0,0,0-2.88-1.07A4.38,4.38,0,0,0,161,57.66a8.85,8.85,0,0,0-1.62,5.51c0,2.71.68,4.77,2.11,6a4.68,4.68,0,0,0,5.94-.07c1.29-1.21,2-3.36,2-6.1S168.6,58.3,167.26,57.2Z"/> <path class="cls-1" d="M182.78,62.8a4.93,4.93,0,0,1,2.87,1.26,3.47,3.47,0,0,1,1.15,2.62c0,2.54-2.21,4.07-5.62,4.07h-7.91v-.43c1.86,0,2.26-.42,2.26-2.15v-10c0-1.81-.36-2-2.26-2.13v-.43h6.58c4.06,0,6.15,1.39,6.15,3.81a3.26,3.26,0,0,1-1,2.38,4.75,4.75,0,0,1-2.26,1Zm-2.7-.41c2.37,0,3.52-.94,3.52-2.83s-1.36-3.09-4.15-3.09h-1c-.4,0-.57.21-.57.73v5.19Zm-2.16,6.49c0,.77.38,1,1.46,1,2,0,2.79-.09,3.82-1a2.84,2.84,0,0,0,.9-2.26A2.67,2.67,0,0,0,183,64.22c-1.41-.92-2.3-.83-5.07-.92Z"/> <path class="cls-1" d="M189,70.75v-.43c2-.07,2.27-.35,2.27-2.13v-10c0-1.8-.28-2-2.27-2.1v-.43h7v.43c-2,.09-2.3.37-2.3,2.1v10c0,1.71.37,2.06,2.3,2.13v.43Z"/> <path class="cls-1" d="M209.26,70.75H196.63v-.43c1.74-.1,2.05-.46,2.05-2.2V58.28c0-1.76-.22-2.08-2.05-2.22v-.43h6.65v.43c-1.93.12-2.21.41-2.21,2.17v10.6c0,.87.4,1,2.11,1h1.65c1.9,0,3.17-.41,4-1.4a8.25,8.25,0,0,0,1-1.69h.61Z"/> <path class="cls-1" d="M211.12,70.75v-.43c2-.07,2.28-.35,2.28-2.13v-10c0-1.8-.29-2-2.28-2.1v-.43h7v.43c-2,.09-2.3.37-2.3,2.1v10c0,1.71.38,2.06,2.3,2.13v.43Z"/> <path class="cls-1" d="M231.45,70.75H218.8v-.43c1.8-.12,2-.42,2-2.18v-10c0-1.69-.28-2-2-2.13v-.43h12.44l.09,3.26h-.58c-.36-2-.9-2.39-3.62-2.39h-3.08c-.65,0-.82.09-.82.82v5h3.55c2,0,2.37-.39,2.65-2.19H230v5.34h-.54c-.28-1.91-.63-2.21-2.65-2.21h-3.55v5.55c0,1,.64,1.07,2.37,1.07h.85c3.36,0,4.37-.59,5.42-3h.66Z"/> <path class="cls-1" d="M249.46,56.06c-.89.09-1.25.16-1.55.41s-.68.89-.68,2.7V71h-.43L236.45,58.46v8.86c0,2.36.38,2.74,2.18,3v.43h-5.49v-.43c1.93-.21,2.28-.55,2.28-3v-10a2.42,2.42,0,0,0-2.28-1.21v-.43h4l9.06,11V58.89c0-1.16-.09-1.85-.44-2.23s-.82-.48-1.86-.6v-.43h5.57Z"/> <path class="cls-1" d="M275.66,61.54c-1.64.14-2,.41-2,2.19v5.48c-1.55,1.24-4.25,1.92-7.15,1.92a10.8,10.8,0,0,1-7.61-2.93,8.73,8.73,0,0,1-2.34-6.41,9.4,9.4,0,0,1,3-7.21,9.89,9.89,0,0,1,6.73-2.36,10.88,10.88,0,0,1,3.75.63,4,4,0,0,0,1.24.27,1.31,1.31,0,0,0,1.26-.9h.62l.23,5.78h-.65a8,8,0,0,0-2-3.18,6,6,0,0,0-4.11-1.51,6.4,6.4,0,0,0-4.71,1.9c-1.49,1.45-2.17,3.94-2.17,6.66,0,5.1,3,8.17,7.41,8.17,2.17,0,3.75-.77,3.75-1.68v-4.3c0-2.14-.28-2.36-2.51-2.52V61h7.22Z"/> <path class="cls-1" d="M289.73,70.75v-.43c1.86-.12,2.11-.48,2.11-2.38V57.68l-6,13.07h-.33l-5.92-12.54V67.3c0,2.51.38,2.92,2.19,3v.43h-5.5v-.43c1.95-.14,2.28-.46,2.28-3V58.21c0-1.74-.31-2-2.23-2.15v-.43H281l5.42,11.46,5.19-11.46h4.67v.43c-1.69,0-2,.41-2,2.13v10c0,1.62.35,2,2.06,2.13v.43Z"/> <path class="cls-1" d="M306.8,62.8a4.86,4.86,0,0,1,2.86,1.26,3.47,3.47,0,0,1,1.15,2.62c0,2.54-2.2,4.07-5.61,4.07h-7.91v-.43c1.86,0,2.25-.42,2.25-2.15v-10c0-1.81-.35-2-2.25-2.13v-.43h6.57c4.07,0,6.16,1.39,6.16,3.81a3.23,3.23,0,0,1-1,2.38,4.66,4.66,0,0,1-2.25,1Zm-2.7-.41c2.37,0,3.52-.94,3.52-2.83s-1.36-3.09-4.15-3.09h-1c-.4,0-.56.21-.56.73v5.19Zm-2.16,6.49c0,.77.37,1,1.45,1,2,0,2.8-.09,3.83-1a2.84,2.84,0,0,0,.89-2.26,2.66,2.66,0,0,0-1.1-2.44c-1.41-.92-2.3-.83-5.07-.92Z"/> <path class="cls-1" d="M324.5,70.75v-.52c2.2-.14,2.48-.58,2.48-2.88V62.11h-8.54v5.54c0,2,.37,2.47,2.45,2.58l0,.52h-7.86v-.52c2.2-.14,2.51-.47,2.51-2.83V55.73c0-2.14-.34-2.44-2.51-2.61V52.6H321v.52c-2.06.17-2.51.47-2.51,2.61v5.18H327V55.73c0-2.17-.37-2.44-2.51-2.61V52.6h7.89v.52c-2.09.17-2.51.5-2.51,2.61v12c0,1.94.4,2.35,2.51,2.52v.52Z"/> <rect class="cls-1" x="247.03" y="45.24" width="37.07" height="0.64"/> <rect class="cls-1" x="47.24" y="45.24" width="37.07" height="0.64"/> <rect class="cls-1" x="147.12" y="48.06" width="37.07" height="0.64"/> <rect class="cls-1" x="154.36" y="50.27" width="22.6" height="0.64"/> <rect class="cls-1" x="145.07" y="26.24" width="2.41" height="7.54"/> <rect class="cls-1" x="141.38" y="26.24" width="2.41" height="7.54"/> <rect class="cls-1" x="137.34" y="26.24" width="2.41" height="7.54"/> <rect class="cls-1" x="145.07" y="22.19" width="2.41" height="2.54"/> <rect class="cls-1" x="141.38" y="22.19" width="2.41" height="2.54"/> <rect class="cls-1" x="137.34" y="22.19" width="2.41" height="2.54"/> <rect class="cls-1" x="145.07" y="15.86" width="2.41" height="5.3"/> <rect class="cls-1" x="148.72" y="26.24" width="2.41" height="7.54"/> <rect class="cls-1" x="148.72" y="22.19" width="2.41" height="2.54"/> <rect class="cls-1" x="148.72" y="15.86" width="2.41" height="5.3"/> <rect class="cls-1" x="153.29" y="15.86" width="1.72" height="5.3"/> <path class="cls-1" d="M155.35,34.27H153V27.4s.34-1.95,1.2-1.95,1.2,1.95,1.2,1.95Z"/> <rect class="cls-1" x="141.38" y="15.86" width="2.41" height="5.3"/> <rect class="cls-1" x="137.34" y="15.86" width="2.41" height="5.3"/> <polygon class="cls-1" points="147.48 40.75 145.07 43.34 145.07 36.43 147.48 36.43 147.48 40.75"/> <polygon class="cls-1" points="151.13 37.01 148.72 39.6 148.72 36.43 151.13 36.43 151.13 37.01"/> <polygon class="cls-1" points="147.48 42.59 145.07 44.91 145.07 45.46 147.48 45.46 147.48 42.59"/> <polygon class="cls-1" points="151.13 39.14 148.72 41.69 148.72 45.46 151.13 45.46 151.13 39.14"/> <rect class="cls-1" x="141.38" y="36.43" width="2.41" height="9.03"/> <rect class="cls-1" x="137.34" y="36.43" width="2.41" height="9.03"/> <path class="cls-1" d="M136.38,46.44h-2.22V14.25h2.22Zm-1.65-.56h1.08V14.81h-1.08Z"/> <path class="cls-1" d="M106.15,33.77h-2.41V27.52s.56-1.28,1.27-1.28,1.14,1.28,1.14,1.28Z"/> <rect class="cls-1" x="103.83" y="36.43" width="2.41" height="9.03"/> <rect class="cls-1" x="103.83" y="15.86" width="2.41" height="5.3"/> <rect class="cls-1" x="103.83" y="22.19" width="2.41" height="2.65"/> <path class="cls-1" d="M108,46.44h-6V14.25h6Zm-5.41-.56h4.85V14.81h-4.85Z"/> <rect class="cls-1" x="85.76" y="26.24" width="2.41" height="7.54"/> <rect class="cls-1" x="85.84" y="36.43" width="2.41" height="9.03"/> <rect class="cls-1" x="85.84" y="15.86" width="2.41" height="5.3"/> <rect class="cls-1" x="85.84" y="22.19" width="2.41" height="2.65"/> <path class="cls-1" d="M90,46.44H84V14.25h6Zm-5.42-.56h4.86V14.81H84.59Z"/> <path class="cls-1" d="M152.51,46.44h-16.7V14.25h16.7Zm-16.13-.56h15.56V14.81H136.38Z"/> <path class="cls-1" d="M156.36,36.16h-4.42V14.25h4.42Zm-3.85-.56h3.29V14.81h-3.29Z"/> <rect class="cls-1" x="153.29" y="38.98" width="1.72" height="6.48"/> <path class="cls-1" d="M156.36,46.44h-4.42V37.36h4.42Zm-3.85-.56h3.29v-8h-3.29Z"/> <rect class="cls-1" x="157.15" y="38.98" width="1.72" height="6.48"/> <path class="cls-1" d="M160.22,46.44H155.8V37.36h4.42Zm-3.86-.56h3.3v-8h-3.3Z"/> <rect class="cls-1" x="161.01" y="38.98" width="1.72" height="6.48"/> <path class="cls-1" d="M164.08,46.44h-4.42V37.36h4.42Zm-3.86-.56h3.29v-8h-3.29Z"/> <rect class="cls-1" x="164.87" y="38.98" width="1.72" height="6.48"/> <path class="cls-1" d="M167.93,46.44h-4.42V37.36h4.42Zm-3.85-.56h3.29v-8h-3.29Z"/> <rect class="cls-1" x="168.72" y="38.98" width="1.72" height="6.48"/> <path class="cls-1" d="M171.79,46.44h-4.42V37.36h4.42Zm-3.86-.56h3.3v-8h-3.3Z"/> <rect class="cls-1" x="172.58" y="38.98" width="1.72" height="6.48"/> <path class="cls-1" d="M175.65,46.44h-4.42V37.36h4.42Zm-3.86-.56h3.3v-8h-3.3Z"/> <rect class="cls-1" x="176.44" y="38.98" width="1.72" height="6.48"/> <path class="cls-1" d="M179.51,46.44h-4.42V37.36h4.42Zm-3.86-.56h3.29v-8h-3.29Z"/> <rect class="cls-1" x="157.15" y="15.86" width="1.72" height="5.3"/> <path class="cls-1" d="M159.21,34.27h-2.4V27.4s.34-1.95,1.2-1.95,1.2,1.95,1.2,1.95Z"/> <path class="cls-1" d="M160.22,36.16H155.8V14.25h4.42Zm-3.86-.56h3.3V14.81h-3.3Z"/> <rect class="cls-1" x="161.01" y="15.86" width="1.72" height="5.3"/> <path class="cls-1" d="M163.07,34.27h-2.4V27.4s.34-1.95,1.2-1.95,1.2,1.95,1.2,1.95Z"/> <path class="cls-1" d="M164.08,36.16h-4.42V14.25h4.42Zm-3.86-.56h3.29V14.81h-3.29Z"/> <rect class="cls-1" x="164.87" y="15.86" width="1.72" height="5.3"/> <path class="cls-1" d="M166.92,34.27h-2.39V27.4s.34-1.95,1.19-1.95,1.2,1.95,1.2,1.95Z"/> <path class="cls-1" d="M167.93,36.16h-4.42V14.25h4.42Zm-3.85-.56h3.29V14.81h-3.29Z"/> <rect class="cls-1" x="168.72" y="15.86" width="1.72" height="5.3"/> <path class="cls-1" d="M170.78,34.27h-2.4V27.4s.34-1.95,1.2-1.95,1.2,1.95,1.2,1.95Z"/> <path class="cls-1" d="M171.79,36.16h-4.42V14.25h4.42Zm-3.86-.56h3.3V14.81h-3.3Z"/> <rect class="cls-1" x="172.58" y="15.86" width="1.72" height="5.3"/> <path class="cls-1" d="M174.64,34.27h-2.4V27.4s.34-1.95,1.2-1.95,1.2,1.95,1.2,1.95Z"/> <path class="cls-1" d="M175.65,36.16h-4.42V14.25h4.42Zm-3.86-.56h3.3V14.81h-3.3Z"/> <rect class="cls-1" x="176.44" y="15.86" width="1.72" height="5.3"/> <path class="cls-1" d="M178.5,34.27h-2.4V27.4s.34-1.95,1.2-1.95,1.2,1.95,1.2,1.95Z"/> <path class="cls-1" d="M155.35,13.78H153V8.72s.34-2,1.2-2,1.2,2,1.2,2Z"/> <path class="cls-1" d="M159.21,13.78h-2.4V8.72s.34-2,1.2-2,1.2,2,1.2,2Z"/> <path class="cls-1" d="M163.07,13.78h-2.4V8.72s.34-2,1.2-2,1.2,2,1.2,2Z"/> <path class="cls-1" d="M166.92,13.78h-2.39V8.72s.34-2,1.19-2,1.2,2,1.2,2Z"/> <path class="cls-1" d="M170.78,13.78h-2.4V8.72s.34-2,1.2-2,1.2,2,1.2,2Z"/> <path class="cls-1" d="M174.64,13.78h-2.4V8.72s.34-2,1.2-2,1.2,2,1.2,2Z"/> <path class="cls-1" d="M178.5,13.78h-2.4V8.72s.34-2,1.2-2,1.2,2,1.2,2Z"/> <path class="cls-1" d="M179.51,36.16h-4.42V14.25h4.42Zm-3.86-.56h3.29V14.81h-3.29Z"/> <rect class="cls-1" x="183.97" y="26.24" width="2.41" height="7.54" transform="translate(370.35 60.01) rotate(-180)"/> <rect class="cls-1" x="187.66" y="26.24" width="2.41" height="7.54" transform="translate(377.73 60.01) rotate(-180)"/> <rect class="cls-1" x="191.71" y="26.24" width="2.41" height="7.54" transform="translate(385.82 60.01) rotate(-180)"/> <rect class="cls-1" x="183.97" y="22.19" width="2.41" height="2.54" transform="translate(370.35 46.93) rotate(-180)"/> <rect class="cls-1" x="187.66" y="22.19" width="2.41" height="2.54" transform="translate(377.73 46.93) rotate(-180)"/> <rect class="cls-1" x="191.71" y="22.19" width="2.41" height="2.54" transform="translate(385.82 46.93) rotate(-180)"/> <rect class="cls-1" x="183.97" y="15.86" width="2.41" height="5.3" transform="translate(370.35 37.02) rotate(-180)"/> <rect class="cls-1" x="180.32" y="26.24" width="2.41" height="7.54" transform="translate(363.05 60.01) rotate(-180)"/> <rect class="cls-1" x="180.32" y="22.19" width="2.41" height="2.54" transform="translate(363.05 46.93) rotate(-180)"/> <rect class="cls-1" x="180.32" y="15.86" width="2.41" height="5.3" transform="translate(363.05 37.02) rotate(-180)"/> <rect class="cls-1" x="187.66" y="15.86" width="2.41" height="5.3" transform="translate(377.73 37.02) rotate(-180)"/> <rect class="cls-1" x="191.71" y="15.86" width="2.41" height="5.3" transform="translate(385.82 37.02) rotate(-180)"/> <polygon class="cls-1" points="183.97 40.75 186.38 43.34 186.38 36.43 183.97 36.43 183.97 40.75"/> <polygon class="cls-1" points="180.32 37.01 182.73 39.6 182.73 36.43 180.32 36.43 180.32 37.01"/> <polygon class="cls-1" points="183.97 42.59 186.38 44.91 186.38 45.46 183.97 45.46 183.97 42.59"/> <polygon class="cls-1" points="180.32 39.14 182.73 41.69 182.73 45.46 180.32 45.46 180.32 39.14"/> <rect class="cls-1" x="187.66" y="36.43" width="2.41" height="9.03" transform="translate(377.73 81.88) rotate(-180)"/> <rect class="cls-1" x="191.71" y="36.43" width="2.41" height="9.03" transform="translate(385.82 81.88) rotate(-180)"/> <path class="cls-1" d="M197.29,46.44h-2.22V14.25h2.22Zm-1.65-.56h1.08V14.81h-1.08Z"/> <rect class="cls-1" x="123.02" y="26.24" width="2.41" height="7.54" transform="translate(248.45 60.01) rotate(-180)"/> <rect class="cls-1" x="126.89" y="26.24" width="2.41" height="7.54" transform="translate(256.18 60.01) rotate(-180)"/> <rect class="cls-1" x="130.75" y="26.24" width="2.41" height="7.54" transform="translate(263.91 60.01) rotate(-180)"/> <rect class="cls-1" x="123.02" y="22.19" width="2.41" height="2.54" transform="translate(248.45 46.93) rotate(-180)"/> <rect class="cls-1" x="126.89" y="22.19" width="2.41" height="2.54" transform="translate(256.18 46.93) rotate(-180)"/> <rect class="cls-1" x="130.75" y="22.19" width="2.41" height="2.54" transform="translate(263.91 46.93) rotate(-180)"/> <rect class="cls-1" x="123.02" y="15.86" width="2.41" height="5.3" transform="translate(248.45 37.02) rotate(-180)"/> <rect class="cls-1" x="126.89" y="15.86" width="2.41" height="5.3" transform="translate(256.18 37.02) rotate(-180)"/> <rect class="cls-1" x="130.75" y="15.86" width="2.41" height="5.3" transform="translate(263.91 37.02) rotate(-180)"/> <rect class="cls-1" x="123.02" y="36.43" width="2.41" height="9.03" transform="translate(248.45 81.88) rotate(-180)"/> <rect class="cls-1" x="126.89" y="36.43" width="2.41" height="9.03" transform="translate(256.18 81.88) rotate(-180)"/> <rect class="cls-1" x="130.75" y="36.43" width="2.41" height="9.03" transform="translate(263.91 81.88) rotate(-180)"/> <path class="cls-1" d="M134.65,46.44H121.53V14.25h13.12Zm-12.56-.56h12V14.81h-12Z"/> <rect class="cls-1" x="108.91" y="26.24" width="2.41" height="7.54" transform="translate(220.23 60.01) rotate(-180)"/> <rect class="cls-1" x="112.78" y="26.24" width="2.41" height="7.54" transform="translate(227.96 60.01) rotate(-180)"/> <rect class="cls-1" x="116.64" y="26.24" width="2.41" height="7.54" transform="translate(235.69 60.01) rotate(-180)"/> <rect class="cls-1" x="108.91" y="22.19" width="2.41" height="2.54" transform="translate(220.23 46.93) rotate(-180)"/> <rect class="cls-1" x="112.78" y="22.19" width="2.41" height="2.54" transform="translate(227.96 46.93) rotate(-180)"/> <rect class="cls-1" x="116.64" y="22.19" width="2.41" height="2.54" transform="translate(235.69 46.93) rotate(-180)"/> <rect class="cls-1" x="108.91" y="15.86" width="2.41" height="5.3" transform="translate(220.23 37.02) rotate(-180)"/> <rect class="cls-1" x="112.78" y="15.86" width="2.41" height="5.3" transform="translate(227.96 37.02) rotate(-180)"/> <rect class="cls-1" x="116.64" y="15.86" width="2.41" height="5.3" transform="translate(235.69 37.02) rotate(-180)"/> <rect class="cls-1" x="108.91" y="36.43" width="2.41" height="9.03" transform="translate(220.23 81.88) rotate(-180)"/> <rect class="cls-1" x="112.78" y="36.43" width="2.41" height="9.03" transform="translate(227.96 81.88) rotate(-180)"/> <rect class="cls-1" x="116.64" y="36.43" width="2.41" height="9.03" transform="translate(235.69 81.88) rotate(-180)"/> <path class="cls-1" d="M120.54,46.44H107.42V14.25h13.12ZM108,45.88h12V14.81H108Z"/> <rect class="cls-1" x="90.95" y="26.24" width="2.41" height="7.54" transform="translate(184.3 60.01) rotate(-180)"/> <rect class="cls-1" x="94.81" y="26.24" width="2.41" height="7.54" transform="translate(192.04 60.01) rotate(-180)"/> <rect class="cls-1" x="98.68" y="26.24" width="2.41" height="7.54" transform="translate(199.77 60.01) rotate(-180)"/> <rect class="cls-1" x="90.95" y="22.19" width="2.41" height="2.54" transform="translate(184.3 46.93) rotate(-180)"/> <rect class="cls-1" x="94.81" y="22.19" width="2.41" height="2.54" transform="translate(192.04 46.93) rotate(-180)"/> <rect class="cls-1" x="98.68" y="22.19" width="2.41" height="2.54" transform="translate(199.77 46.93) rotate(-180)"/> <rect class="cls-1" x="90.95" y="15.86" width="2.41" height="5.3" transform="translate(184.3 37.02) rotate(-180)"/> <rect class="cls-1" x="94.81" y="15.86" width="2.41" height="5.3" transform="translate(192.04 37.02) rotate(-180)"/> <rect class="cls-1" x="98.68" y="15.86" width="2.41" height="5.3" transform="translate(199.77 37.02) rotate(-180)"/> <rect class="cls-1" x="90.95" y="36.43" width="2.41" height="9.03" transform="translate(184.3 81.88) rotate(-180)"/> <rect class="cls-1" x="94.81" y="36.43" width="2.41" height="9.03" transform="translate(192.04 81.88) rotate(-180)"/> <rect class="cls-1" x="98.68" y="36.43" width="2.41" height="9.03" transform="translate(199.77 81.88) rotate(-180)"/> <path class="cls-1" d="M102.58,46.44H89.46V14.25h13.12ZM90,45.88h12V14.81H90Z"/> <path class="cls-1" d="M225.32,33.77h2.41V27.52s-.56-1.28-1.26-1.28-1.15,1.28-1.15,1.28Z"/> <rect class="cls-1" x="225.24" y="36.43" width="2.41" height="9.03" transform="translate(452.88 81.88) rotate(-180)"/> <rect class="cls-1" x="225.24" y="15.86" width="2.41" height="5.3" transform="translate(452.88 37.02) rotate(-180)"/> <rect class="cls-1" x="225.24" y="22.19" width="2.41" height="2.65" transform="translate(452.88 47.04) rotate(-180)"/> <path class="cls-1" d="M229.45,46.44h-6V14.25h6ZM224,45.88h4.85V14.81H224Z"/> <rect class="cls-1" x="243.31" y="26.24" width="2.41" height="7.54"/> <rect class="cls-1" x="243.22" y="36.43" width="2.41" height="9.03" transform="translate(488.85 81.88) rotate(-180)"/> <rect class="cls-1" x="243.22" y="15.86" width="2.41" height="5.3" transform="translate(488.85 37.02) rotate(-180)"/> <rect class="cls-1" x="243.22" y="22.19" width="2.41" height="2.65" transform="translate(488.85 47.04) rotate(-180)"/> <path class="cls-1" d="M247.44,46.44h-6V14.25h6ZM242,45.88h4.86V14.81H242Z"/> <rect class="cls-1" x="206.04" y="26.24" width="2.41" height="7.54"/> <rect class="cls-1" x="202.18" y="26.24" width="2.41" height="7.54"/> <rect class="cls-1" x="198.31" y="26.24" width="2.41" height="7.54"/> <rect class="cls-1" x="206.04" y="22.19" width="2.41" height="2.54"/> <rect class="cls-1" x="202.18" y="22.19" width="2.41" height="2.54"/> <rect class="cls-1" x="198.31" y="22.19" width="2.41" height="2.54"/> <rect class="cls-1" x="206.04" y="15.86" width="2.41" height="5.3"/> <rect class="cls-1" x="202.18" y="15.86" width="2.41" height="5.3"/> <rect class="cls-1" x="198.31" y="15.86" width="2.41" height="5.3"/> <rect class="cls-1" x="206.04" y="36.43" width="2.41" height="9.03"/> <rect class="cls-1" x="202.18" y="36.43" width="2.41" height="9.03"/> <rect class="cls-1" x="198.31" y="36.43" width="2.41" height="9.03"/> <path class="cls-1" d="M209.94,46.44H196.82V14.25h13.12Zm-12.56-.56h12V14.81h-12Z"/> <rect class="cls-1" x="220.15" y="26.24" width="2.41" height="7.54"/> <rect class="cls-1" x="216.29" y="26.24" width="2.41" height="7.54"/> <rect class="cls-1" x="212.42" y="26.24" width="2.41" height="7.54"/> <rect class="cls-1" x="220.15" y="22.19" width="2.41" height="2.54"/> <rect class="cls-1" x="216.29" y="22.19" width="2.41" height="2.54"/> <rect class="cls-1" x="212.42" y="22.19" width="2.41" height="2.54"/> <rect class="cls-1" x="220.15" y="15.86" width="2.41" height="5.3"/> <rect class="cls-1" x="216.29" y="15.86" width="2.41" height="5.3"/> <rect class="cls-1" x="212.42" y="15.86" width="2.41" height="5.3"/> <rect class="cls-1" x="220.15" y="36.43" width="2.41" height="9.03"/> <rect class="cls-1" x="216.29" y="36.43" width="2.41" height="9.03"/> <rect class="cls-1" x="212.42" y="36.43" width="2.41" height="9.03"/> <path class="cls-1" d="M224.05,46.44H210.93V14.25h13.12Zm-12.56-.56h12V14.81h-12Z"/> <rect class="cls-1" x="238.12" y="26.24" width="2.41" height="7.54"/> <rect class="cls-1" x="234.25" y="26.24" width="2.41" height="7.54"/> <rect class="cls-1" x="230.38" y="26.24" width="2.41" height="7.54"/> <rect class="cls-1" x="238.12" y="22.19" width="2.41" height="2.54"/> <rect class="cls-1" x="234.25" y="22.19" width="2.41" height="2.54"/> <rect class="cls-1" x="230.38" y="22.19" width="2.41" height="2.54"/> <rect class="cls-1" x="238.12" y="15.86" width="2.41" height="5.3"/> <rect class="cls-1" x="234.25" y="15.86" width="2.41" height="5.3"/> <rect class="cls-1" x="230.38" y="15.86" width="2.41" height="5.3"/> <rect class="cls-1" x="238.12" y="36.43" width="2.41" height="9.03"/> <rect class="cls-1" x="234.25" y="36.43" width="2.41" height="9.03"/> <rect class="cls-1" x="230.38" y="36.43" width="2.41" height="9.03"/> <path class="cls-1" d="M242,46.44H228.89V14.25H242Zm-12.56-.56h12V14.81h-12Z"/> <path class="cls-1" d="M195.64,46.44h-16.7V14.25h16.7Zm-16.13-.56h15.56V14.81H179.51Z"/> <polygon class="cls-1" points="179.98 11.62 179.42 11.62 179.42 6.25 152.11 6.25 152.11 11.62 151.55 11.62 151.55 5.69 179.98 5.69 179.98 11.62"/> <path class="cls-1" d="M180.92,6.25H150.61V3.14h30.31Zm-29.75-.56h29.19v-2H151.17Z"/> <rect class="cls-1" x="151.89" y="3.42" width="0.56" height="2.55"/> <rect class="cls-1" x="153.33" y="3.42" width="0.56" height="2.55"/> <rect class="cls-1" x="154.77" y="3.42" width="0.56" height="2.55"/> <rect class="cls-1" x="156.2" y="3.42" width="0.56" height="2.55"/> <rect class="cls-1" x="157.64" y="3.42" width="0.56" height="2.55"/> <rect class="cls-1" x="159.08" y="3.42" width="0.56" height="2.55"/> <rect class="cls-1" x="160.51" y="3.42" width="0.56" height="2.55"/> <rect class="cls-1" x="161.95" y="3.42" width="0.56" height="2.55"/> <rect class="cls-1" x="163.39" y="3.42" width="0.56" height="2.55"/> <rect class="cls-1" x="164.82" y="3.42" width="0.56" height="2.55"/> <rect class="cls-1" x="166.26" y="3.42" width="0.56" height="2.55"/> <rect class="cls-1" x="167.7" y="3.42" width="0.56" height="2.55"/> <rect class="cls-1" x="169.13" y="3.42" width="0.56" height="2.55"/> <rect class="cls-1" x="170.57" y="3.42" width="0.56" height="2.55"/> <rect class="cls-1" x="172.01" y="3.42" width="0.56" height="2.55"/> <rect class="cls-1" x="173.45" y="3.42" width="0.56" height="2.55"/> <rect class="cls-1" x="174.88" y="3.42" width="0.56" height="2.55"/> <rect class="cls-1" x="176.32" y="3.42" width="0.56" height="2.55"/> <rect class="cls-1" x="177.76" y="3.42" width="0.56" height="2.55"/> <rect class="cls-1" x="179.19" y="3.42" width="0.56" height="2.55"/> <path class="cls-1" d="M247.44,14.81h-68.5V11.34h68.5Zm-67.93-.56h67.37V11.91H179.51Z"/> <rect class="cls-1" x="245.74" y="11.62" width="0.56" height="2.9"/> <rect class="cls-1" x="244.26" y="11.62" width="0.56" height="2.9"/> <rect class="cls-1" x="242.77" y="11.62" width="0.56" height="2.9"/> <rect class="cls-1" x="241.29" y="11.62" width="0.56" height="2.9"/> <rect class="cls-1" x="239.8" y="11.62" width="0.56" height="2.9"/> <rect class="cls-1" x="238.32" y="11.62" width="0.56" height="2.9"/> <rect class="cls-1" x="236.83" y="11.62" width="0.56" height="2.9"/> <rect class="cls-1" x="235.34" y="11.62" width="0.56" height="2.9"/> <rect class="cls-1" x="233.86" y="11.62" width="0.56" height="2.9"/> <rect class="cls-1" x="232.37" y="11.62" width="0.56" height="2.9"/> <rect class="cls-1" x="230.89" y="11.62" width="0.56" height="2.9"/> <rect class="cls-1" x="229.4" y="11.62" width="0.56" height="2.9"/> <rect class="cls-1" x="227.92" y="11.62" width="0.56" height="2.9"/> <rect class="cls-1" x="226.43" y="11.62" width="0.56" height="2.9"/> <rect class="cls-1" x="224.95" y="11.62" width="0.56" height="2.9"/> <rect class="cls-1" x="223.46" y="11.62" width="0.56" height="2.9"/> <rect class="cls-1" x="221.98" y="11.62" width="0.56" height="2.9"/> <rect class="cls-1" x="220.49" y="11.62" width="0.56" height="2.9"/> <rect class="cls-1" x="219.01" y="11.62" width="0.56" height="2.9"/> <rect class="cls-1" x="217.52" y="11.62" width="0.56" height="2.9"/> <rect class="cls-1" x="216.04" y="11.62" width="0.56" height="2.9"/> <rect class="cls-1" x="214.55" y="11.62" width="0.56" height="2.9"/> <rect class="cls-1" x="213.06" y="11.62" width="0.56" height="2.9"/> <rect class="cls-1" x="211.58" y="11.62" width="0.56" height="2.9"/> <rect class="cls-1" x="210.09" y="11.62" width="0.56" height="2.9"/> <rect class="cls-1" x="208.61" y="11.62" width="0.56" height="2.9"/> <rect class="cls-1" x="207.12" y="11.62" width="0.56" height="2.9"/> <rect class="cls-1" x="205.61" y="11.62" width="0.56" height="2.9"/> <rect class="cls-1" x="204.1" y="11.62" width="0.56" height="2.9"/> <rect class="cls-1" x="202.6" y="11.62" width="0.56" height="2.9"/> <rect class="cls-1" x="201.09" y="11.62" width="0.56" height="2.9"/> <rect class="cls-1" x="199.58" y="11.62" width="0.56" height="2.9"/> <rect class="cls-1" x="198.07" y="11.62" width="0.56" height="2.9"/> <rect class="cls-1" x="196.56" y="11.62" width="0.56" height="2.9"/> <rect class="cls-1" x="195.05" y="11.62" width="0.56" height="2.9"/> <rect class="cls-1" x="193.54" y="11.62" width="0.56" height="2.9"/> <rect class="cls-1" x="192.03" y="11.62" width="0.56" height="2.9"/> <rect class="cls-1" x="190.52" y="11.62" width="0.56" height="2.9"/> <rect class="cls-1" x="189.01" y="11.62" width="0.56" height="2.9"/> <rect class="cls-1" x="187.5" y="11.62" width="0.56" height="2.9"/> <rect class="cls-1" x="185.99" y="11.62" width="0.56" height="2.9"/> <rect class="cls-1" x="184.48" y="11.62" width="0.56" height="2.9"/> <rect class="cls-1" x="182.97" y="11.62" width="0.56" height="2.9"/> <rect class="cls-1" x="181.46" y="11.62" width="0.56" height="2.9"/> <rect class="cls-1" x="180.06" y="11.62" width="0.56" height="2.9"/> <polygon class="cls-1" points="245.16 11.62 240.81 6.77 179.7 6.77 179.7 11.62 245.16 11.62"/> <path class="cls-1" d="M245.79,11.91H179.42V6.49h61.51ZM180,11.34h64.55l-3.85-4.29H180Z"/> <path class="cls-1" d="M152.69,14.81H84V11.34h68.66Zm-68.1-.56h67.53V11.91H84.59Z"/> <rect class="cls-1" x="85.33" y="11.62" width="0.56" height="2.9"/> <rect class="cls-1" x="86.81" y="11.62" width="0.56" height="2.9"/> <rect class="cls-1" x="88.3" y="11.62" width="0.56" height="2.9"/> <rect class="cls-1" x="89.78" y="11.62" width="0.56" height="2.9"/> <rect class="cls-1" x="91.27" y="11.62" width="0.56" height="2.9"/> <rect class="cls-1" x="92.75" y="11.62" width="0.56" height="2.9"/> <rect class="cls-1" x="94.24" y="11.62" width="0.56" height="2.9"/> <rect class="cls-1" x="95.72" y="11.62" width="0.56" height="2.9"/> <rect class="cls-1" x="97.21" y="11.62" width="0.56" height="2.9"/> <rect class="cls-1" x="98.69" y="11.62" width="0.56" height="2.9"/> <rect class="cls-1" x="100.18" y="11.62" width="0.56" height="2.9"/> <rect class="cls-1" x="101.66" y="11.62" width="0.56" height="2.9"/> <rect class="cls-1" x="103.15" y="11.62" width="0.56" height="2.9"/> <rect class="cls-1" x="104.64" y="11.62" width="0.56" height="2.9"/> <rect class="cls-1" x="106.12" y="11.62" width="0.56" height="2.9"/> <rect class="cls-1" x="107.61" y="11.62" width="0.56" height="2.9"/> <rect class="cls-1" x="109.09" y="11.62" width="0.56" height="2.9"/> <rect class="cls-1" x="110.58" y="11.62" width="0.56" height="2.9"/> <rect class="cls-1" x="112.06" y="11.62" width="0.56" height="2.9"/> <rect class="cls-1" x="113.55" y="11.62" width="0.56" height="2.9"/> <rect class="cls-1" x="115.03" y="11.62" width="0.56" height="2.9"/> <rect class="cls-1" x="116.52" y="11.62" width="0.56" height="2.9"/> <rect class="cls-1" x="118" y="11.62" width="0.56" height="2.9"/> <rect class="cls-1" x="119.49" y="11.62" width="0.56" height="2.9"/> <rect class="cls-1" x="120.97" y="11.62" width="0.56" height="2.9"/> <rect class="cls-1" x="122.46" y="11.62" width="0.56" height="2.9"/> <rect class="cls-1" x="123.94" y="11.62" width="0.56" height="2.9"/> <rect class="cls-1" x="125.45" y="11.62" width="0.56" height="2.9"/> <rect class="cls-1" x="126.96" y="11.62" width="0.56" height="2.9"/> <rect class="cls-1" x="128.47" y="11.62" width="0.56" height="2.9"/> <rect class="cls-1" x="129.98" y="11.62" width="0.56" height="2.9"/> <rect class="cls-1" x="131.49" y="11.62" width="0.56" height="2.9"/> <rect class="cls-1" x="133" y="11.62" width="0.56" height="2.9"/> <rect class="cls-1" x="134.51" y="11.62" width="0.56" height="2.9"/> <rect class="cls-1" x="136.02" y="11.62" width="0.56" height="2.9"/> <rect class="cls-1" x="137.53" y="11.62" width="0.56" height="2.9"/> <rect class="cls-1" x="139.04" y="11.62" width="0.56" height="2.9"/> <rect class="cls-1" x="140.55" y="11.62" width="0.56" height="2.9"/> <rect class="cls-1" x="142.06" y="11.62" width="0.56" height="2.9"/> <rect class="cls-1" x="143.57" y="11.62" width="0.56" height="2.9"/> <rect class="cls-1" x="145.08" y="11.62" width="0.56" height="2.9"/> <rect class="cls-1" x="146.58" y="11.62" width="0.56" height="2.9"/> <rect class="cls-1" x="148.09" y="11.62" width="0.56" height="2.9"/> <rect class="cls-1" x="149.6" y="11.62" width="0.56" height="2.9"/> <rect class="cls-1" x="151.01" y="11.62" width="0.56" height="2.9"/> <polygon class="cls-1" points="151.93 6.77 90.82 6.77 86.47 11.62 151.83 11.62 151.93 6.77"/> <path class="cls-1" d="M152.11,11.91H85.84L90.7,6.49h61.52Zm-65-.57h64.46l.08-4.29H91Z"/> <polyline class="cls-1" points="160.11 3.42 163.8 2.13 167.65 2.13 171.77 3.42"/> <polygon class="cls-1" points="171.69 3.69 167.61 2.41 163.84 2.41 160.21 3.69 160.02 3.16 163.8 1.84 167.74 1.86 171.85 3.15 171.69 3.69"/> <rect class="cls-1" x="164.87" y="0.28" width="1.72" height="1.72"/> <path class="cls-1" d="M166.87,2.28h-2.29V0h2.29Zm-1.72-.56h1.15V.56h-1.15Z"/> </g> </g> </svg>