<?xml version="1.0" encoding="UTF-8"?> <!-- Generator: Adobe Illustrator 24.1.1, SVG Export Plug-In . SVG Version: 6.00 Build 0) --> <svg xmlns="http://www.w3.org/2000/svg" xmlns:xlink="http://www.w3.org/1999/xlink" version="1.1" id="Layer_3" x="0px" y="0px" viewBox="0 0 512 512" style="enable-background:new 0 0 512 512;" xml:space="preserve"> <style type="text/css"> .st0{fill:#48a427;} </style> <g> <path class="st0" d="M480,56h-16v-8c0-13.2-10.8-24-24-24h-88c0-8.8-7.2-16-16-16H176c-8.8,0-16,7.2-16,16H72 c-13.2,0-24,10.8-24,24v8H32C18.8,56,8,66.8,8,80v48v40c0,14.9,10.2,27.3,24,30.9V440c-13.2,0-24,10.8-24,24v32c0,4.4,3.6,8,8,8 h480c4.4,0,8-3.6,8-8v-32c0-13.2-10.8-24-24-24V198.9c13.8-3.6,24-16,24-30.9v-40V80C504,66.8,493.2,56,480,56z M440,40 c4.4,0,8,3.6,8,8v8h-96V40H440z M176,24h160l0,64H176V24z M64,48c0-4.4,3.6-8,8-8h88v16H64V48z M32,72h128v16c0,8.8,7.2,16,16,16 h160c8.8,0,16-7.2,16-16V72h128c4.4,0,8,3.6,8,8v40h-40h-48h-48h-48h-48h-48h-48h-48H64H24V80C24,75.6,27.6,72,32,72z M408,136h32 v32c0,8.8-7.2,16-16,16s-16-7.2-16-16V136z M360,136h32v32c0,8.8-7.2,16-16,16s-16-7.2-16-16V136z M312,136h32v32 c0,8.8-7.2,16-16,16s-16-7.2-16-16V136z M264,136h32v32c0,8.8-7.2,16-16,16s-16-7.2-16-16V136z M216,136h32v32c0,8.8-7.2,16-16,16 s-16-7.2-16-16V136z M168,136h32v32c0,8.8-7.2,16-16,16s-16-7.2-16-16V136z M120,136h32v32c0,8.8-7.2,16-16,16s-16-7.2-16-16V136z M72,136h32v32c0,8.8-7.2,16-16,16s-16-7.2-16-16V136z M24,168v-32h32v32c0,8.8-7.2,16-16,16S24,176.8,24,168z M48,264h224v112H48 V264z M272,248H48v-16h224V248z M48,392h224v48H48V392z M488,464v24H24v-24c0-4.4,3.6-8,8-8h448C484.4,456,488,459.6,488,464z M432,248H320v-16h112V248z M320,264h112v176H320V264z M448,440V224c0-4.4-3.6-8-8-8H312c-4.4,0-8,3.6-8,8v216h-16V224 c0-4.4-3.6-8-8-8H48v-17.1c6.3-1.6,11.8-5.1,16-9.9c5.9,6.7,14.4,11.1,24,11.1s18.1-4.3,24-11.1c5.9,6.7,14.4,11.1,24,11.1 s18.1-4.3,24-11.1c5.9,6.7,14.4,11.1,24,11.1s18.1-4.3,24-11.1c5.9,6.7,14.4,11.1,24,11.1s18.1-4.3,24-11.1 c5.9,6.7,14.4,11.1,24,11.1s18.1-4.3,24-11.1c5.9,6.7,14.4,11.1,24,11.1s18.1-4.3,24-11.1c5.9,6.7,14.4,11.1,24,11.1 s18.1-4.3,24-11.1c5.9,6.7,14.4,11.1,24,11.1s18.1-4.3,24-11.1c4.2,4.8,9.7,8.3,16,9.9V440H448z M488,168c0,8.8-7.2,16-16,16 s-16-7.2-16-16v-32h32V168z"></path> <path class="st0" d="M74.3,346.3l56-56l11.3,11.3l-56,56L74.3,346.3z"></path> <path class="st0" d="M146.3,346.3l56-56l11.3,11.3l-56,56L146.3,346.3z"></path> <path class="st0" d="M296,32h-80c-13.2,0-24,10.8-24,24s10.8,24,24,24h80c13.2,0,24-10.8,24-24S309.2,32,296,32z M296,64h-80 c-4.4,0-8-3.6-8-8s3.6-8,8-8h80c4.4,0,8,3.6,8,8S300.4,64,296,64z"></path> <circle class="st0" cx="344" cy="336" r="16"></circle> </g> </svg> 