<?xml version="1.0" encoding="UTF-8"?> <svg xmlns="http://www.w3.org/2000/svg" width="50" height="50" viewBox="0 0 50 50" fill="none"><g clip-path="url(#clip0)"><path d="M46.6663 10C44.8279 10 43.333 11.495 43.333 13.3333C43.333 15.1716 44.828 16.6666 46.6663 16.6666C48.5046 16.6666 49.9996 15.1717 49.9996 13.3333C49.9996 11.495 48.5046 10 46.6663 10ZM46.6663 15C45.7472 15 44.9996 14.2525 44.9996 13.3333C44.9996 12.4142 45.7471 11.6666 46.6663 11.6666C47.5855 11.6666 48.333 12.4141 48.333 13.3333C48.3329 14.2525 47.5855 15 46.6663 15Z" fill="#48a427"></path><path d="M3.3333 37.5C1.49502 37.5 0 38.995 0 40.8333C0 42.6716 1.49502 44.1666 3.3333 44.1666C5.17168 44.1666 6.6666 42.6716 6.6666 40.8333C6.6666 38.995 5.17168 37.5 3.3333 37.5ZM3.3333 42.5C2.41416 42.5 1.6666 41.7525 1.6666 40.8333C1.6666 39.9141 2.41406 39.1666 3.3333 39.1666C4.25244 39.1666 5 39.9141 5 40.8333C5 41.7525 4.25254 42.5 3.3333 42.5Z" fill="#48a427"></path><path d="M45.0506 11.0533L37.8615 7.58248C37.4464 7.3816 36.949 7.5566 36.749 7.97086C36.549 8.38502 36.7231 8.88336 37.1373 9.08336L44.3265 12.5542C44.4432 12.6108 44.5665 12.6375 44.6881 12.6375C44.9981 12.6375 45.2956 12.4641 45.4389 12.1658C45.6389 11.7516 45.4648 11.2533 45.0506 11.0533Z" fill="#48a427"></path><path d="M37.5003 43.3333C35.6619 43.3333 34.167 44.8283 34.167 46.6666C34.167 48.5048 35.6619 50 37.5003 50C39.3387 50 40.8336 48.5049 40.8336 46.6667C40.8336 44.8284 39.3387 43.3333 37.5003 43.3333ZM37.5003 48.3333C36.5812 48.3333 35.8336 47.5858 35.8336 46.6666C35.8336 45.7473 36.5812 45 37.5003 45C38.4194 45 39.167 45.7474 39.167 46.6667C39.167 47.5859 38.4194 48.3333 37.5003 48.3333Z" fill="#48a427"></path><path d="M35.8836 44.3868L28.6945 40.916C28.2794 40.7151 27.782 40.8893 27.582 41.3044C27.382 41.7185 27.5561 42.2169 27.9704 42.4169L35.1595 45.8877C35.2762 45.9443 35.3996 45.971 35.5211 45.971C35.8311 45.971 36.1287 45.7976 36.272 45.4993C36.4719 45.085 36.2978 44.5868 35.8836 44.3868Z" fill="#48a427"></path><path d="M25.0003 22.5C23.1619 22.5 21.667 23.995 21.667 25.8333C21.667 27.6717 23.162 29.1666 25.0003 29.1666C26.8387 29.1666 28.3336 27.6716 28.3336 25.8333C28.3336 23.995 26.8387 22.5 25.0003 22.5ZM25.0003 27.5C24.0812 27.5 23.3336 26.7525 23.3336 25.8333C23.3336 24.9142 24.0811 24.1666 25.0003 24.1666C25.9194 24.1666 26.667 24.9141 26.667 25.8333C26.667 26.7525 25.9194 27.5 25.0003 27.5Z" fill="#48a427"></path><path d="M23.5355 23.6466L18.013 19.3424C17.6497 19.0616 17.1264 19.1241 16.843 19.4875C16.5605 19.8508 16.6247 20.3741 16.988 20.6575L22.5105 24.9617C22.663 25.08 22.843 25.1376 23.0222 25.1376C23.2706 25.1376 23.5156 25.0276 23.6805 24.8167C23.963 24.4533 23.8989 23.9299 23.5355 23.6466Z" fill="#48a427"></path><path d="M39.9997 21.6667C34.9455 21.6667 30.833 25.7792 30.833 30.8334C30.833 35.8876 34.9455 40.0001 39.9997 40.0001C45.0539 40.0001 49.1664 35.8876 49.1664 30.8334C49.1664 25.7792 45.0539 21.6667 39.9997 21.6667ZM39.9997 38.3333C35.8639 38.3333 32.4997 34.9692 32.4997 30.8334C32.4997 26.6975 35.8639 23.3333 39.9997 23.3333C44.1356 23.3333 47.4997 26.6975 47.4997 30.8334C47.4997 34.9692 44.1356 38.3333 39.9997 38.3333Z" fill="#48a427"></path><path d="M40.0003 25C38.1619 25 36.667 26.495 36.667 28.3333C36.667 30.1717 38.162 31.6666 40.0003 31.6666C41.8387 31.6666 43.3336 30.1716 43.3336 28.3333C43.3336 26.495 41.8387 25 40.0003 25ZM40.0003 30C39.0812 30 38.3336 29.2525 38.3336 28.3333C38.3336 27.4142 39.0811 26.6666 40.0003 26.6666C40.9194 26.6666 41.667 27.4141 41.667 28.3333C41.667 29.2525 40.9194 30 40.0003 30Z" fill="#48a427"></path><path d="M42.4175 33.3333H37.5825C36.1584 33.3333 35 34.4608 35 35.8458V38.0424C35 38.3399 35.1583 38.6149 35.4158 38.7641C36.8125 39.5724 38.3975 40 40 40C41.6025 40 43.1875 39.5724 44.5842 38.7641C44.8417 38.6158 45 38.3399 45 38.0433V35.8466C45 34.4608 43.8417 33.3333 42.4175 33.3333ZM43.3333 37.5458C41.2592 38.5791 38.7408 38.5791 36.6666 37.5458V35.8466C36.6666 35.3799 37.0774 34.9999 37.5824 34.9999H42.4174C42.9224 34.9999 43.3332 35.3799 43.3332 35.8466V37.5458H43.3333Z" fill="#48a427"></path><path d="M20.0007 31.6667C14.9465 31.6667 10.834 35.7792 10.834 40.8334C10.834 45.8876 14.9465 50 20.0007 50C25.0549 50 29.1674 45.8875 29.1674 40.8333C29.1674 35.7792 25.0549 31.6667 20.0007 31.6667ZM20.0007 48.3334C15.8648 48.3334 12.5007 44.9692 12.5007 40.8333C12.5007 36.6975 15.8648 33.3334 20.0007 33.3334C24.1365 33.3334 27.5007 36.6975 27.5007 40.8333C27.5007 44.9692 24.1365 48.3334 20.0007 48.3334Z" fill="#48a427"></path><path d="M20.0003 35C18.1619 35 16.667 36.495 16.667 38.3333C16.667 40.1717 18.162 41.6666 20.0003 41.6666C21.8386 41.6666 23.3336 40.1716 23.3336 38.3333C23.3336 36.495 21.8387 35 20.0003 35ZM20.0003 40C19.0812 40 18.3336 39.2525 18.3336 38.3333C18.3336 37.4142 19.0811 36.6666 20.0003 36.6666C20.9194 36.6666 21.667 37.4141 21.667 38.3333C21.667 39.2525 20.9194 40 20.0003 40Z" fill="#48a427"></path><path d="M22.4175 43.3333H17.5825C16.1584 43.3333 15 44.4608 15 45.8458V48.0424C15 48.3399 15.1583 48.6149 15.4158 48.7641C16.8125 49.5724 18.3975 50 20 50C21.6025 50 23.1875 49.5724 24.5842 48.7641C24.8417 48.6158 25 48.34 25 48.0433V45.8466C25 44.4608 23.8417 43.3333 22.4175 43.3333ZM23.3333 47.5458C21.2591 48.5791 18.7408 48.5791 16.6666 47.5458V45.8466C16.6666 45.3799 17.0774 45 17.5824 45H22.4174C22.9224 45 23.3332 45.3799 23.3332 45.8466V47.5458H23.3333Z" fill="#48a427"></path><path d="M9.1667 10.8334C4.1125 10.8334 0 14.9459 0 20.0001C0 25.0543 4.1125 29.1668 9.1667 29.1668C14.2209 29.1668 18.3334 25.0543 18.3334 20.0001C18.3333 14.9459 14.2208 10.8334 9.1667 10.8334ZM9.1667 27.5001C5.03086 27.5001 1.6667 24.1359 1.6667 20.0001C1.6667 15.8642 5.03086 12.5001 9.1667 12.5001C13.3025 12.5001 16.6667 15.8642 16.6667 20.0001C16.6667 24.1359 13.3025 27.5001 9.1667 27.5001Z" fill="#48a427"></path><path d="M9.16631 14.1666C7.32793 14.1666 5.83301 15.6616 5.83301 17.4999C5.83301 19.3382 7.32803 20.8332 9.16631 20.8332C11.0047 20.8332 12.4996 19.3382 12.4996 17.4999C12.4996 15.6616 11.0046 14.1666 9.16631 14.1666ZM9.16631 19.1666C8.24717 19.1666 7.49961 18.4192 7.49961 17.4999C7.49961 16.5807 8.24707 15.8332 9.16631 15.8332C10.0855 15.8332 10.833 16.5807 10.833 17.4999C10.833 18.4192 10.0855 19.1666 9.16631 19.1666Z" fill="#48a427"></path><path d="M11.5845 22.5H6.74951C5.32539 22.5 4.16699 23.6275 4.16699 25.0125V27.2092C4.16699 27.5066 4.32529 27.7816 4.58281 27.9309C5.97949 28.7392 7.56445 29.1667 9.16699 29.1667C10.7695 29.1667 12.3545 28.7392 13.7512 27.9309C14.0087 27.7825 14.167 27.5066 14.167 27.2101V25.0134C14.167 23.6275 13.0086 22.5 11.5845 22.5ZM12.5003 26.7125C10.4262 27.7458 7.90781 27.7458 5.83359 26.7125V25.0134C5.83359 24.5467 6.24443 24.1667 6.74942 24.1667H11.5844C12.0894 24.1667 12.5002 24.5467 12.5002 25.0134V26.7125H12.5003Z" fill="#48a427"></path><path d="M29.1667 0C24.1125 0 20 4.1125 20 9.1667C20 14.2209 24.1125 18.3334 29.1667 18.3334C34.2209 18.3334 38.3334 14.2209 38.3334 9.1667C38.3333 4.1125 34.2208 0 29.1667 0ZM29.1667 16.6667C25.0309 16.6667 21.6667 13.3025 21.6667 9.1667C21.6667 5.03086 25.0309 1.6667 29.1667 1.6667C33.3025 1.6667 36.6667 5.03086 36.6667 9.1667C36.6667 13.3025 33.3025 16.6667 29.1667 16.6667Z" fill="#48a427"></path><path d="M29.1663 3.33325C27.3279 3.33325 25.833 4.82827 25.833 6.66655C25.833 8.50483 27.328 9.99985 29.1663 9.99985C31.0046 9.99985 32.4996 8.50493 32.4996 6.66665C32.4996 4.82837 31.0046 3.33325 29.1663 3.33325ZM29.1663 8.33325C28.2472 8.33325 27.4996 7.58579 27.4996 6.66655C27.4996 5.74741 28.2471 4.99985 29.1663 4.99985C30.0855 4.99985 30.833 5.74731 30.833 6.66655C30.8329 7.58579 30.0854 8.33325 29.1663 8.33325Z" fill="#48a427"></path><path d="M31.5845 11.6666H26.7495C25.3254 11.6666 24.167 12.7942 24.167 14.1791V16.3758C24.167 16.6733 24.3253 16.9483 24.5828 17.0975C25.9795 17.9058 27.5644 18.3333 29.167 18.3333C30.7695 18.3333 32.3545 17.9058 33.7512 17.0975C34.0087 16.9491 34.167 16.6733 34.167 16.3767V14.18C34.167 12.7941 33.0086 11.6666 31.5845 11.6666ZM32.5003 15.8791C30.4262 16.9124 27.9078 16.9124 25.8336 15.8791V14.18C25.8336 13.7133 26.2444 13.3333 26.7494 13.3333H31.5844C32.0893 13.3333 32.5002 13.7133 32.5002 14.18V15.8791H32.5003Z" fill="#48a427"></path><path d="M21.4674 8.62416C21.1683 8.27582 20.6424 8.23412 20.2924 8.53334L14.5174 13.475C14.1674 13.7742 14.1266 14.3 14.4257 14.65C14.5907 14.8425 14.824 14.9417 15.059 14.9417C15.2507 14.9417 15.4432 14.8759 15.6007 14.7409L21.3757 9.79916C21.7258 9.50004 21.7666 8.97416 21.4674 8.62416Z" fill="#48a427"></path><path d="M39.833 22.0009L34.833 15.3342C34.5571 14.965 34.0347 14.8925 33.6663 15.1675C33.2979 15.4433 33.2238 15.9658 33.4996 16.3333L38.4996 23C38.6638 23.2183 38.9138 23.3333 39.1671 23.3333C39.3404 23.3333 39.5163 23.2791 39.6663 23.1666C40.0347 22.8908 40.1089 22.3683 39.833 22.0009Z" fill="#48a427"></path><path d="M32.9938 33.5892C32.718 33.2208 32.1955 33.1467 31.8271 33.4225L27.1722 36.9133C26.8038 37.1892 26.7297 37.7116 27.0055 38.0791C27.1696 38.2975 27.4196 38.4124 27.6729 38.4124C27.8471 38.4124 28.0221 38.3574 28.1722 38.2457L32.8271 34.7549C33.1955 34.4792 33.2697 33.9566 32.9938 33.5892Z" fill="#48a427"></path><path d="M11.6667 40H5.8333C5.37334 40 5 40.3725 5 40.8333C5 41.2941 5.37334 41.6666 5.8333 41.6666H11.6666C12.1266 41.6666 12.4999 41.2941 12.4999 40.8333C12.4999 40.3725 12.1267 40 11.6667 40Z" fill="#48a427"></path><path d="M9.16641 0C7.32803 0 5.83301 1.49502 5.83301 3.3333C5.83301 5.17168 7.32803 6.6666 9.16631 6.6666C11.0047 6.6666 12.4996 5.17158 12.4996 3.3333C12.4997 1.49502 11.0047 0 9.16641 0ZM9.16641 5C8.24727 5 7.49971 4.25254 7.49971 3.3333C7.49971 2.41416 8.24717 1.6666 9.16641 1.6666C10.0855 1.6666 10.8331 2.41406 10.8331 3.3333C10.833 4.25254 10.0855 5 9.16641 5Z" fill="#48a427"></path><path d="M9.16729 5C8.70732 5 8.33398 5.37246 8.33398 5.8333V11.6666C8.33398 12.1274 8.70732 12.4999 9.16729 12.4999C9.62725 12.4999 10.0006 12.1274 10.0006 11.6666V5.8333C10.0006 5.37246 9.62725 5 9.16729 5Z" fill="#48a427"></path></g><defs><clipPath id="clip0"><rect width="50" height="50" fill="white"></rect></clipPath></defs></svg> 