<?xml version="1.0" encoding="UTF-8"?> <!-- Generator: Adobe Illustrator 24.0.3, SVG Export Plug-In . SVG Version: 6.00 Build 0) --> <svg xmlns="http://www.w3.org/2000/svg" xmlns:xlink="http://www.w3.org/1999/xlink" version="1.1" id="Слой_1" x="0px" y="0px" viewBox="0 0 80 70" style="enable-background:new 0 0 80 70;" xml:space="preserve"> <style type="text/css"> .st0{fill-rule:evenodd;clip-rule:evenodd;fill:#48a427;} </style> <g id="Group_11"> <path id="Combined_Shape" class="st0" d="M64.4,27.5h4.5c2.1,0,3.8,1.7,3.8,3.8v30c0,2.1-1.7,3.8-3.8,3.8H20.4 c-2.1,0-3.8-1.7-3.8-3.8V42.5h-4.5c-2.1,0-3.8-1.7-3.8-3.8v-30C8.3,6.6,10,5,12.1,5h48.5c2.1,0,3.8,1.7,3.8,3.8V27.5z M61.9,15 H10.8v5h51.1V15z M12.1,7.5h48.5c0.7,0,1.3,0.6,1.3,1.3v3.8H10.8V8.7C10.8,8,11.4,7.5,12.1,7.5z M10.8,38.8c0,0.7,0.6,1.3,1.3,1.3 h4.5v-8.8c0-2.1,1.7-3.8,3.8-3.8h41.5v-5H10.8V38.8z M70.2,61.3c0,0.7-0.6,1.3-1.3,1.3H20.4c-0.7,0-1.3-0.6-1.3-1.3v-30 c0-0.7,0.6-1.3,1.3-1.3h48.5c0.7,0,1.3,0.6,1.3,1.3V61.3z M39.2,48.8c0-0.7,0.6-1.3,1.3-1.3s1.3,0.6,1.3,1.3c0,0.7-0.6,1.3-1.3,1.3 S39.2,49.5,39.2,48.8z M58.1,35c-1.4,0-2.7,0.4-3.8,1.3c-1.1-0.8-2.4-1.3-3.8-1.3c-3.5,0-6.3,2.8-6.3,6.3c0,3.5,2.8,6.3,6.3,6.3 c1.4,0,2.7-0.4,3.8-1.3c1.1,0.8,2.4,1.3,3.8,1.3c3.5,0,6.3-2.8,6.3-6.3C64.4,37.8,61.6,35,58.1,35z M46.8,41.3 c0-2.1,1.7-3.8,3.8-3.8c1.1,0,2.1,0.5,2.8,1.3c0,0,0,0,0,0l0,0c0.6,0.7,0.9,1.6,0.9,2.5c0,0.9-0.3,1.8-0.9,2.5 c-0.7,0.8-1.7,1.3-2.8,1.3C48.5,45,46.8,43.3,46.8,41.3z M56,44.4c0.6,0.4,1.3,0.6,2.1,0.6c2.1,0,3.8-1.7,3.8-3.8 c0-2.1-1.7-3.8-3.8-3.8c-0.8,0-1.5,0.2-2.1,0.6c0.5,0.9,0.8,2,0.8,3.1C56.8,42.4,56.6,43.4,56,44.4z M25.4,55h5 c0.7,0,1.3,0.6,1.3,1.3s-0.6,1.3-1.3,1.3h-5c-0.7,0-1.3-0.6-1.3-1.3S24.7,55,25.4,55z M40.5,55h-5c-0.7,0-1.3,0.6-1.3,1.3 s0.6,1.3,1.3,1.3h5c0.7,0,1.3-0.6,1.3-1.3S41.2,55,40.5,55z M45.5,55h5c0.7,0,1.3,0.6,1.3,1.3s-0.6,1.3-1.3,1.3h-5 c-0.7,0-1.3-0.6-1.3-1.3S44.8,55,45.5,55z M55.6,55c-0.7,0-1.3,0.6-1.3,1.3s0.6,1.3,1.3,1.3h5c0.7,0,1.3-0.6,1.3-1.3 S61.3,55,60.6,55H55.6z M35.5,50H25.4c-0.7,0-1.3-0.6-1.3-1.3s0.6-1.3,1.3-1.3h10.1c0.7,0,1.3,0.6,1.3,1.3S36.2,50,35.5,50z"></path> </g> </svg> 