<?xml version="1.0" encoding="UTF-8"?> <svg xmlns="http://www.w3.org/2000/svg" id="_Слой_2" viewBox="0 0 38.83 38.83"><defs><style>.cls-1{fill:#f7f8f8;}.cls-2{fill:#1daee5;}.cls-3{fill:#303240;}</style></defs><g id="_Слой_1-2"><circle class="cls-1" cx="19.42" cy="19.42" r="18.92"></circle><path class="cls-2" d="m19.42,38.83C8.71,38.83,0,30.12,0,19.42S8.71,0,19.42,0s19.42,8.71,19.42,19.42-8.71,19.42-19.42,19.42Zm0-37.83C9.26,1,1,9.26,1,19.42s8.26,18.42,18.42,18.42,18.42-8.26,18.42-18.42S29.57,1,19.42,1Z"></path><path class="cls-3" d="m20.36,26.15h-6.4c-.97,0-1.76-.79-1.76-1.76v-8.19h14.04v2.16c0,.18.14.32.32.32s.32-.14.32-.32v-4.06c0-1.32-1.08-2.4-2.4-2.4h-1.15v-1.17c0-.18-.14-.32-.32-.32s-.32.14-.32.32v1.17h-6.94v-1.17c0-.18-.14-.32-.32-.32s-.32.14-.32.32v1.17h-1.15c-1.32,0-2.4,1.08-2.4,2.4v10.08c0,1.32,1.08,2.4,2.4,2.4h6.4c.18,0,.32-.14.32-.32s-.14-.32-.32-.32Zm-6.4-13.61h1.15v1.36c0,.18.14.32.32.32s.32-.14.32-.32v-1.36h6.94v1.36c0,.18.14.32.32.32s.32-.14.32-.32v-1.36h1.15c.97,0,1.76.79,1.76,1.76v1.26h-14.04v-1.26c0-.97.79-1.76,1.76-1.76Z"></path><path class="cls-3" d="m30.47,22.15l-4.91-2.71s-.02,0-.03-.01c-.02,0-.04-.02-.06-.02-.02,0-.04,0-.06,0-.02,0-.04,0-.06,0-.02,0-.04.01-.06.02-.01,0-.02,0-.03.01l-4.91,2.71c-.15.09-.21.28-.13.43.06.11.17.17.28.17.05,0,.1-.01.15-.04l1.14-.63v4.16c0,.75.61,1.36,1.36,1.36h4.51c.75,0,1.36-.61,1.36-1.36v-4.16l1.14.63s.1.04.15.04c.11,0,.22-.06.28-.17.09-.15.03-.35-.13-.43Zm-2.09-.42v4.51c0,.4-.33.72-.72.72h-4.51c-.4,0-.72-.33-.72-.72v-4.51s0,0,0,0l2.98-1.64,2.98,1.64s0,0,0,0Z"></path><path class="cls-3" d="m23.8,18.13c0-.18-.14-.32-.32-.32h-8.87c-.18,0-.32.14-.32.32s.14.32.32.32h8.87c.18,0,.32-.14.32-.32Z"></path><path class="cls-3" d="m18.38,20.44h-3.77c-.18,0-.32.14-.32.32s.14.32.32.32h3.77c.18,0,.32-.14.32-.32s-.14-.32-.32-.32Z"></path><path class="cls-3" d="m18.38,23.08h-3.77c-.18,0-.32.14-.32.32s.14.32.32.32h3.77c.18,0,.32-.14.32-.32s-.14-.32-.32-.32Z"></path></g></svg> 