<?xml version="1.0" encoding="UTF-8"?> <svg xmlns="http://www.w3.org/2000/svg" id="_Слой_2" viewBox="0 0 38.83 38.83"><defs><style>.cls-1{fill:#303240;}.cls-2{fill:#f7f8f8;stroke:#1daee5;stroke-miterlimit:10;}</style></defs><g id="_Слой_1-2"><circle class="cls-2" cx="19.42" cy="19.42" r="18.92"></circle><path class="cls-1" d="m20.8,22.87h-3.43c-.16,0-.29.13-.29.29s.13.29.29.29h3.43c.16,0,.29-.13.29-.29s-.13-.29-.29-.29Z"></path><path class="cls-1" d="m12.99,14.4h7.2c.15,0,.26-.12.26-.26s-.12-.26-.26-.26h-7.2c-.15,0-.26.12-.26.26s.12.26.26.26Z"></path><path class="cls-1" d="m12.99,15.5h7.2c.16,0,.29-.13.29-.29s-.13-.29-.29-.29h-7.2c-.16,0-.29.13-.29.29s.13.29.29.29Z"></path><path class="cls-1" d="m12.99,16.58h7.2c.16,0,.29-.13.29-.29s-.13-.29-.29-.29h-7.2c-.16,0-.29.13-.29.29s.13.29.29.29Z"></path><path class="cls-1" d="m12.99,17.66h7.2c.16,0,.29-.13.29-.29s-.13-.29-.29-.29h-7.2c-.16,0-.29.13-.29.29s.13.29.29.29Z"></path><path class="cls-1" d="m12.99,18.74h7.2c.16,0,.29-.13.29-.29s-.13-.29-.29-.29h-7.2c-.16,0-.29.13-.29.29s.13.29.29.29Z"></path><path class="cls-1" d="m12.99,19.82h7.2c.16,0,.29-.13.29-.29s-.13-.29-.29-.29h-7.2c-.16,0-.29.13-.29.29s.13.29.29.29Z"></path><path class="cls-1" d="m29.42,20.47l-.55-.42v-8.18c0-.86-.7-1.56-1.56-1.56H10.86c-.86,0-1.56.7-1.56,1.56v11.41c0,.86.7,1.56,1.56,1.56h5.57c.02.29-.06.89-.8,1.54-.8.24-1.39.98-1.39,1.86,0,.17.14.3.3.3h9.08c.17,0,.3-.14.3-.3,0-.88-.59-1.62-1.39-1.86-.74-.65-.82-1.24-.8-1.54h5.57c.86,0,1.56-.7,1.56-1.56v-2.29h.38c.12,0,.23-.08.27-.2.04-.12,0-.25-.1-.32Zm-2.23-.06s0,0,0,0,0,0,0,0h-.53c-.09,0-.18.04-.23.12l-1.06,1.44-.12-2.86s0,0,0,0c0,0,0,0,0,0l-.05-1.11,3.2,2.43h-1.2Zm-.29.58v.59h-.53l.43-.59h.1Zm0-2.44l-1.47-1.12v-3.29c0-.16-.13-.29-.29-.29h-3.24c-.16,0-.29.13-.29.29v4.96c0,.16.13.29.29.29h2.77l.09,2.19h-13.49v-9.39h15.62v6.36Zm-2.05-1.46s-.07.01-.11.03c-.1.05-.16.16-.16.27l.06,1.42h-2.46v-4.38h2.66v2.67Zm-1.56,10.84h-8.41c.14-.59.67-1.03,1.3-1.03h5.81c.63,0,1.16.44,1.3,1.03Zm-1.62-1.63h-5.17c.45-.58.53-1.12.51-1.46h4.15c-.01.34.06.87.51,1.46Zm6.62-3.02c0,.54-.44.98-.98.98h-5.83s0,0,0,0h-10.62c-.54,0-.98-.44-.98-.98v-11.41c0-.54.44-.98.98-.98h16.45c.54,0,.98.44.98.98v7.74l-.82-.62v-7.09c0-.16-.13-.29-.29-.29H10.99c-.16,0-.29.13-.29.29v9.97c0,.16.13.29.29.29h13.8l.03.65c0,.12.09.23.2.26.03,0,.06.01.08.01.09,0,.18-.04.23-.12l.6-.81h1.25c.16,0,.29-.13.29-.29v-.87h.82v2.29Z"></path></g></svg> 