<?xml version="1.0" encoding="UTF-8"?> <svg xmlns="http://www.w3.org/2000/svg" id="_Слой_2" viewBox="0 0 38.83 38.83"><defs><style>.cls-1{fill:#303240;}.cls-2{fill:#f7f8f8;stroke:#1daee5;stroke-miterlimit:10;}</style></defs><g id="_Слой_1-2"><circle class="cls-2" cx="19.42" cy="19.42" r="18.92"></circle><path class="cls-1" d="m26.35,25.54H9.22v-12.24h17.14v12.24Zm-16.32-.82h15.5v-10.61h-15.5v10.61Z"></path><polygon class="cls-1" points="19.94 25.42 12.89 18.36 9.91 21.34 9.34 20.76 12.89 17.21 20.52 24.84 19.94 25.42"></polygon><polygon class="cls-1" points="24.84 25.42 19.01 19.59 16.85 21.75 16.27 21.17 19.01 18.43 25.42 24.84 24.84 25.42"></polygon><path class="cls-1" d="m22.68,18.19c-.9,0-1.63-.73-1.63-1.63s.73-1.63,1.63-1.63,1.63.73,1.63,1.63-.73,1.63-1.63,1.63Zm0-2.45c-.45,0-.82.37-.82.82s.37.82.82.82.82-.37.82-.82-.37-.82-.82-.82Z"></path><rect class="cls-1" x="27.17" y="14.11" width=".82" height="10.61"></rect><rect class="cls-1" x="28.8" y="14.93" width=".82" height="8.98"></rect></g></svg> 