<?xml version="1.0" encoding="UTF-8"?> <svg xmlns="http://www.w3.org/2000/svg" id="_Слой_2" viewBox="0 0 38.83 38.83"><defs><style>.cls-1{fill:#303240;}.cls-2{fill:#f7f8f8;stroke:#1daee5;stroke-miterlimit:10;}</style></defs><g id="_Слой_1-2"><circle class="cls-2" cx="19.42" cy="19.42" r="18.92"></circle><path class="cls-1" d="m19.33,20.29h-3.41c-.07,0-.12-.05-.12-.12v-3.18c0-.07.05-.12.12-.12h.54v-2.79c0-.07.05-.12.12-.12h2.69v-.49c0-.07.05-.12.12-.12h3.52c.07,0,.12.05.12.12v3.52c0,.07-.05.12-.12.12h-.56v2.55c0,.07-.05.12-.12.12h-2.79v.4c0,.07-.05.12-.12.12Zm-3.29-.24h3.17v-.4c0-.07.05-.12.12-.12h2.79v-2.55c0-.07.05-.12.12-.12h.56v-3.29h-3.29v.49c0,.07-.05.12-.12.12h-2.69v2.79c0,.07-.05.12-.12.12h-.54v2.94Z"></path><path class="cls-1" d="m18.73,19.07h-1.1c-.07,0-.12-.05-.12-.12v-3.37s.01-.06.04-.08l1.1-1.07s.08-.04.13-.02c.04.02.07.06.07.11v4.44c0,.07-.05.12-.12.12Zm-.98-.24h.86v-4.04l-.86.84v3.2Z"></path><path class="cls-1" d="m21.25,19.07h-1.1c-.07,0-.12-.05-.12-.12v-4.44s.03-.09.07-.11c.04-.02.09,0,.13.02l1.1,1.07s.04.05.04.08v3.37c0,.07-.05.12-.12.12Zm-.98-.24h.86v-3.2l-.86-.84v4.04Z"></path><path class="cls-1" d="m19.99,19.07h-1.1c-.07,0-.12-.05-.12-.12v-3.56s.03-.09.07-.11c.04-.02.09,0,.13.02l1.1,1.07s.04.05.04.08v2.49c0,.07-.05.12-.12.12Zm-.98-.24h.86v-2.33l-.86-.84v3.16Z"></path><path class="cls-1" d="m27.87,10.05H10.98c-.89,0-1.62.73-1.62,1.62v11.71c0,.89.73,1.62,1.62,1.62h5.73c.01.31-.08.91-.83,1.56-.82.25-1.43,1.01-1.43,1.91,0,.17.14.31.31.31h9.33c.17,0,.31-.14.31-.31,0-.9-.61-1.66-1.43-1.91-.75-.65-.84-1.25-.83-1.56h5.73c.89,0,1.61-.73,1.61-1.62v-11.71c0-.89-.72-1.62-1.61-1.62Zm-5.46,17.05c.65,0,1.19.46,1.33,1.06h-8.63c.14-.6.68-1.06,1.33-1.06h5.97Zm-5.64-.62c.45-.59.54-1.13.53-1.48h4.25c-.01.35.07.89.53,1.48h-5.31Zm12.09-3.1c0,.55-.44,1-.99,1H10.98c-.55,0-1-.45-1-1v-11.71c0-.55.45-1,1-1h16.89c.55,0,.99.45.99,1v11.71Z"></path><path class="cls-1" d="m27.74,11.4H11.11c-.16,0-.3.14-.3.3v10.23c0,.17.14.3.3.3h16.63c.16,0,.3-.13.3-.3v-10.23c0-.16-.14-.3-.3-.3Zm-.3,10.24H11.41v-9.64h16.03v9.64Z"></path><path class="cls-1" d="m21.18,22.97h-3.52c-.16,0-.3.13-.3.3s.13.3.3.3h3.52c.16,0,.3-.13.3-.3s-.13-.3-.3-.3Z"></path></g></svg> 