<?xml version="1.0" encoding="UTF-8"?> <svg xmlns="http://www.w3.org/2000/svg" id="_Слой_2" viewBox="0 0 38.83 38.83"><defs><style>.cls-1{fill:#303240;}.cls-2{fill:#f7f8f8;stroke:#1daee5;stroke-miterlimit:10;}</style></defs><g id="_Слой_1-2"><circle class="cls-2" cx="19.42" cy="19.42" r="18.92"></circle><path class="cls-1" d="m25.14,8.73c-.95,0-1.72.77-1.72,1.72v.74c-5.25,4.88-10.02,4.96-10.07,4.96h-4.9c-.92,0-1.67.75-1.67,1.67v3.3c0,.92.75,1.67,1.67,1.67h1.17v4.26c0,.2.16.37.37.37h1.99c.16,0,.3-.11.35-.26l1.3-4.35c1.08.09,5.26.72,9.8,4.94v.64c0,.95.77,1.72,1.72,1.72s1.72-.77,1.72-1.72V10.45c0-.95-.77-1.72-1.72-1.72Zm-14.8,8.16h2.64v5.17h-2.64v-5.17Zm-2.83,4.24v-3.3c0-.51.42-.93.93-.93h1.17v5.17h-1.17c-.51,0-.93-.42-.93-.93Zm4.18,5.56h-1.35v-3.89h2.51l-1.16,3.89Zm2.02-4.61v-5.21c1.21-.1,5.21-.72,9.7-4.68v14.57c-4.49-3.96-8.5-4.59-9.7-4.68Zm12.42,6.31c0,.55-.44.99-.99.99s-.99-.44-.99-.99V10.45c0-.55.44-.99.99-.99s.99.44.99.99v17.93Z"></path><path class="cls-1" d="m31.69,19.05h-2.82c-.2,0-.37.16-.37.37s.16.37.37.37h2.82c.2,0,.37-.16.37-.37s-.16-.37-.37-.37Z"></path><path class="cls-1" d="m28,15.59s.09,0,.14-.03l2.6-1.07c.19-.08.28-.29.2-.48s-.29-.28-.48-.2l-2.6,1.07c-.19.08-.28.29-.2.48.06.14.19.23.34.23Z"></path><path class="cls-1" d="m30.75,24.34l-2.6-1.07c-.19-.08-.4.01-.48.2s.01.4.2.48l2.6,1.07s.09.03.14.03c.14,0,.28-.09.34-.23.08-.19-.01-.4-.2-.48Z"></path></g></svg> 