<?xml version="1.0" encoding="UTF-8"?> <svg xmlns="http://www.w3.org/2000/svg" id="_Слой_2" viewBox="0 0 38.83 38.83"><defs><style>.cls-1{fill:#303240;}.cls-2{fill:#f7f8f8;stroke:#1daee5;stroke-miterlimit:10;}</style></defs><g id="_Слой_1-2"><circle class="cls-2" cx="19.42" cy="19.42" r="18.92"></circle><path class="cls-1" d="m26.52,21.84c.27-.78.4-1.59.4-2.43s-.14-1.65-.4-2.43c1.45-.52,2.49-1.9,2.49-3.52,0-2.06-1.68-3.74-3.74-3.74-1.65,0-3.05,1.07-3.55,2.56-1.48-.48-3.11-.48-4.6,0-.5-1.49-1.9-2.56-3.55-2.56-2.06,0-3.74,1.68-3.74,3.74,0,1.62,1.04,3.01,2.49,3.52-.27.78-.4,1.59-.4,2.43s.14,1.65.4,2.43c-1.45.52-2.49,1.9-2.49,3.52,0,2.06,1.68,3.74,3.74,3.74,1.65,0,3.05-1.07,3.55-2.56.74.24,1.51.37,2.3.37s1.56-.13,2.3-.37c.5,1.48,1.9,2.56,3.55,2.56,2.06,0,3.74-1.68,3.74-3.74,0-1.62-1.04-3.01-2.49-3.52Zm-1.25-11.49c1.71,0,3.11,1.39,3.11,3.11s-1.39,3.11-3.11,3.11-3.11-1.39-3.11-3.11,1.39-3.11,3.11-3.11Zm-14.8,3.11c0-1.71,1.39-3.11,3.11-3.11s3.11,1.39,3.11,3.11-1.39,3.11-3.11,3.11-3.11-1.39-3.11-3.11Zm3.11,15.01c-1.71,0-3.11-1.39-3.11-3.11s1.39-3.11,3.11-3.11,3.11,1.39,3.11,3.11-1.39,3.11-3.11,3.11Zm3.7-2.54c.03-.18.05-.37.05-.57,0-2.06-1.68-3.74-3.74-3.74-.22,0-.42.02-.63.06-.26-.73-.39-1.48-.39-2.26s.14-1.54.39-2.27c.21.04.42.06.63.06,2.06,0,3.74-1.68,3.74-3.74,0-.19-.02-.38-.05-.56,1.39-.46,2.92-.46,4.3,0-.03.18-.05.37-.05.56,0,2.06,1.68,3.74,3.74,3.74.22,0,.43-.02.63-.06.26.73.39,1.48.39,2.27s-.14,1.54-.39,2.26c-.21-.04-.42-.06-.63-.06-2.06,0-3.74,1.68-3.74,3.74,0,.19.02.38.05.57-1.39.46-2.91.46-4.3,0Zm8,2.54c-1.71,0-3.11-1.39-3.11-3.11s1.39-3.11,3.11-3.11,3.11,1.39,3.11,3.11-1.39,3.11-3.11,3.11Z"></path><path class="cls-1" d="m24.21,13.7h.61v1.95c0,.18.14.32.32.32s.32-.14.32-.32v-1.95h.61c.13,0,.23-.1.23-.23s-.1-.23-.23-.23h-.61v-.88c0-.32.26-.57.57-.57h.32c.18,0,.32-.14.32-.32s-.14-.32-.32-.32h-.32c-.67,0-1.21.54-1.21,1.21v.88h-.61c-.13,0-.23.1-.23.23s.1.23.23.23Z"></path><path class="cls-1" d="m27.08,23.25h-3.38c-.18,0-.32.14-.32.32v3.38c0,.18.14.32.32.32h3.38c.18,0,.32-.14.32-.32v-3.38c0-.18-.14-.32-.32-.32Zm-.32,3.38h-2.74v-2.74h2.74v2.74Z"></path><path class="cls-1" d="m25.39,26.26c.49,0,.89-.4.89-.89s-.4-.89-.89-.89-.89.4-.89.89.4.89.89.89Zm0-1.14c.14,0,.25.11.25.25s-.11.25-.25.25-.25-.11-.25-.25.11-.25.25-.25Z"></path><path class="cls-1" d="m15.25,25l-2.31-1.33c-.1-.06-.22-.06-.32,0-.1.06-.16.16-.16.27v2.65c0,.11.06.22.16.27.05.03.1.04.16.04s.11-.01.16-.04l2.31-1.33c.1-.06.16-.16.16-.28s-.06-.22-.16-.28Zm-2.15,1.05v-1.56l1.35.78-1.35.78Z"></path><path class="cls-1" d="m21.69,21.55v-5.35c0-.18-.14-.32-.32-.32s-.32.14-.32.32v.75l-1.93.86c-.04-.14-.15-.24-.3-.24h-1.97c-.18,0-.32.14-.32.32v2.16c0,.18.14.32.32.32h.59v1.85c0,.18.14.32.32.32s.32-.14.32-.32v-1.85h.75c.14,0,.26-.1.3-.22l1.93.94v.47c0,.18.14.32.32.32s.32-.14.32-.32Zm-3.18-1.82h-1.34v-1.53h1.34v1.53Zm.63-.29v-.95l1.91-.86v2.74l-1.91-.93Z"></path><path class="cls-1" d="m14.93,13.16c0-.09,0-.17,0-.25.02-.29.3-.45.3-.45.09-.05.14-.16.11-.26-.03-.1-.12-.18-.23-.18h-.61c-.13-.05-.48-.15-.81.03-.26.14-.38.48-.43.73-.47-.16-.78-.52-.79-.53-.06-.07-.15-.1-.23-.08-.09.02-.16.09-.18.17-.21.84.1,1.41.46,1.73l-.59.19c-.1.03-.16.12-.16.22s.06.19.15.23c.04.02.69.27,1.35.27.36,0,.73-.08,1.01-.3.64-.53.64-1.1.63-1.51Zm-.93,1.15c-.27.22-.72.23-1.13.16l.29-.09c.1-.03.16-.12.16-.22,0-.1-.06-.19-.15-.23-.08-.03-.69-.3-.69-1.05.23.17.56.36.96.42.07.01.13,0,.18-.05.05-.04.08-.1.09-.17.01-.25.1-.56.21-.62.19-.1.45,0,.45,0,.03.01.06.02.1.02h.11c-.06.11-.1.23-.11.38,0,.09,0,.19,0,.29,0,.37.01.76-.46,1.14Z"></path></g></svg> 