<?xml version="1.0" encoding="UTF-8"?> <svg xmlns="http://www.w3.org/2000/svg" id="_Слой_2" viewBox="0 0 38.83 38.83"><defs><style>.cls-1{fill:#303240;}.cls-2{fill:#f7f8f8;stroke:#1daee5;stroke-miterlimit:10;}</style></defs><g id="_Слой_1-2"><circle class="cls-2" cx="19.42" cy="19.42" r="18.92"></circle><path class="cls-1" d="m27.86,10.05H10.97c-.89,0-1.62.73-1.62,1.62v11.71c0,.89.73,1.62,1.62,1.62h5.72c.02.31-.07.91-.82,1.56-.82.24-1.43,1-1.43,1.91,0,.17.14.31.31.31h9.32c.17,0,.31-.14.31-.31,0-.9-.6-1.66-1.43-1.91-.75-.66-.84-1.26-.82-1.56h5.72c.89,0,1.62-.73,1.62-1.62v-11.71c0-.89-.73-1.62-1.62-1.62Zm-4.13,18.11h-8.63c.14-.6.68-1.06,1.33-1.06h5.97c.65,0,1.19.45,1.33,1.06Zm-1.66-1.68h-5.31c.46-.59.54-1.13.53-1.48h4.26c-.01.35.07.89.53,1.48Zm6.78-3.1c0,.55-.45,1-1,1H10.97c-.55,0-1-.45-1-1v-11.71c0-.55.45-1,1-1h16.88c.55,0,1,.45,1,1v11.71Z"></path><path class="cls-1" d="m27.73,11.4H11.1c-.16,0-.3.13-.3.3v10.23c0,.16.13.3.3.3h2.63s0,0,0,0h11.63s0,0,0,0h2.37c.16,0,.3-.13.3-.3v-10.23c0-.16-.13-.3-.3-.3Zm-3.06,4.97h-2.29v-2.42l2.29,2.42Zm-2.58.59h2.97v4.67h-11.03v-8.13h7.76v3.17c0,.16.13.3.3.3Zm5.35,4.67h-1.78v-4.96s0-.02,0-.02c0-.02,0-.04-.01-.07,0-.01,0-.03-.01-.04-.01-.03-.03-.05-.05-.08h0s0,0,0,0l-3.26-3.46s0,0,0,0c0,0,0,0-.01-.01-.02-.02-.05-.04-.07-.05,0,0-.02,0-.03,0-.03-.01-.06-.02-.09-.02,0,0,0,0-.01,0h-8.36c-.16,0-.3.13-.3.3v8.43h-2.04v-9.64h16.04v9.64Z"></path><path class="cls-1" d="m21.18,22.96h-3.52c-.16,0-.3.13-.3.3s.13.3.3.3h3.52c.16,0,.3-.13.3-.3s-.13-.3-.3-.3Z"></path><path class="cls-1" d="m15.26,15.24h3.67c.16,0,.3-.13.3-.3s-.13-.3-.3-.3h-3.67c-.16,0-.3.13-.3.3s.13.3.3.3Z"></path><path class="cls-1" d="m15.26,16.97h3.67c.16,0,.3-.13.3-.3s-.13-.3-.3-.3h-3.67c-.16,0-.3.13-.3.3s.13.3.3.3Z"></path><path class="cls-1" d="m14.96,18.09v2.36c0,.16.13.3.3.3h8.57c.16,0,.3-.13.3-.3v-2.36c0-.16-.13-.3-.3-.3h-8.57c-.16,0-.3.13-.3.3Zm.59.3h7.98v1.77h-7.98v-1.77Z"></path></g></svg> 