<?xml version="1.0" encoding="UTF-8"?> <svg xmlns="http://www.w3.org/2000/svg" id="_Слой_2" viewBox="0 0 38.83 38.83"><defs><style>.cls-1{fill:#303240;}.cls-2{fill:#f7f8f8;stroke:#1daee5;stroke-miterlimit:10;}</style></defs><g id="_Слой_1-2"><circle class="cls-2" cx="19.42" cy="19.42" r="18.92"></circle><path class="cls-1" d="m31.07,15.39h-1.21v-2.53c0-1.63-1.33-2.96-2.96-2.96h-14.96c-1.63,0-2.96,1.33-2.96,2.96v2.53h-1.21c-.19,0-.35.16-.35.35v4.95c0,.19.16.35.35.35h1.21v4.93c0,1.63,1.33,2.96,2.96,2.96h14.96c1.63,0,2.96-1.33,2.96-2.96v-4.93h1.21c.19,0,.35-.16.35-.35v-4.95c0-.19-.16-.35-.35-.35Zm-21.4-2.53c0-1.25,1.02-2.26,2.27-2.26h14.96c1.25,0,2.26,1.02,2.26,2.26v2.53H9.67v-2.53Zm19.49,13.12c0,1.25-1.02,2.26-2.26,2.26h-14.96c-1.25,0-2.27-1.02-2.27-2.26v-4.93h19.49v4.93Zm1.56-5.63H8.11v-4.26h22.6v4.26Z"></path><path class="cls-1" d="m27.68,13.76H11.15c-.19,0-.35.16-.35.35s.16.35.35.35h16.53c.19,0,.35-.16.35-.35s-.16-.35-.35-.35Z"></path><path class="cls-1" d="m12.26,24.49h14.32c.19,0,.35-.16.35-.35s-.16-.35-.35-.35h-14.32c-.19,0-.35.16-.35.35s.16.35.35.35Z"></path><path class="cls-1" d="m12.26,22.77h5.79c.19,0,.35-.16.35-.35s-.16-.35-.35-.35h-5.79c-.19,0-.35.16-.35.35s.16.35.35.35Z"></path><path class="cls-1" d="m12.26,25.96h14.32c.19,0,.35-.16.35-.35s-.16-.35-.35-.35h-14.32c-.19,0-.35.16-.35.35s.16.35.35.35Z"></path><path class="cls-1" d="m11.45,19.77h11.49c.19,0,.35-.16.35-.35v-2.37c0-.19-.16-.35-.35-.35h-11.49c-.19,0-.35.16-.35.35v2.37c0,.19.16.35.35.35Zm.35-2.37h10.79v1.67h-10.79v-1.67Z"></path><path class="cls-1" d="m25.92,19.33c.23,0,.46-.06.67-.18l.55.55c.07.07.16.1.25.1s.18-.03.25-.1c.14-.14.14-.36,0-.49l-.55-.55c.3-.52.23-1.18-.21-1.62-.53-.53-1.38-.53-1.91,0s-.53,1.38,0,1.91c.26.26.61.39.95.39Zm-.46-1.81c.13-.13.29-.19.46-.19s.33.06.46.19c.25.25.25.67,0,.92s-.67.25-.92,0-.25-.67,0-.92Z"></path><path class="cls-1" d="m21.46,12.89h1.98c.19,0,.35-.16.35-.35s-.16-.35-.35-.35h-1.98c-.19,0-.35.16-.35.35s.16.35.35.35Z"></path><path class="cls-1" d="m25.35,12.89h1.98c.19,0,.35-.16.35-.35s-.16-.35-.35-.35h-1.98c-.19,0-.35.16-.35.35s.16.35.35.35Z"></path><path class="cls-1" d="m12.61,13.15c.26,0,.48-.22.48-.48s-.22-.48-.48-.48-.48.22-.48.48.22.48.48.48Zm0-.7c.12,0,.22.1.22.22s-.1.22-.22.22-.22-.1-.22-.22.1-.22.22-.22Z"></path><path class="cls-1" d="m14.56,13.15c.27,0,.48-.22.48-.48s-.22-.48-.48-.48-.48.22-.48.48.22.48.48.48Zm0-.7c.12,0,.22.1.22.22s-.1.22-.22.22-.22-.1-.22-.22.1-.22.22-.22Z"></path><path class="cls-1" d="m16.51,13.15c.26,0,.48-.22.48-.48s-.22-.48-.48-.48-.48.22-.48.48.22.48.48.48Zm0-.7c.12,0,.22.1.22.22s-.1.22-.22.22-.22-.1-.22-.22.1-.22.22-.22Z"></path></g></svg> 