<?xml version="1.0" encoding="UTF-8"?> <svg xmlns="http://www.w3.org/2000/svg" id="_Слой_2" viewBox="0 0 38.83 38.83"><defs><style>.cls-1{fill:#303240;}.cls-2{fill:#f7f8f8;stroke:#1daee5;stroke-miterlimit:10;}</style></defs><g id="_Слой_1-2"><circle class="cls-2" cx="19.42" cy="19.42" r="18.92"></circle><path class="cls-1" d="m18.86,14.85h-8.38c-.18,0-.33.15-.33.33v8.38c0,.18.15.33.33.33h8.38c.18,0,.33-.15.33-.33v-8.38c0-.18-.15-.33-.33-.33Zm-.33,8.38h-7.71v-7.71h7.71v7.71Z"></path><path class="cls-1" d="m10.48,12.13h4.46c.18,0,.33-.15.33-.33s-.15-.33-.33-.33h-4.46c-.18,0-.33.15-.33.33s.15.33.33.33Z"></path><path class="cls-1" d="m10.48,13.62h1.82c.18,0,.33-.15.33-.33s-.15-.33-.33-.33h-1.82c-.18,0-.33.15-.33.33s.15.33.33.33Z"></path><path class="cls-1" d="m17.7,13.07c.7,0,1.27-.57,1.27-1.27s-.57-1.27-1.27-1.27-1.27.57-1.27,1.27.57,1.27,1.27,1.27Zm0-1.87c.33,0,.6.27.6.6s-.27.6-.6.6-.6-.27-.6-.6.27-.6.6-.6Z"></path><path class="cls-1" d="m15.17,18.38c.65,0,1.18-.53,1.18-1.18s-.53-1.18-1.18-1.18-1.18.53-1.18,1.18.53,1.18,1.18,1.18Zm0-1.7c.28,0,.51.23.51.51s-.23.51-.51.51-.51-.23-.51-.51.23-.51.51-.51Z"></path><path class="cls-1" d="m12.24,22.46h2.58s0,0,0,0h2.19c.26,0,.5-.13.64-.36.14-.23.15-.5.03-.74l-1.09-2.14c-.13-.25-.39-.41-.67-.41h0c-.29,0-.54.16-.67.41l-.35.68-.62-1.21c-.13-.25-.39-.41-.67-.41s-.54.16-.67.41l-1.37,2.68c-.12.24-.11.51.03.74.14.23.38.36.64.36Zm3.6-2.93c.04-.08.11-.08.15,0l1.09,2.14s0,.07,0,.09c-.01.02-.03.04-.07.04h-1.29c.02-.15,0-.29-.07-.43l-.37-.73.57-1.11Zm-3.68,2.14l1.37-2.68s.05-.05.08-.05.06,0,.08.05l1.37,2.68s0,.06,0,.08c-.01.02-.03.04-.07.04h-2.73s-.06-.02-.07-.04-.02-.05,0-.08Z"></path><path class="cls-1" d="m30.39,13.91l-9.43-3.23v-1.38c0-.18-.15-.33-.33-.33h-12.08c-.18,0-.33.15-.33.33v16.19c0,.18.15.33.33.33h4.8c.04.05.09.1.15.12l11.43,3.92s.07.02.11.02c.05,0,.1-.01.15-.03.08-.04.14-.11.17-.19l5.24-15.32c.06-.17-.03-.37-.21-.43Zm-9.43,3.71l5.31,1.82-2.5,7.29-2.91-1c.06-.06.1-.15.1-.24v-7.87Zm-12.08-7.98h11.41v15.52h-11.41v-15.52Zm15.95,19.48l-9.61-3.29h3.86l4.8,1.65s.07.02.11.02c.05,0,.1-.01.15-.03.08-.04.14-.11.17-.19l2.72-7.93c.06-.17-.03-.37-.21-.43l-5.84-2v-1.3h.04s.07.03.11.03c.14,0,.27-.09.32-.23.06-.17-.03-.37-.21-.42l-.25-.09v-.86l3.02,1.03s.07.02.11.02c.14,0,.27-.09.32-.23.06-.17-.03-.37-.21-.43l-3.24-1.11v-1.94l8.89,3.05-5.03,14.68Z"></path><path class="cls-1" d="m26.29,16.84c.14.05.27.07.41.07.19,0,.38-.04.56-.13.31-.15.53-.41.64-.73.23-.66-.13-1.39-.79-1.62-.32-.11-.67-.09-.97.06-.31.15-.53.41-.64.73s-.09.67.06.97c.15.31.41.53.73.64Zm-.16-1.4c.05-.15.16-.28.3-.35.08-.04.17-.06.26-.06.07,0,.13.01.2.03.31.11.48.45.37.77-.05.15-.16.28-.3.35-.14.07-.31.08-.46.03-.15-.05-.28-.16-.35-.31-.07-.14-.08-.31-.03-.46Z"></path></g></svg> 