<?xml version="1.0" encoding="UTF-8"?> <svg xmlns="http://www.w3.org/2000/svg" id="_Слой_2" viewBox="0 0 38.83 38.83"><defs><style>.cls-1{fill:#303240;}.cls-2{fill:#f7f8f8;stroke:#1daee5;stroke-miterlimit:10;}</style></defs><g id="_Слой_1-2"><circle class="cls-2" cx="19.42" cy="19.42" r="18.92"></circle><path class="cls-1" d="m28.5,16.56h-1.82l-6-7.11s-.02-.02-.03-.03l-.03-.04s0,0,0,0c-.3-.32-.72-.52-1.19-.52s-.88.19-1.19.52c0,0,0,0,0,.01,0,0,0,0,0,0l-6.07,7.18h-1.82c-1.26,0-2.28,1.02-2.28,2.28v8.87c0,1.26,1.02,2.28,2.28,2.28h18.16c1.26,0,2.28-1.02,2.28-2.28v-8.87c0-1.26-1.02-2.28-2.28-2.28Zm-8.18-6.09c0,.5-.4.9-.9.9s-.9-.4-.9-.9c0-.22.08-.44.23-.6h0c.17-.19.41-.29.66-.29.5,0,.9.4.9.9Zm-2.45.45c.19.67.82,1.17,1.55,1.17s1.36-.5,1.55-1.17l4.77,5.64h-12.64l4.77-5.64Zm12.19,16.79c0,.86-.7,1.56-1.56,1.56H10.34c-.86,0-1.56-.7-1.56-1.56v-8.87c0-.86.7-1.56,1.56-1.56h18.16c.86,0,1.56.7,1.56,1.56v8.87Z"></path><path class="cls-1" d="m14.72,23.07c1.23,0,2.22-1,2.22-2.22s-1-2.22-2.22-2.22-2.22,1-2.22,2.22,1,2.22,2.22,2.22Zm0-3.72c.83,0,1.5.67,1.5,1.5s-.67,1.5-1.5,1.5-1.5-.67-1.5-1.5.67-1.5,1.5-1.5Z"></path><path class="cls-1" d="m16.23,23.53c-1.23,0-2.22,1-2.22,2.22s1,2.22,2.22,2.22,2.22-1,2.22-2.22-1-2.22-2.22-2.22Zm0,3.72c-.83,0-1.5-.67-1.5-1.5s.67-1.5,1.5-1.5,1.5.67,1.5,1.5-.67,1.5-1.5,1.5Z"></path><path class="cls-1" d="m22.74,22.71c0-.2-.16-.36-.36-.36h-1.11v-1.2h.91c.2,0,.36-.16.36-.36s-.16-.36-.36-.36h-.91v-1.09h1.11c.2,0,.36-.16.36-.36s-.16-.36-.36-.36h-1.47c-.2,0-.36.16-.36.36v3.72c0,.2.16.36.36.36h1.47c.2,0,.36-.16.36-.36Z"></path><path class="cls-1" d="m19.92,20.09v-.15c0-.73-.6-1.33-1.33-1.33-.24,0-.47.07-.66.18-.06-.11-.17-.18-.31-.18-.2,0-.36.16-.36.36v3.72c0,.2.16.36.36.36s.36-.16.36-.36v-1.44c.18.1.39.15.61.15.73,0,1.33-.6,1.33-1.33Zm-.72,0c0,.34-.27.61-.61.61s-.61-.27-.61-.61v-.15c0-.34.27-.61.61-.61s.61.27.61.61v.15Z"></path><path class="cls-1" d="m27.98,24.25c.2,0,.36-.16.36-.36s-.16-.36-.36-.36h-1.47c-.2,0-.36.16-.36.36v3.72c0,.2.16.36.36.36h1.47c.2,0,.36-.16.36-.36s-.16-.36-.36-.36h-1.11v-1.2h.91c.2,0,.36-.16.36-.36s-.16-.36-.36-.36h-.91v-1.09h1.11Z"></path><path class="cls-1" d="m26.21,18.98c0-.2-.16-.36-.36-.36s-.36.16-.36.36v2.43l-1.57-2.61c-.08-.14-.25-.2-.4-.16-.16.04-.26.18-.26.35v3.72c0,.2.16.36.36.36s.36-.16.36-.36v-2.43l1.57,2.61c.07.11.18.17.31.17.03,0,.06,0,.1-.01.16-.04.26-.18.26-.35v-3.72Z"></path><path class="cls-1" d="m13.16,23.53c-.2,0-.36.16-.36.36v1.45h-1.49v-1.45c0-.2-.16-.36-.36-.36s-.36.16-.36.36v3.72c0,.2.16.36.36.36s.36-.16.36-.36v-1.56h1.49v1.56c0,.2.16.36.36.36s.36-.16.36-.36v-3.72c0-.2-.16-.36-.36-.36Z"></path><path class="cls-1" d="m21.55,23.61c-.2,0-.36.16-.36.36v2.45c0,.43-.35.78-.78.78s-.78-.35-.78-.78v-2.45c0-.2-.16-.36-.36-.36s-.36.16-.36.36v2.45c0,.83.67,1.5,1.5,1.5s1.5-.67,1.5-1.5v-2.45c0-.2-.16-.36-.36-.36Z"></path><path class="cls-1" d="m24.44,25.42c-.24-.1-.89-.35-.89-.46,0-.52.33-.52.48-.52.5,0,.74.3.75.32.11.16.33.2.5.09.16-.11.21-.34.09-.5-.02-.03-.44-.63-1.34-.63-.73,0-1.2.49-1.2,1.24,0,.6.59.83,1.34,1.13.53.21.54.59.54.61-.01.12-.1.51-.58.51-.65,0-1.05-.62-1.06-.62-.11-.17-.33-.22-.5-.11-.17.11-.22.33-.11.5.02.04.62.96,1.66.96.94,0,1.26-.75,1.3-1.17,0-.04.04-.93-.99-1.33Z"></path></g></svg> 