<?xml version="1.0" encoding="UTF-8"?> <svg xmlns="http://www.w3.org/2000/svg" id="_Слой_2" viewBox="0 0 38.83 38.83"><defs><style>.cls-1{fill:#303240;}.cls-2{fill:#f7f8f8;stroke:#1daee5;stroke-miterlimit:10;}</style></defs><g id="_Слой_1-2"><circle class="cls-2" cx="19.42" cy="19.42" r="18.92"></circle><path class="cls-1" d="m29.22,12.75l-1.11-1.11c-.07-.07-.17-.11-.27-.11h-13.94v-.52c0-.1-.04-.2-.11-.27l-1.11-1.11c-.15-.15-.39-.15-.54,0l-1.11,1.11c-.07.07-.11.17-.11.27v.52h-1.02c-.21,0-.39.17-.39.39v2.22c0,.21.17.39.39.39h1.02v14.43c0,.21.17.39.39.39s.39-.17.39-.39V11.16l.73-.73.73.73v.75s0,0,0,0,0,0,0,0v2.22s0,0,0,0,0,0,0,0v14.81c0,.21.17.39.39.39s.39-.17.39-.39v-14.43h2.88v.88h-.51c-.79,0-1.43.64-1.43,1.43v8.47c0,.79.64,1.43,1.43,1.43h10.41c.79,0,1.43-.64,1.43-1.43v-8.47c0-.79-.64-1.43-1.43-1.43h-.59v-.88h1.74c.1,0,.2-.04.27-.11l1.11-1.11c.15-.15.15-.39,0-.54Zm-18.95,1v-1.45h.63v1.45h-.63Zm17.06,3.08v8.47c0,.36-.29.66-.66.66h-10.41c-.36,0-.66-.29-.66-.66v-8.47c0-.36.29-.66.66-.66h10.41c.36,0,.66.29.66.66Zm-2.01-1.43h-7.77v-.88h7.77v.88Zm2.35-1.65h-13.78v-1.45h13.78l.73.73-.73.73Z"></path><path class="cls-1" d="m21.68,16.59s-.05-.03-.07-.04c-.02,0-.04-.02-.06-.02-.03,0-.05,0-.08,0-.02,0-.05,0-.07,0-.02,0-.05.01-.07.02-.02,0-.05.02-.07.03,0,0-.02,0-.02.01l-4.39,3.35c-.08.06-.14.16-.15.26s.02.21.09.29l.9,1.07s.01,0,.02.01c.03.04.07.07.11.09,0,0,.01,0,.02,0,.04.02.09.03.13.03,0,0,0,0,0,0,.02,0,.05,0,.07-.01,0,0,.02,0,.03,0v3.45c0,.21.17.39.39.39h6.04c.21,0,.39-.17.39-.39v-3.45s.02,0,.03,0c.02,0,.04.01.06.01,0,0,0,0,.01,0,.05,0,.09-.01.13-.03,0,0,.02,0,.02,0,.04-.02.08-.05.11-.09,0,0,.01,0,.02-.01l.9-1.07c.07-.08.1-.19.09-.29s-.07-.2-.15-.26l-4.39-3.35s-.02,0-.02-.01Zm-.94,8.17v-2.44h1.45v2.44h-1.45Zm2.22,0v-2.83c0-.21-.17-.39-.39-.39h-2.22c-.21,0-.39.17-.39.39v2.83h-1.14v-3.61l2.63-2.01,2.63,2.01v3.61h-1.14Zm1.94-3.96l-3.21-2.45s-.01,0-.02,0c-.02-.02-.05-.03-.08-.04-.02,0-.04-.02-.06-.02-.02,0-.05,0-.07,0-.03,0-.05,0-.07,0-.02,0-.04.01-.06.02-.03.01-.05.02-.08.04,0,0-.01,0-.02,0l-3.21,2.45-.4-.48,3.84-2.93,3.84,2.93-.4.48Z"></path></g></svg> 