<?xml version="1.0" encoding="UTF-8"?> <svg xmlns="http://www.w3.org/2000/svg" id="_Слой_2" viewBox="0 0 38.83 38.83"><defs><style>.cls-1{fill:#303240;}.cls-2{fill:#f7f8f8;stroke:#1daee5;stroke-miterlimit:10;}</style></defs><g id="_Слой_1-2"><circle class="cls-2" cx="19.42" cy="19.42" r="18.92"></circle><path class="cls-1" d="m28.99,18.54s0-.01,0-.02c0-.03,0-.06-.02-.09,0,0,0-.02-.01-.03-.02-.03-.04-.07-.07-.09,0,0,0,0,0,0l-2.39-2.24v-5.96c0-.2-.16-.36-.36-.36h-13.44c-.2,0-.36.16-.36.36v5.97l-2.39,2.24s0,0,0,0c-.03.03-.05.06-.07.09,0,0,0,.02-.01.03-.01.03-.02.06-.02.09,0,0,0,.01,0,.02,0,0,0,0,0,0v10.22c0,.18.15.32.32.32h18.5c.18,0,.32-.15.32-.32v-10.22s0,0,0,0Zm-.84-.03l-1.66,1.16v-2.72l1.66,1.55Zm-2.38-8.04v9.71l-4.22,2.96-1.95-1.42s0,0-.01,0c-.02-.01-.04-.02-.07-.03-.02,0-.03-.01-.05-.02-.02,0-.04,0-.07,0-.02,0-.04,0-.06,0-.02,0-.04.01-.06.02-.02,0-.04.02-.06.03,0,0,0,0-.01,0l-1.95,1.42-4.22-2.96v-9.71h12.72Zm-13.44,9.2l-1.66-1.16,1.66-1.55v2.71Zm16.01,8.77H10.49v-9.28l1.9,1.34c.05.08.13.14.23.16l4.1,2.87-4.51,3.28c-.14.11-.18.31-.07.45.06.09.16.13.26.13.07,0,.13-.02.19-.06l6.82-4.96,6.82,4.96c.06.04.12.06.19.06.1,0,.2-.05.26-.13.11-.14.07-.35-.07-.45l-4.51-3.28,4.1-2.87c.1-.02.18-.08.23-.16l1.91-1.34v9.28Z"></path><path class="cls-1" d="m16.53,14.94c.74,0,1.33-.6,1.33-1.33s-.6-1.33-1.33-1.33-1.33.6-1.33,1.33.6,1.33,1.33,1.33Zm0-1.95c.34,0,.61.28.61.61s-.28.61-.61.61-.61-.28-.61-.61.28-.61.61-.61Z"></path><path class="cls-1" d="m14.52,19.97h9.53c.13,0,.25-.07.31-.18.06-.11.06-.25,0-.36l-3.61-6.05c-.13-.22-.49-.22-.62,0l-2.09,3.5-.84-1.41c-.13-.22-.49-.22-.62,0l-2.36,3.95c-.07.11-.07.25,0,.36.06.11.18.18.31.18Zm5.91-5.7l2.98,4.98h-5.95l.86-1.44s0-.01,0-.02l2.1-3.52Zm-3.55,2.09l.73,1.23-.99,1.66h-1.46l1.72-2.89Z"></path></g></svg> 