<?xml version="1.0" encoding="UTF-8"?> <svg xmlns="http://www.w3.org/2000/svg" viewBox="0 0 38.83 38.83"><circle cx="19.42" cy="19.42" r="18.92" style="fill:#f6f7f7;stroke:#00abe4;stroke-miterlimit:10"></circle><path d="M16.31,17.57a3.08,3.08,0,1,0,3.08-3.08A3.08,3.08,0,0,0,16.31,17.57Zm5.28,0a2.2,2.2,0,1,1-2.2-2.2A2.21,2.21,0,0,1,21.59,17.57Z" transform="translate(0 0)" style="fill:#2d3b49"></path><path d="M29.81,20.78l-1.63-1.63-1.63,1.63.63.62.48-.48a8.37,8.37,0,0,1-3.44,5.65v-2.4A2.2,2.2,0,0,0,22,22H16.75a2.2,2.2,0,0,0-2.2,2.2v2.4A8.39,8.39,0,0,1,11.12,21l-.87.13a9.24,9.24,0,0,0,18.32-.38l.62.63ZM17.63,27.93V25.49h-.88v2.19a7.73,7.73,0,0,1-1.32-.57V24.17a1.32,1.32,0,0,1,1.32-1.32H22a1.33,1.33,0,0,1,1.32,1.32v3a9,9,0,0,1-1.32.56v-2.2h-.88v2.45a8,8,0,0,1-3.52,0Z" transform="translate(0 0)" style="fill:#2d3b49"></path><path d="M20.58,12,20,11.44a8.31,8.31,0,0,1,7.66,7.49l.88-.08A9.19,9.19,0,0,0,20,10.56l.6-.6L20,9.34,18.32,11,20,12.6Z" transform="translate(0 0)" style="fill:#2d3b49"></path><path d="M12.22,19.2l-.62-.62-.54.54a8.4,8.4,0,0,1,7.07-7.61L18,10.64a9.28,9.28,0,0,0-7.82,8.53l-.6-.59L9,19.2l1.63,1.63Z" transform="translate(0 0)" style="fill:#2d3b49"></path></svg> 