<?xml version="1.0" encoding="UTF-8"?> <svg xmlns="http://www.w3.org/2000/svg" viewBox="0 0 38.84 38.84"><circle cx="19.42" cy="19.42" r="18.92" style="fill:#f6f7f7;stroke:#00abe4;stroke-miterlimit:10"></circle><path d="M31.62,29.68H29.73L32,22.56a.38.38,0,0,0-.05-.34.38.38,0,0,0-.31-.16h-6a6.75,6.75,0,0,0-4.14-2.25.35.35,0,0,0-.32.11,4.16,4.16,0,0,1-2.87.81,8.83,8.83,0,0,1-3.48-.62h-.23a6.18,6.18,0,0,0-6.17,6.18v3.42H7.21a.4.4,0,0,0-.39.38.41.41,0,0,0,.39.39H31.62a.4.4,0,0,0,.38-.39.38.38,0,0,0-.35-.41Zm-2.69,0H18.82l2.28-6.87h10ZM9.18,26.26a5.41,5.41,0,0,1,5.37-5.45h0a9.73,9.73,0,0,0,3.73.66,5.31,5.31,0,0,0,3.26-.9A6.37,6.37,0,0,1,24.63,22h-3.8a.39.39,0,0,0-.37.26L18,29.64H13.13l-.3-2.52a.39.39,0,0,0-.47-.29.39.39,0,0,0-.3.38l.29,2.43H9.18Z" style="fill:#2d3b49"></path><path d="M12.34,17.57a1.87,1.87,0,0,0,1.84,1.53h1.43a1.09,1.09,0,0,0,1,.7h1.27a1.09,1.09,0,1,0,.21-2.17H16.61a1.09,1.09,0,0,0-1,.7H14.14a1.08,1.08,0,0,1-1.05-.79A1.3,1.3,0,0,0,14,16.31V14.64a1.32,1.32,0,0,0-.85-1.22,5,5,0,0,1,9.63,0,1.51,1.51,0,0,0-.28.15,4.83,4.83,0,0,0-8.86-1,.38.38,0,0,0,.15.52h0a.39.39,0,0,0,.52-.15,4.06,4.06,0,1,1,5.38,5.58.39.39,0,0,0,.18.73.49.49,0,0,0,.17,0,4.83,4.83,0,0,0,2.15-2.16,1.31,1.31,0,0,0,1.83.27,1.33,1.33,0,0,0,.53-1.05V14.64a1.3,1.3,0,0,0-1-1.27,5.71,5.71,0,0,0-11.11,0,1.32,1.32,0,0,0-1,1.28v1.66A1.32,1.32,0,0,0,12.34,17.57Zm4.28.83h1.27A.32.32,0,0,1,18,19H16.62a.32.32,0,0,1-.26-.37A.32.32,0,0,1,16.62,18.4Zm7.17-3.76v1.67a.54.54,0,0,1-.54.54h0a.54.54,0,0,1-.54-.54h0V14.64a.54.54,0,0,1,.54-.54h0a.55.55,0,0,1,.5.54Zm-11.63,0a.54.54,0,0,1,.54-.54h0a.55.55,0,0,1,.54.54v1.67a.54.54,0,0,1-.54.54h0a.54.54,0,0,1-.54-.54h0Z" style="fill:#2d3b49"></path></svg> 