<?xml version="1.0" encoding="UTF-8"?> <svg xmlns="http://www.w3.org/2000/svg" id="_Слой_2" viewBox="0 0 38.83 38.83"><defs><style>.cls-1{fill:#303240;}.cls-2{fill:#f7f8f8;stroke:#1daee5;stroke-miterlimit:10;}</style></defs><g id="_Слой_1-2"><circle class="cls-2" cx="19.42" cy="19.42" r="18.92"></circle><path class="cls-1" d="m22.52,19.24v-2.56c0-.15-.12-.27-.27-.27h-1.46c-.15,0-.27.12-.27.27v.54l-1.03-1.03c-.1-.1-.28-.1-.38,0l-3.55,3.57c-.08.08-.1.19-.06.29.04.1.14.17.25.17h.57v3.31c0,.15.12.27.27.27h5.42c.15,0,.27-.12.27-.27v-3.31h.57c.11,0,.21-.07.25-.17.04-.1.02-.22-.06-.29l-.52-.53Zm-1.46-2.29h.92v1.74l-.92-.92v-.82Zm-1.76-.18l2.76,2.77s0,0,0,0l.14.14h-5.8l2.9-2.92Zm-.41,6.5v-1.1c0-.23.18-.41.41-.41s.41.18.41.41v1.1h-.82Zm2.85,0h-1.49v-1.1c0-.53-.43-.95-.95-.95s-.95.43-.95.95v1.1h-1.49v-3.04h4.88v3.04Z"></path><path class="cls-1" d="m28.51,13.45s0,0,0,0v-.8c0-1.18-.96-2.14-2.14-2.14h-13.91c-1.18,0-2.14.96-2.14,2.14v.8s0,0,0,0,0,0,0,0v11.94c0,1.18.96,2.14,2.14,2.14h13.15l.56.56c.16.16.37.24.57.24s.42-.08.57-.24.24-.36.24-.57c0-.11-.02-.21-.06-.31.63-.38,1.02-1.06,1.02-1.82v-11.94s0,0,0,0Zm-16.05-2.36h13.91c.85,0,1.55.7,1.55,1.55v.51H10.91v-.51c0-.85.7-1.55,1.55-1.55Zm14.44,16.58c-.09.09-.23.09-.31,0l-.64-.64s0,0,0,0l-1.91-1.91.31-.31,2.5,2.5s0,0,0,0l.04.04c.09.09.09.23,0,.31Zm-3.36-2.83c-.08.03-.13.09-.16.16l-.58.58-.3-.3c.4-.24.79-.53,1.13-.88.34-.34.64-.72.89-1.13l.3.3-.58.58c-.07.03-.13.08-.16.16,0,0,0,0,0,0l-.52.52s0,0,0,0Zm-.29-.82c-2.11,2.11-5.55,2.11-7.66,0-1.02-1.02-1.59-2.38-1.59-3.83s.56-2.81,1.59-3.83c1.02-1.02,2.38-1.59,3.83-1.59s2.81.56,3.83,1.59t0,0c1.02,1.02,1.59,2.38,1.59,3.83s-.56,2.81-1.59,3.83Zm3.88,2.73l-2.36-2.36.62-.62c.11-.11.11-.28,0-.38l-.6-.6c.39-.8.59-1.68.59-2.59,0-1.59-.62-3.09-1.75-4.21h0c-1.13-1.13-2.62-1.75-4.21-1.75s-3.09.62-4.21,1.75c-1.13,1.13-1.75,2.62-1.75,4.21s.62,3.09,1.75,4.21c1.16,1.16,2.69,1.74,4.21,1.74.89,0,1.77-.2,2.58-.59l.61.61c.05.05.12.08.19.08s.14-.03.19-.08l.62-.62,1.41,1.41h-12.56c-.85,0-1.55-.7-1.55-1.55v-11.65h17.01v11.65c0,.57-.31,1.08-.8,1.35Z"></path><path class="cls-1" d="m12.24,12.55c.21,0,.39-.17.39-.39s-.17-.39-.39-.39-.39.17-.39.39.17.39.39.39Zm0-.59c.11,0,.2.09.2.2s-.09.2-.2.2-.2-.09-.2-.2.09-.2.2-.2Z"></path><path class="cls-1" d="m13.63,12.55c.21,0,.39-.17.39-.39s-.17-.39-.39-.39-.39.17-.39.39.17.39.39.39Zm0-.59c.11,0,.2.09.2.2s-.09.2-.2.2-.2-.09-.2-.2.09-.2.2-.2Z"></path><path class="cls-1" d="m15.03,12.55c.21,0,.39-.17.39-.39s-.17-.39-.39-.39-.39.17-.39.39.17.39.39.39Zm0-.59c.11,0,.2.09.2.2s-.09.2-.2.2-.2-.09-.2-.2.09-.2.2-.2Z"></path></g></svg> 