<svg width="20" height="20" viewBox="0 0 20 20" fill="none" xmlns="http://www.w3.org/2000/svg">
    <path d="M18.855 1.01713C18.7709 0.982295 18.6743 1.00159 18.61 1.06592L1.06592 18.6099C1.00159 18.6743 0.982296 18.7709 1.01713 18.855C1.0518 18.9391 1.13401 18.9939 1.22501 18.9939H18.769C18.8933 18.9939 18.994 18.8931 18.994 18.7689L18.9939 1.22485C18.9939 1.13385 18.9391 1.0518 18.855 1.01697L18.855 1.01713ZM18.5441 18.5443H1.76798L4.29616 16.0161L4.76496 16.4896C4.80905 16.534 4.86695 16.5563 4.92484 16.5563C4.98195 16.5563 5.03922 16.5346 5.08299 16.4912C5.17132 16.4038 5.17211 16.2615 5.08471 16.1732L4.61434 15.6981L5.96754 14.3449L6.42803 14.8101C6.47212 14.8545 6.53001 14.8768 6.58791 14.8768C6.64502 14.8768 6.70228 14.8551 6.74606 14.8117C6.83439 14.7243 6.83517 14.582 6.74778 14.4936L6.28556 14.0269L7.63876 12.6737L8.0911 13.1305C8.13519 13.175 8.19308 13.1972 8.25097 13.1972C8.30808 13.1972 8.36535 13.1756 8.40912 13.1321C8.49745 13.0447 8.49824 12.9024 8.41085 12.8141L7.95678 12.3555L9.30998 11.0023L9.75416 11.451C9.79825 11.4954 9.85615 11.5177 9.91404 11.5177C9.97115 11.5177 10.0284 11.496 10.0722 11.4526C10.1605 11.3652 10.1613 11.2229 10.0739 11.1346L9.628 10.6843L10.9811 9.3312L11.4172 9.77144C11.4613 9.81585 11.5192 9.83813 11.5771 9.83813C11.6342 9.83813 11.6915 9.81647 11.7354 9.77302C11.8234 9.68562 11.8244 9.54316 11.737 9.45499L11.2993 9.01301L12.6525 7.65982L13.0801 8.09175C13.1242 8.13615 13.1821 8.15843 13.24 8.15843C13.2971 8.15843 13.3544 8.13678 13.3982 8.09332C13.4865 8.00593 13.4873 7.86363 13.3999 7.7753L12.9705 7.34164L14.3237 5.98844L14.7432 6.41222C14.7873 6.45662 14.8452 6.4789 14.9031 6.4789C14.9602 6.4789 15.0175 6.45725 15.0612 6.41379C15.1496 6.3264 15.1503 6.1841 15.063 6.09577L14.6417 5.67042L15.9949 4.31722L16.4063 4.73269C16.4504 4.77709 16.5083 4.79937 16.5661 4.79937C16.6233 4.79937 16.6805 4.77772 16.7243 4.73426C16.8126 4.64687 16.8134 4.50456 16.726 4.41623L16.3131 3.9992L18.5441 1.76816L18.5441 18.5443Z" fill="black" stroke="black" stroke-width="0.6"/>
    <path d="M15.2888 10.8346C14.8211 10.6411 14.3079 10.7436 13.9491 11.1025L11.158 13.8938C10.7935 14.2583 10.6902 14.7811 10.888 15.2586C11.0835 15.7307 11.5206 16.0241 12.0281 16.0241H14.8194C15.5008 16.0241 16.0552 15.4653 16.0552 14.7784L16.0553 11.9869C16.0553 11.4718 15.7616 11.0304 15.2889 10.8346L15.2888 10.8346ZM15.6054 14.7784C15.6054 15.2172 15.2529 15.5743 14.8196 15.5743H12.0281C11.6428 15.5743 11.4012 15.3223 11.3034 15.0865C11.204 14.8466 11.1971 14.4908 11.4759 14.212L14.2673 11.4205C14.4358 11.252 14.6321 11.19 14.8125 11.19C14.9234 11.19 15.0284 11.2136 15.1167 11.2501C15.353 11.348 15.6055 11.593 15.6055 11.9869L15.6054 14.7784Z" fill="black" stroke="black" stroke-width="0.6"/>
</svg>
