<svg width="26" height="26" viewBox="0 0 26 26" fill="none" xmlns="http://www.w3.org/2000/svg">
    <path d="M24.914 1.08027C24.8013 1.0342 24.6719 1.05972 24.5857 1.1448L1.08829 24.3473C1.00213 24.4323 0.976288 24.5602 1.02294 24.6714C1.06938 24.7826 1.17949 24.855 1.30137 24.855H24.7988C24.9653 24.855 25.1002 24.7218 25.1002 24.5575L25.0999 1.35499C25.0999 1.23464 25.0266 1.12612 24.914 1.08005L24.914 1.08027ZM24.4975 24.2604H2.02858L5.41468 20.9168L6.04257 21.5431C6.10162 21.6018 6.17916 21.6313 6.2567 21.6313C6.33319 21.6313 6.40989 21.6026 6.46852 21.5451C6.58682 21.4296 6.58788 21.2414 6.47083 21.1245L5.84084 20.4963L7.65323 18.7066L8.26999 19.3218C8.32904 19.3806 8.40658 19.41 8.48412 19.41C8.56061 19.41 8.63731 19.3814 8.69593 19.3239C8.81424 19.2083 8.81529 19.0201 8.69824 18.9033L8.07918 18.286L9.89157 16.4964L10.4974 17.1006C10.5565 17.1593 10.634 17.1888 10.7115 17.1888C10.788 17.1888 10.8647 17.1602 10.9233 17.1027C11.0416 16.9871 11.0427 16.7989 10.9257 16.6821L10.3175 16.0756L12.1299 14.2859L12.7248 14.8794C12.7839 14.9381 12.8614 14.9676 12.9389 14.9676C13.0154 14.9676 13.0921 14.9389 13.1508 14.8815C13.2691 14.7659 13.2701 14.5777 13.1531 14.4609L12.5558 13.8653L14.3681 12.0759L14.9522 12.6581C15.0113 12.7168 15.0888 12.7463 15.1664 12.7463C15.2429 12.7463 15.3196 12.7177 15.3784 12.6602C15.4963 12.5446 15.4975 12.3562 15.3805 12.2396L14.7942 11.6551L16.6066 9.86541L17.1794 10.4367C17.2385 10.4954 17.316 10.5248 17.3936 10.5248C17.47 10.5248 17.5467 10.4962 17.6054 10.4387C17.7237 10.3232 17.7247 10.135 17.6077 10.0181L17.0326 9.44461L18.845 7.65497L19.4068 8.21543C19.4659 8.27415 19.5434 8.30362 19.621 8.30362C19.6975 8.30362 19.7742 8.27498 19.8328 8.21751C19.9511 8.10193 19.9521 7.91373 19.8351 7.79691L19.2709 7.23438L21.0833 5.44474L21.6343 5.9942C21.6933 6.05293 21.7708 6.08239 21.8484 6.08239C21.9249 6.08239 22.0016 6.05376 22.0602 5.99628C22.1785 5.8807 22.1796 5.6925 22.0625 5.57568L21.5095 5.02415L24.4976 2.07353L24.4975 24.2604Z" fill="#48a427" stroke="#48a427" stroke-width="0.577211"/>
    <path d="M20.1342 14.0653C19.5077 13.8095 18.8204 13.945 18.3398 14.4197L14.6015 18.1113C14.1134 18.5933 13.9749 19.2847 14.2399 19.9163C14.5017 20.5406 15.0872 20.9287 15.767 20.9287H19.5055C20.4181 20.9287 21.1605 20.1896 21.1605 19.2811L21.1607 15.5894C21.1607 14.9082 20.7674 14.3243 20.1342 14.0653L20.1342 14.0653ZM20.5582 19.2811C20.5582 19.8615 20.086 20.3338 19.5057 20.3338H15.7669C15.2508 20.3338 14.9273 20.0005 14.7963 19.6886C14.6631 19.3714 14.6539 18.9008 15.0273 18.5321L18.766 14.8403C18.9917 14.6174 19.2545 14.5355 19.4962 14.5355C19.6448 14.5355 19.7853 14.5666 19.9036 14.6149C20.2201 14.7444 20.5582 15.0683 20.5582 15.5893L20.5582 19.2811Z" fill="#48a427" stroke="#48a427" stroke-width="0.577211"/>
</svg>
