<?xml version="1.0" encoding="utf-8"?>
<!-- Generator: Adobe Illustrator 24.1.1, SVG Export Plug-In . SVG Version: 6.00 Build 0)  -->
<svg version="1.1" id="Слой_1" xmlns="http://www.w3.org/2000/svg" xmlns:xlink="http://www.w3.org/1999/xlink" x="0px" y="0px"
	 width="269.6px" height="88.8px" viewBox="0 0 269.6 88.8" style="enable-background:new 0 0 269.6 88.8;" xml:space="preserve">
<style type="text/css">
	.st0{fill:#EA4335;}
	.st1{fill:#FBBC05;}
	.st2{fill:#4285F4;}
	.st3{fill:#34A853;}
</style>
<path class="st0" d="M115.4,46.7c0,12.8-10,22.2-22.3,22.2s-22.3-9.4-22.3-22.2c0-12.9,10-22.2,22.3-22.2S115.4,33.8,115.4,46.7z
	 M105.7,46.7c0-8-5.8-13.4-12.5-13.4s-12.5,5.5-12.5,13.4c0,7.9,5.8,13.4,12.5,13.4S105.7,54.6,105.7,46.7z"/>
<path class="st1" d="M163.4,46.7c0,12.8-10,22.2-22.3,22.2s-22.3-9.4-22.3-22.2c0-12.8,10-22.2,22.3-22.2S163.4,33.8,163.4,46.7z
	 M153.6,46.7c0-8-5.8-13.4-12.5-13.4s-12.5,5.5-12.5,13.4c0,7.9,5.8,13.4,12.5,13.4S153.6,54.6,153.6,46.7z"/>
<path class="st2" d="M209.4,25.9v39.8c0,16.4-9.7,23.1-21.1,23.1c-10.8,0-17.2-7.2-19.7-13.1l8.5-3.5c1.5,3.6,5.2,7.9,11.2,7.9
	c7.3,0,11.8-4.5,11.8-13v-3.2h-0.3c-2.2,2.7-6.4,5-11.7,5c-11.1,0-21.3-9.7-21.3-22.1c0-12.5,10.2-22.3,21.3-22.3
	c5.3,0,9.5,2.4,11.7,5h0.3v-3.6L209.4,25.9L209.4,25.9z M200.8,46.8c0-7.8-5.2-13.5-11.8-13.5c-6.7,0-12.4,5.7-12.4,13.5
	c0,7.7,5.6,13.4,12.4,13.4C195.6,60.2,200.8,54.5,200.8,46.8z"/>
<path class="st3" d="M224.6,2.5v65h-9.5v-65H224.6z"/>
<path class="st0" d="M261.7,54l7.6,5c-2.4,3.6-8.3,9.8-18.5,9.8c-12.6,0-22-9.7-22-22.2c0-13.2,9.5-22.2,20.9-22.2
	c11.5,0,17.1,9.2,19,14.1l1,2.5L240,53.4c2.3,4.5,5.8,6.7,10.8,6.7C255.7,60.1,259.1,57.7,261.7,54L261.7,54z M238.4,46l19.8-8.2
	c-1.1-2.8-4.4-4.7-8.2-4.7C245,33.1,238.1,37.5,238.4,46z"/>
<path class="st2" d="M34.9,40.9v-9.4h31.7c0.3,1.6,0.5,3.6,0.5,5.7c0,7.1-1.9,15.8-8.2,22c-6,6.3-13.8,9.7-24,9.7
	C16,68.9,0,53.4,0,34.4S16,0,34.9,0c10.5,0,18,4.1,23.6,9.5l-6.6,6.6c-4-3.8-9.5-6.7-17-6.7c-13.9,0-24.7,11.2-24.7,25
	s10.8,25,24.7,25c9,0,14.1-3.6,17.4-6.9c2.7-2.7,4.4-6.5,5.1-11.7L34.9,40.9z"/>
</svg>
