<?xml version="1.0" encoding="UTF-8"?> <svg xmlns="http://www.w3.org/2000/svg" width="50" height="50" viewBox="0 0 50 50" fill="none"><g clip-path="url(#clip0)"><path d="M49.27 20.0065L44.1951 19.3726C43.7915 17.996 43.2397 16.6675 42.55 15.4102L45.6925 11.3692C45.9505 11.0376 45.9212 10.5656 45.6242 10.2681L39.7318 4.37581C39.4344 4.07837 38.962 4.04907 38.63 4.30745L34.589 7.44995C33.3317 6.76066 32.0036 6.2089 30.6274 5.80485L29.9935 0.72998C29.9414 0.312907 29.587 0 29.1667 0H20.8333C20.413 0 20.0586 0.312907 20.0065 0.72998L19.3726 5.80485C17.9964 6.2089 16.6679 6.76066 15.4102 7.44995L11.3692 4.30745C11.0376 4.04948 10.5656 4.07878 10.2681 4.37581L4.37581 10.2681C4.07878 10.5656 4.04948 11.0376 4.30745 11.3692L7.44995 15.4102C6.76066 16.6679 6.2089 17.9964 5.80485 19.3726L0.72998 20.0065C0.312907 20.0586 0 20.413 0 20.8333V29.1667C0 29.587 0.312907 29.9414 0.72998 29.9935L5.80485 30.6274C6.2089 32.0036 6.76066 33.3321 7.44995 34.5898L4.30745 38.6308C4.04948 38.9624 4.07878 39.4344 4.37581 39.7318L10.2681 45.6242C10.5656 45.9212 11.0376 45.9505 11.3692 45.6925L15.4102 42.55C16.6679 43.2393 17.9964 43.7911 19.3726 44.1951L20.0065 49.27C20.0586 49.6871 20.413 50 20.8333 50H29.1667V48.3333H21.569L20.9566 43.4375C20.9147 43.0994 20.671 42.821 20.3418 42.734C18.7345 42.312 17.1924 41.6728 15.7585 40.8333C15.4643 40.6612 15.0948 40.6852 14.8258 40.8944L10.9265 43.925L6.07503 39.0735L9.10767 35.1742C9.316 34.9048 9.3396 34.5353 9.16667 34.2415C8.32642 32.8076 7.68636 31.2659 7.264 29.6582C7.17733 29.329 6.89901 29.0853 6.56087 29.0434L1.66667 28.431V21.569L6.5625 20.9566C6.90063 20.9147 7.17896 20.671 7.26603 20.3418C7.68799 18.7345 8.32723 17.1924 9.16667 15.7585C9.33879 15.4643 9.31478 15.0948 9.10563 14.8258L6.07503 10.9265L10.9265 6.07503L14.8258 9.10767C15.0952 9.316 15.4647 9.3396 15.7585 9.16667C17.1924 8.32682 18.7345 7.68677 20.3418 7.264C20.671 7.17733 20.9147 6.89901 20.9566 6.56087L21.569 1.66667H28.431L29.0434 6.5625C29.0853 6.90104 29.3294 7.17936 29.659 7.26603C31.2663 7.68799 32.808 8.32723 34.2415 9.16667C34.5357 9.33879 34.9052 9.31478 35.1742 9.10563L39.0735 6.07503L43.9258 10.9265L40.8923 14.8258C40.684 15.0952 40.6604 15.4647 40.8333 15.7585C41.674 17.192 42.3145 18.7341 42.7368 20.3418C42.8235 20.671 43.1018 20.9147 43.4399 20.9566L48.3333 21.569V29.1667H50V20.8333C50 20.413 49.6871 20.0586 49.27 20.0065Z" fill="#48a427"></path><path d="M24.167 5H25.8337V6.66667H24.167V5Z" fill="#48a427"></path><path d="M10.2686 11.4469L11.4469 10.2686L12.6253 11.4469L11.4469 12.6253L10.2686 11.4469Z" fill="#48a427"></path><path d="M5 24.1666H6.66667V25.8333H5V24.1666Z" fill="#48a427"></path><path d="M10.2686 38.553L11.4469 37.3746L12.6253 38.553L11.4469 39.7318L10.2686 38.553Z" fill="#48a427"></path><path d="M43.333 24.1666H44.9997V25.8333H43.333V24.1666Z" fill="#48a427"></path><path d="M37.375 11.4477L38.5534 10.2689L39.7322 11.4473L38.5538 12.6261L37.375 11.4477Z" fill="#48a427"></path><path d="M23.2368 39.8974L23.4305 38.2425C16.5221 37.4222 11.4053 31.4286 11.6796 24.4771C11.9534 17.5256 17.5259 11.9531 24.4774 11.6792C31.4289 11.405 37.4226 16.5217 38.2429 23.4301L39.8978 23.2364C38.9769 15.4638 32.2338 9.70574 24.4123 10.0134C16.5913 10.321 10.3213 16.5909 10.0137 24.412C9.7061 32.2334 15.4642 38.9766 23.2368 39.8974Z" fill="#48a427"></path><path d="M27.4997 25C27.4952 23.9445 26.8283 23.0053 25.833 22.6534V16.6666H24.1664V22.6534C23.4604 22.9052 22.905 23.4607 22.6531 24.1666H18.333V25.8333H22.6531C23.0571 26.9803 24.2294 27.6688 25.4282 27.4629C26.6269 27.2566 27.5021 26.2162 27.4997 25ZM24.1664 25C24.1664 24.5398 24.5395 24.1666 24.9997 24.1666C25.4599 24.1666 25.833 24.5398 25.833 25C25.833 25.4602 25.4599 25.8333 24.9997 25.8333C24.5395 25.8333 24.1664 25.4602 24.1664 25Z" fill="#48a427"></path><path d="M13.333 24.1666H14.9997V25.8333H13.333V24.1666Z" fill="#48a427"></path><path d="M24.167 13.3334H25.8337V15H24.167V13.3334Z" fill="#48a427"></path><path d="M37.5 25C30.5965 25 25 30.5965 25 37.5C25 44.4035 30.5965 50 37.5 50C44.4035 50 50 44.4035 50 37.5C49.9923 30.5998 44.4002 25.0077 37.5 25ZM34.1667 47.8031V45H32.5V47.1008C31.9124 46.7916 31.3546 46.4286 30.8333 46.0177V45.0167C30.8358 43.9006 31.5747 42.9199 32.6465 42.609L34.4584 42.0927L36.9999 43.9998C37.2961 44.2224 37.7039 44.2224 38.0001 43.9998L40.5408 42.0927L42.3535 42.6099C43.4253 42.9199 44.1642 43.9006 44.1667 45.0167V46.0217C43.6454 46.4331 43.0876 46.7957 42.5 47.1049V45H40.8333V47.8031C38.6674 48.5099 36.3326 48.5099 34.1667 47.8031ZM40.2832 32.8715L39.9125 32.1285C39.8055 31.9145 39.6122 31.7566 39.3807 31.6951C39.1496 31.6345 38.9038 31.6752 38.704 31.8066L37.4642 32.6335C36.7802 33.0904 35.9757 33.3337 35.1534 33.3333H34.1667C34.1602 31.4925 35.6474 29.9947 37.4882 29.9882C39.3294 29.9817 40.8268 31.4689 40.8333 33.3101C40.5945 33.2524 40.3931 33.0916 40.2832 32.8715ZM35.1534 35C36.3049 35.0008 37.4308 34.6598 38.3883 34.0202L38.8448 33.7158C39.1073 34.1789 39.5125 34.5443 40 34.7575V35.8333C40 37.2139 38.8806 38.3333 37.5 38.3333C36.1194 38.3333 35 37.2139 35 35.8333V35H35.1534ZM37.5 40C37.7799 40.0004 38.0591 39.9723 38.3333 39.9166V40.8333C38.3362 41.0706 38.4408 41.2952 38.621 41.4502L37.5 42.2917L36.379 41.4502C36.5592 41.2952 36.6638 41.0706 36.6667 40.8333V39.9166C36.9409 39.9723 37.2201 40.0004 37.5 40ZM45.7874 44.4633C45.5672 42.8239 44.4006 41.4689 42.8125 41.0067L40 40.2035V39.1451C41.0453 38.3647 41.663 37.1379 41.6667 35.8333V35C42.1269 35 42.5 34.6269 42.5 34.1667V33.3333C42.5 30.5721 40.2612 28.3333 37.5 28.3333C34.7388 28.3333 32.5 30.5721 32.5 33.3333V34.1667C32.5 34.6269 32.8731 35 33.3333 35V35.8333C33.337 37.1379 33.9547 38.3647 35 39.1451V40.2035L32.1883 41.0067C30.5998 41.4685 29.4332 42.8239 29.2126 44.4633C25.5139 40.07 25.8862 33.5539 30.0614 29.6106C34.2367 25.6673 40.7633 25.6673 44.9386 29.6106C49.1138 33.5539 49.4861 40.07 45.7874 44.4633Z" fill="#48a427"></path><path d="M27.5 36.6666H29.1667V38.3333H27.5V36.6666Z" fill="#48a427"></path><path d="M45.833 36.6666H47.4997V38.3333H45.833V36.6666Z" fill="#48a427"></path></g><defs><clipPath id="clip0"><rect width="50" height="50" fill="white"></rect></clipPath></defs></svg> 