<?xml version="1.0" encoding="UTF-8"?> <svg xmlns="http://www.w3.org/2000/svg" width="50" height="48" viewBox="0 0 50 48" fill="none"><path d="M49.2676 40.2011C48.863 40.2011 48.5352 40.529 48.5352 40.9335V45.8273C48.5352 45.8953 48.4799 45.9507 48.4118 45.9507H45.6288V35.2498C45.6288 34.8453 45.301 34.5174 44.8964 34.5174C44.4918 34.5174 44.164 34.8453 44.164 35.2498V45.9508H38.7861L40.2416 44.3495C40.4664 44.1021 40.5724 43.7509 40.5252 43.4098C40.5241 43.4024 40.5231 43.3952 40.5218 43.3879L38.8856 33.7203L39.1866 33.2671L39.2651 33.3228C39.5335 33.5135 39.8759 33.583 40.2071 33.5003C40.5324 33.419 40.805 33.2001 40.9548 32.9001V32.9L42.6197 29.563L46.423 31.036C46.5731 31.1012 48.5348 32.0007 48.5348 34.3411V37.5153C48.5349 37.9199 48.8627 38.2479 49.2673 38.2479C49.6719 38.2479 49.9997 37.9199 49.9997 37.5154V34.3412C49.9997 30.9613 47.1008 29.7308 46.9774 29.68C46.9728 29.678 46.9682 29.6762 46.9635 29.6744L40.4872 27.1662V25.8323C41.4982 25.019 42.2081 23.8468 42.4213 22.5106C42.9255 22.4473 43.3933 22.2454 43.7815 21.9116C44.3381 21.4328 44.6575 20.7363 44.6575 20.0006C44.6575 19.4134 44.4537 18.8515 44.0888 18.4052V16.4289C44.0888 12.5611 40.9421 9.41451 37.0745 9.41451C35.3381 9.41451 33.7483 10.0501 32.522 11.0991C32.5062 10.5378 32.3053 10.0031 31.9552 9.57496V7.59869C31.9552 3.73093 28.8085 0.584351 24.941 0.584351C21.0732 0.584351 17.9266 3.73102 17.9266 7.59869V9.62652C17.5746 10.0472 17.3776 10.5544 17.3602 11.0928C16.5778 10.4242 15.6414 9.92076 14.5977 9.64595C14.2059 9.54283 13.8058 9.77652 13.7028 10.1677C13.5998 10.5589 13.8334 10.9596 14.2246 11.0627C16.6575 11.7033 18.3567 13.91 18.3567 16.4288V17.5242C18.3251 17.5176 18.2235 17.5001 18.2196 17.4996C18.2096 17.2928 18.1573 17.1665 18.0446 17.0044C17.8571 16.735 17.5204 16.3994 16.4374 15.2353C16.0514 14.8207 15.4272 14.7447 14.9534 15.0544C13.0984 16.2662 10.8448 16.8837 8.7534 16.761C8.07215 16.721 7.64667 17.0204 7.46532 17.5109C7.44911 17.5135 7.26795 17.55 7.2579 17.5525V16.4288C7.2579 14.0001 8.88074 11.8153 11.2043 11.1154C11.5916 10.9988 11.811 10.5902 11.6944 10.2028C11.5777 9.81539 11.1685 9.59595 10.7817 9.71275C9.36863 10.1383 8.09842 11.0245 7.20536 12.2077C6.28124 13.4317 5.79286 14.8914 5.79286 16.4289V18.4568C5.42392 18.8976 5.2244 19.4333 5.2244 20.0006C5.2244 21.2545 6.14823 22.3481 7.46444 22.5112C7.68006 23.8161 8.38807 25.0676 9.50545 25.9185V27.1666L3.03642 29.6746C3.03183 29.6764 3.02724 29.6782 3.02265 29.6801C2.89902 29.7308 0 30.9612 0 34.3411V45.8273C0 46.7032 0.712499 47.4156 1.58838 47.4156H24.1441C24.4593 47.4156 24.7526 47.3222 25.0001 47.1632C25.2473 47.3222 25.5407 47.4156 25.856 47.4156H48.4118C49.2876 47.4156 50.0001 46.7032 50.0001 45.8273V40.9335C50 40.529 49.6722 40.2011 49.2676 40.2011ZM7.39276 20.9978C6.96337 20.8419 6.68905 20.4448 6.68905 20.0004C6.68905 19.5695 7.00155 19.2154 7.39276 19.0473V20.9978ZM41.2479 29.0317L39.8102 31.9131C39.81 31.9129 38.2132 30.7788 38.1906 30.7627C38.8794 29.9123 38.5558 30.3118 39.9882 28.5439L41.2479 29.0317ZM37.1318 29.7424L35.2375 27.4042V26.7016C35.8533 26.9145 36.5165 27.0127 37.1408 27.0129C37.1409 27.0129 37.1411 27.0129 37.1412 27.0129H37.1413C37.7868 27.0128 38.4404 26.8903 39.0224 26.6712V27.4087L37.1318 29.7424ZM37.9917 32.4185L37.7223 32.824H36.5415L36.2721 32.4185L37.132 31.8078L37.9917 32.4185ZM24.9981 20.9121L23.1039 18.574V17.8713C23.7171 18.0833 24.3797 18.1825 25.0072 18.1827C25.0073 18.1827 25.0075 18.1827 25.0076 18.1827H25.0077C25.652 18.1827 26.3054 18.0605 26.8887 17.8411V18.5785L24.9981 20.9121ZM25.858 23.5884L25.5885 23.994H24.4078L24.1383 23.5884L24.9982 22.9778L25.858 23.5884ZM19.2302 13.6107C19.35 13.6433 19.473 13.6655 19.5979 13.6809C19.8135 14.9859 20.5215 16.2373 21.6389 17.0882V18.3364L20.1447 18.9156C20.0581 18.7336 19.9498 18.5622 19.8213 18.4051V16.4289C19.8213 15.4349 19.6119 14.4794 19.2302 13.6107ZM28.8902 12.8351C28.8902 14.979 27.1414 16.7175 25.0077 16.7175C22.6003 16.7175 20.9916 14.8518 20.9916 12.8351V9.40426C23.3043 9.49683 25.707 8.81139 27.6713 7.58873C28.3318 8.29693 28.7248 8.70836 28.8903 8.89937C28.8902 10.7229 28.8902 11.427 28.8902 12.8351ZM30.2877 13.6804C30.412 13.6648 30.5344 13.6425 30.6535 13.61C30.273 14.4733 30.0601 15.4264 30.0601 16.4289V18.4567C29.9475 18.5912 29.8506 18.7344 29.7705 18.8847L28.3537 18.3361V17.0021C29.3645 16.1887 30.0746 15.0166 30.2877 13.6804ZM22.1391 19.7148L23.9372 21.9341L22.711 22.805C22.7103 22.8055 22.7098 22.806 22.7091 22.8065L22.32 23.0829L20.8822 20.2016L22.1391 19.7148ZM26.6838 21.1585L27.8544 19.7136L29.1141 20.2014L27.6765 23.0829L27.2865 22.806C27.2861 22.8057 27.2857 22.8053 27.2853 22.805L26.0569 21.9325L26.6838 21.1585ZM27.053 24.4369L27.1314 24.4926C27.4052 24.6871 27.7489 24.7514 28.0735 24.6701C28.3988 24.5888 28.6713 24.37 28.8211 24.07V24.0699L30.0573 21.5924C30.482 22.1159 31.0962 22.4342 31.7288 22.5132C31.9523 23.9136 32.7092 25.1087 33.7727 25.9185V27.1665L27.5457 29.5807L26.7518 24.8903L27.053 24.4369ZM34.2728 28.5449L36.0708 30.7643C35.2847 31.3228 34.4944 31.8842 34.4536 31.9131L33.0159 29.0318L34.2728 28.5449ZM41.0238 21.6654C41.0239 23.7569 39.3254 25.5478 37.1413 25.5478C34.6519 25.5478 33.1252 23.598 33.1252 21.6654V18.2345C35.4215 18.3262 37.8273 17.6498 39.8049 16.419C40.4654 17.1272 40.8583 17.5386 41.0238 17.7296C41.0238 19.5531 41.0238 20.2573 41.0238 21.6654ZM43.1927 20.0005C43.1927 20.4456 42.9175 20.842 42.489 20.9978V19.0053C42.9319 19.1666 43.1927 19.5714 43.1927 20.0005ZM31.525 16.4288C31.525 13.3688 34.0146 10.8794 37.0744 10.8794C40.1344 10.8794 42.6237 13.3689 42.6237 16.4288V17.5242C42.5904 17.5172 42.4988 17.5014 42.4866 17.4996C42.4767 17.2926 42.424 17.1661 42.3116 17.0044C42.1192 16.728 41.7862 16.3981 40.7044 15.2353C40.3267 14.8298 39.7038 14.7385 39.2204 15.0544C37.4157 16.2333 35.1357 16.8993 32.966 16.7583C32.3566 16.7184 31.9151 17.0168 31.7324 17.511C31.7161 17.5136 31.5352 17.5501 31.5249 17.5526V16.4288H31.525ZM31.6603 19.0474V20.9968C31.2296 20.8415 30.9566 20.4433 30.9566 20.0004C30.9565 19.5695 31.2688 19.2156 31.6603 19.0474ZM31.0588 11.1704C31.0588 11.4788 30.9253 11.7705 30.6926 11.9706C30.5927 12.0565 30.4788 12.1225 30.3551 12.1675V10.1751C30.7931 10.334 31.0588 10.7367 31.0588 11.1704ZM24.9407 2.04919C28.0006 2.04919 30.4901 4.53864 30.4901 7.5986V8.694C30.457 8.68717 30.3652 8.67125 30.353 8.66939C30.3421 8.44508 30.2775 8.30719 30.1455 8.12877C29.9495 7.86334 29.5879 7.4984 28.5707 6.40504C28.1867 5.99264 27.5628 5.91305 27.0868 6.22418C25.1809 7.4693 22.8689 8.07525 20.7733 7.92516C20.2606 7.88639 19.7779 8.19615 19.5988 8.68062C19.5825 8.68326 19.4015 8.71978 19.3914 8.72223V7.59869H19.3913C19.3913 4.53864 21.8808 2.04919 24.9407 2.04919ZM19.5264 10.2171V12.1676C19.097 12.0118 18.8227 11.6146 18.8227 11.1703C18.8227 10.7418 19.1328 10.3864 19.5264 10.2171ZM18.2214 19.0053C18.6311 19.1544 18.8943 19.512 18.9204 19.9369C18.9532 20.4093 18.6629 20.8366 18.2214 20.9969V19.0053ZM18.1535 22.513C18.8443 22.4266 19.4784 22.0625 19.8942 21.5025L21.1753 24.0699C21.1753 24.0699 21.1753 24.0699 21.1754 24.07C21.3251 24.37 21.5976 24.5888 21.9229 24.6701C22.2445 24.7505 22.5885 24.689 22.865 24.4926L22.9434 24.4369L23.2445 24.8902L22.4508 29.5793L16.22 27.1661V25.8327H16.2199C17.2573 24.9963 17.9453 23.8145 18.1535 22.513ZM12.8642 29.7424L10.97 27.4042V26.7016C11.5833 26.9136 12.246 27.0127 12.8734 27.0128C12.8735 27.0128 12.8737 27.0128 12.8738 27.0128C13.5287 27.0128 14.181 26.887 14.7549 26.6712V27.4087L12.8642 29.7424ZM13.7242 32.4185L13.4548 32.824H12.274L12.0046 32.4185L12.8644 31.8078L13.7242 32.4185ZM15.7206 28.5439L16.9803 29.0318L15.5426 31.9131L15.1526 31.6361C15.1522 31.6359 15.1518 31.6355 15.1514 31.6352L13.923 30.7627L15.7206 28.5439ZM8.8577 21.6654V18.2345C11.1828 18.3274 13.587 17.6329 15.5374 16.419C16.1916 17.1206 16.5906 17.5384 16.7563 17.7296C16.7563 19.5532 16.7563 20.2574 16.7563 21.6654C16.7563 23.7955 15.0195 25.5478 12.8738 25.5478C10.4848 25.5478 8.8577 23.7033 8.8577 21.6654ZM10.0054 28.5449L11.8034 30.7643L10.5772 31.6352C10.5765 31.6357 10.5761 31.6361 10.5754 31.6366L10.1862 31.9131L8.74842 29.0318L10.0054 28.5449ZM5.83622 45.9509V35.2498C5.83622 34.8453 5.50839 34.5174 5.1038 34.5174C4.69921 34.5174 4.37138 34.8453 4.37138 35.2498V45.9508H1.58838C1.52021 45.9508 1.46494 45.8954 1.46494 45.8274V34.3411C1.46494 31.9887 3.44706 31.092 3.57538 31.0365L7.37626 29.563L9.04139 32.9C9.04139 32.9 9.04139 32.9 9.04149 32.9001C9.19119 33.2002 9.46375 33.419 9.78914 33.5003C10.1107 33.5807 10.4548 33.5191 10.7312 33.3228L10.8096 33.2671L11.1107 33.7203L9.47449 43.3879C9.47322 43.3951 9.47215 43.4024 9.47108 43.4098C9.42401 43.7507 9.52996 44.1019 9.75486 44.3497L11.2102 45.9508H5.83622V45.9509ZM10.9446 43.4805L12.5002 34.289H13.2286L14.7842 43.4805L12.8644 45.5925L10.9446 43.4805ZM24.2674 45.8273C24.2674 45.8954 24.2122 45.9508 24.1441 45.9508H21.3613V35.2498C21.3613 34.8453 21.0335 34.5174 20.6289 34.5174C20.2243 34.5174 19.8964 34.8453 19.8964 35.2498V45.9508H14.5185L15.9741 44.3495C16.1989 44.1021 16.3049 43.7509 16.2577 43.4098C16.2566 43.4024 16.2555 43.3952 16.2543 43.3879L14.618 33.7203L14.9191 33.2671L14.9975 33.3228C15.1935 33.462 15.4256 33.5347 15.661 33.5347C16.0906 33.5347 16.4907 33.294 16.6874 32.9001V32.9L18.3523 29.5631L22.1555 31.036C23.2641 31.5183 24.2673 32.7619 24.2673 34.3411V45.8273H24.2674ZM25 31.6796C24.6965 31.1907 24.2926 30.7384 23.8057 30.3524L24.6339 25.4589H25.3624L26.191 30.3549C25.6911 30.7519 25.2924 31.2083 25 31.6796ZM30.1037 45.9509V35.2498C30.1037 34.8453 29.7758 34.5174 29.3712 34.5174C28.9666 34.5174 28.6388 34.8453 28.6388 35.2498V45.9508H25.8559C25.7878 45.9508 25.7325 45.8954 25.7325 45.8274V34.3411C25.7325 33.4704 26.0055 32.6685 26.5872 31.9947C26.9749 31.5499 27.4893 31.1898 27.843 31.0365L31.6439 29.5629L33.309 32.9C33.309 32.9 33.309 32.9 33.3091 32.9001C33.4588 33.2002 33.7314 33.419 34.0567 33.5003C34.3783 33.5807 34.7223 33.5191 34.9988 33.3228L35.0772 33.2671L35.3783 33.7203L33.742 43.3879C33.7408 43.3951 33.7397 43.4024 33.7386 43.4098C33.6915 43.7507 33.7975 44.1019 34.0224 44.3497L35.4778 45.9508H30.1037V45.9509ZM35.212 43.4806L36.7677 34.2891H37.4961L39.0518 43.4806L37.1319 45.5926L35.212 43.4806Z" fill="#48a427"></path></svg> 