<svg xmlns="http://www.w3.org/2000/svg" viewBox="0 0 2884.11 2898">
  <path d="M2463.92,421.15C2192.8,149.71,1832.24.16,1448.08,0,656.56,0,12.35,644.16,12.08,1435.93c-.11,253.11,66,500.15,191.68,717.93L0,2898l761.26-199.7a1434.86,1434.86,0,0,0,686.25,174.8h.6c791.44,0,1435.7-644.23,1436-1436C2884.28,1053.37,2735.05,692.58,2463.92,421.15ZM1448.1,2630.57h-.49A1191.65,1191.65,0,0,1,840.12,2464.2l-43.59-25.87L344.79,2556.84l120.59-440.45L437,2071.23c-119.49-190-182.62-409.68-182.5-635.23.26-658.08,535.7-1193.48,1194.07-1193.48,318.81.11,618.49,124.43,843.84,350s349.38,525.49,349.26,844.41C2641.38,2095.12,2106,2630.57,1448.1,2630.57Zm654.7-893.93c-35.88-18-212.29-104.75-245.18-116.74s-56.81-18-80.73,18-92.69,116.75-113.62,140.7-41.86,26.94-77.74,9S1434,1731.75,1297,1609.5c-106.67-95.15-178.68-212.64-199.61-248.57s-2.23-55.33,15.73-73.23c16.14-16.08,35.88-41.91,53.82-62.86s23.92-35.93,35.88-59.86,6-44.9-3-62.86-80.73-194.58-110.63-266.43c-29.13-70-58.71-60.48-80.73-61.6-20.91-1-44.85-1.26-68.77-1.26s-62.8,9-95.68,44.9S718.38,940.41,718.38,1117,847,1464.24,864.9,1488.19s253,386.37,613,541.79c85.61,37,152.45,59.06,204.55,75.59,86,27.32,164.18,23.46,226,14.22,68.94-10.3,212.29-86.8,242.19-170.61s29.9-155.67,20.93-170.63-32.89-23.94-68.77-41.91Z" style="fill: #01c24a;fill-rule: evenodd"/>
</svg>
