<?xml version="1.0" encoding="UTF-8"?> <svg xmlns="http://www.w3.org/2000/svg" width="512" height="512"><g fill="#48a427"><path d="M92.545 185.09c51.029 0 92.545-41.516 92.545-92.545S143.574 0 92.545 0 0 41.516 0 92.545s41.516 92.545 92.545 92.545zm0-165.09c40.001 0 72.545 32.544 72.545 72.545s-32.544 72.545-72.545 72.545S20 132.546 20 92.545 52.544 20 92.545 20z"></path><path d="M100.501 114.526c1.952 1.945 4.506 2.917 7.06 2.917 2.564 0 5.13-.98 7.083-2.94 3.898-3.912 3.888-10.244-.023-14.143l-12.008-11.968V44c0-5.522-4.478-10-10-10s-10 4.478-10 10v48.545c0 2.658 1.059 5.207 2.94 7.083l14.948 14.898zM502 332h-61.547c-8.46-12.034-21.172-20.558-35.671-23.728l-43.964-9.613c17.991-12.134 29.847-32.702 29.847-55.988v-38.256c0-37.212-30.274-67.486-67.486-67.486s-67.486 30.274-67.486 67.486v38.256c0 23.256 11.825 43.803 29.778 55.943l-43.936 9.639c-1.877.412-3.722.917-5.535 1.502V227c0-5.522-4.478-10-10-10h-68c-5.522 0-10 4.478-10 10s4.478 10 10 10h58v140h-68v-50c0-16.542-13.458-30-30-30s-30 13.458-30 30v50H20V237h58c5.522 0 10-4.478 10-10s-4.478-10-10-10H10c-5.522 0-10 4.478-10 10v160c0 5.522 4.478 10 10 10h78v19h-1c-17.094 0-31 13.906-31 31v5H10c-5.522 0-10 4.478-10 10v40c0 5.522 4.478 10 10 10h492c5.522 0 10-4.478 10-10V342c0-5.522-4.478-10-10-10zm-60.821 120H384v-20h108v20h-50.821zM492 412H384v-20h108v20zm0-40H384v-20h50.874c.03 0 .06.006.089.006.031 0 .063-.006.094-.006H492v20zM275.692 204.416c0-26.184 21.303-47.486 47.486-47.486 24.933 0 45.439 19.314 47.342 43.767l-23.246-13.657c-4.211-2.475-9.593-1.544-12.73 2.199-10.126 12.085-24.977 19.017-40.744 19.017h-18.107v-3.84zm0 23.839H293.8c18.825 0 36.7-7.179 50.205-19.94l26.66 15.663v18.694c0 26.184-21.303 47.486-47.486 47.486s-47.486-21.303-47.486-47.486v-14.417zm63.152 80.048l-15.815 42.294-15.844-42.37c5.13 1.252 10.483 1.931 15.993 1.931 5.394 0 10.635-.654 15.666-1.855zM226 397c5.522 0 10-4.478 10-10v-55.623c3.085-1.626 6.374-2.832 9.82-3.588l43.74-9.596 24.103 64.457c1.461 3.907 5.194 6.497 9.366 6.497s7.905-2.59 9.366-6.498l24.104-64.461 44.011 9.623c3.863.844 7.529 2.274 10.902 4.188H374c-5.522 0-10 4.478-10 10v110H215.179v-55H226zm-30.821 0v55H180v-5c0-17.094-13.906-31-31-31h-1v-19h47.179zM108 327c0-5.514 4.486-10 10-10s10 4.486 10 10v89h-20v-89zM76 447c0-6.065 4.935-11 11-11h62c6.065 0 11 4.935 11 11v5H76v-5zm416 45H20v-20h472v20z"></path><path d="M110.93 219.93c-1.86 1.86-2.93 4.44-2.93 7.07s1.069 5.21 2.93 7.069c1.86 1.86 4.44 2.931 7.07 2.931s5.21-1.07 7.069-2.931C126.93 232.21 128 229.63 128 227s-1.07-5.21-2.931-7.07C123.21 218.07 120.63 217 118 217s-5.21 1.069-7.07 2.93z"></path></g></svg> 